{
.appVersion = "3112";
.formatVersion = 3;
customParameters = (
{
name = vendorID;
value = PYRS;
},
{
name = panose;
value = (
2,
11,
5,
3,
3,
0,
0,
2,
0,
4
);
},
{
name = unicodeRanges;
value = (
0,
1,
2,
3,
5,
6,
9,
31,
33,
35,
37,
38,
47
);
},
{
name = codePageRanges;
value = (
"1252",
"1250",
"1251",
"1254",
"1257",
"bit 29"
);
},
{
name = fsType;
value = (
);
},
{
name = glyphOrder;
value = (
.notdef,
uni0000,
uni000D,
space,
B,
D,
E,
F,
H,
I,
L,
M,
N,
P,
R,
U,
V,
W,
X,
Y,
Z,
b,
d,
h,
i,
l,
m,
n,
p,
q,
u,
v,
w,
x,
z,
period,
comma,
A,
breve,
circumflex,
uni0326,
abreve,
acircumflex,
Abreve,
Acircumflex,
Icircumflex,
exclam,
quotedbl,
quotesingle,
numbersign,
percent,
asterisk,
plus,
slash,
colon,
semicolon,
less,
equal,
greater,
at,
bracketleft,
bracketright,
backslash,
asciicircum,
underscore,
braceleft,
bar,
braceright,
Euro,
quotedblbase,
quotesinglbase,
quotedblright,
quoteright,
quotedblleft,
quoteleft,
minus,
hyphen,
endash,
emdash,
grave,
acute,
guillemotright,
guilsinglright,
guillemotleft,
guilsinglleft,
uni00AD,
ellipsis,
uni0445,
uni0431,
uni0432,
uni0433,
uni0434,
uni0436,
uni043A,
uni0438,
uni0439,
uni043B,
uni043C,
uni043D,
uni043F,
uni0442,
uni0444,
uni0446,
uni0447,
uni0448,
uni0449,
uni044A,
uni044B,
uni044C,
uni044E,
uni044F,
uni0410,
uni0415,
uni041C,
uni041D,
uni0420,
uni0422,
uni0425,
T,
uni0412,
uni041F,
uni0413,
uni041B,
uni0414,
uni0411,
uni0416,
uni0417,
uni0418,
uni0419,
uni041A,
uni0423,
uni0424,
uni0426,
uni0427,
uni0428,
uni0429,
uni042A,
uni042B,
uni042C,
uni042D,
uni042E,
uni042F,
uni0440,
O,
a,
c,
e,
f,
g,
j,
o,
r,
t,
y2_alt,
uni0443,
uni0451,
uni0437,
uni044D,
C,
S,
uni0421,
G,
uni041E,
Q,
J,
K_alt,
K,
k_alt,
k,
i_alt,
j_alt,
s_alt,
s,
c_alt,
copyright,
ampersand,
dollar,
parenleft,
parenright,
cent,
section,
uni04C1,
uni04C2,
w_alt,
W_alt,
zero,
one,
two,
three,
four,
seven,
eight,
nine,
uni0430,
uni0435,
uni043E,
uni0441,
uni0218,
uni0219,
uni021A,
uni021B,
icircumflex,
question,
uni2116,
uni0401,
asciitilde,
trademark,

glyphs = (
{
glyphname = .notdef;
layers = (
{
layerId = m01;
shapes = (
{
closed = 1;
nodes = (
(520,-295,l),
(520,960,l),
(20,960,l),
(20,-295,l)
);
},
{
closed = 1;
nodes = (
(510,950,l),
(510,-285,l),
(30,-285,l),
(30,950,l)
);
}
);
userData = {
assembly = "MPPEM[ ]	/* MeasurePixelPerEm */
PUSHB[ ]	/* 1 value pushed */
50 
LT[ ]	/* LessThan */
IF[ ]	/* If */
NPUSHB[ ]	/* 21 values pushed */
0 3 3 0 95 0 0 0 68 77 0 2 2 1 95 0 1 1 69 1 78 
ELSE[ ]	/* Else */
NPUSHB[ ]	/* 24 values pushed */
0 0 0 3 2 0 3 103 0 2 1 1 2 87 0 2 2 1 95 0 1 2 1 79 
EIF[ ]	/* EndIf */
PUSHB[ ]	/* 7 values pushed */
17 17 17 16 4 6 26 
CALL[ ]	/* CallFunction */";
};
width = 540;
}
);
note = ".notdef";
},
{
glyphname = B;
layers = (
{
layerId = m01;
shapes = (
{
closed = 1;
nodes = (
(329,0,ls),
(378,0,o),
(475,15,o),
(553,57,o),
(603,131,o),
(606,197,qs),
(606,269,o),
(538,360,o),
(470,372,q),
(521,392,o),
(570,476,o),
(570,530,qs),
(570,584,o),
(530,654,o),
(501,673,qs),
(468,695,o),
(385,707,o),
(334,707,qs),
(86,707,l),
(86,0,l)
);
},
{
closed = 1;
nodes = (
(365,628,o),
(419,621,o),
(461,599,o),
(485,558,o),
(485,524,qs),
(484,481,o),
(449,432,o),
(421,418,qs),
(397,405,o),
(337,397,o),
(309,397,qs),
(173,397,l),
(173,628,l),
(335,628,ls)
);
},
{
closed = 1;
nodes = (
(173,319,l),
(358,319,ls),
(388,319,o),
(446,309,o),
(491,283,o),
(518,237,o),
(518,201,qs),
(518,159,o),
(482,110,o),
(423,85,o),
(358,79,o),
(326,79,qs),
(173,79,l)
);
}
);
userData = {
assembly = "NPUSHB[ ]	/* 57 values pushed */
10 1 5 2 1 76 0 2 0 5 4 2 5 103 6 1 3 3 0 95 0 0 0 38 77 7 1 4 4 1 95 0 1 1 39 1 78 35 34 20 20 45 43 34 46 35 46 20 33 20 32 34 47 32 8 8 25 
CALL[ ]	/* CallFunction */";
};
width = 655;
}
);
note = B;
unicode = 66;
},
{
glyphname = D;
kernRight = D;
layers = (
{
layerId = m01;
shapes = (
{
closed = 1;
nodes = (
(338,0,ls),
(421,0,o),
(545,51,o),
(628,144,o),
(670,274,o),
(671,353,qs),
(671,432,o),
(629,563,o),
(545,656,o),
(420,707,o),
(338,707,qs),
(87,707,l),
(87,0,l)
);
},
{
closed = 1;
nodes = (
(400,628,o),
(492,586,o),
(552,514,o),
(582,416,o),
(582,353,qs),
(582,292,o),
(552,191,o),
(520,154,qs),
(485,112,o),
(386,79,o),
(332,79,qs),
(174,79,l),
(174,628,l),
(337,628,ls)
);
}
);
userData = {
assembly = "NPUSHB[ ]	/* 34 values pushed */
4 1 3 3 0 95 0 0 0 38 77 0 2 2 1 95 0 1 1 39 1 78 13 13 13 26 13 25 34 40 32 5 8 25 
CALL[ ]	/* CallFunction */";
};
width = 720;
}
);
note = D;
unicode = 68;
},
{
glyphname = E;
layers = (
{
layerId = m01;
shapes = (
{
closed = 1;
nodes = (
(562,0,l),
(562,79,l),
(174,79,l),
(174,310,l),
(523,310,l),
(523,390,l),
(174,390,l),
(174,628,l),
(562,628,l),
(562,707,l),
(87,707,l),
(87,0,l)
);
}
);
userData = {
assembly = "NPUSHB[ ]	/* 38 values pushed */
0 2 0 3 4 2 3 103 0 1 1 0 95 0 0 0 38 77 0 4 4 5 95 0 5 5 39 5 78 17 17 17 17 17 16 6 8 28 
CALL[ ]	/* CallFunction */";
};
width = 610;
}
);
note = E;
unicode = 69;
},
{
glyphname = F;
layers = (
{
layerId = m01;
shapes = (
{
closed = 1;
nodes = (
(174,283,l),
(513,283,l),
(513,363,l),
(174,363,l),
(174,628,l),
(562,628,l),
(562,707,l),
(87,707,l),
(87,0,l),
(174,0,l)
);
}
);
userData = {
assembly = "NPUSHB[ ]	/* 38 values pushed */
0 2 0 3 4 2 3 103 0 1 1 0 95 0 0 0 38 77 5 1 4 4 39 4 78 0 0 0 9 0 9 17 17 17 17 6 8 26 
CALL[ ]	/* CallFunction */";
};
width = 599;
}
);
note = F;
unicode = 70;
},
{
glyphname = H;
layers = (
{
layerId = m01;
shapes = (
{
closed = 1;
nodes = (
(174,707,l),
(87,707,l),
(87,0,l),
(174,0,l),
(174,307,l),
(553,307,l),
(553,0,l),
(640,0,l),
(640,707,l),
(553,707,l),
(553,387,l),
(174,387,l)
);
}
);
userData = {
assembly = "NPUSHB[ ]	/* 36 values pushed */
6 1 5 0 2 1 5 2 103 4 1 0 0 38 77 3 1 1 1 39 1 78 0 0 0 11 0 11 17 17 17 17 17 7 8 27 
CALL[ ]	/* CallFunction */";
};
width = 727;
}
);
note = H;
unicode = 72;
},
{
glyphname = I;
layers = (
{
layerId = m01;
shapes = (
{
closed = 1;
nodes = (
(87,707,l),
(87,0,l),
(174,0,l),
(174,707,l)
);
}
);
userData = {
assembly = "NPUSHB[ ]	/* 16 values pushed */
0 1 1 38 77 0 0 0 39 0 78 17 16 2 8 24 
CALL[ ]	/* CallFunction */";
};
width = 261;
}
);
note = I;
unicode = 73;
},
{
glyphname = L;
layers = (
{
layerId = m01;
shapes = (
{
closed = 1;
nodes = (
(562,0,l),
(562,79,l),
(174,79,l),
(174,707,l),
(87,707,l),
(87,0,l)
);
}
);
userData = {
assembly = "NPUSHB[ ]	/* 22 values pushed */
0 0 0 38 77 0 1 1 2 96 0 2 2 39 2 78 17 17 16 3 8 25 
CALL[ ]	/* CallFunction */";
};
width = 574;
}
);
note = L;
unicode = 76;
},
{
glyphname = M;
layers = (
{
layerId = m01;
shapes = (
{
closed = 1;
nodes = (
(174,615,l),
(409,185,l),
(449,185,l),
(682,615,l),
(682,0,l),
(769,0,l),
(769,707,l),
(640,707,l),
(431,318,l),
(219,707,l),
(87,707,l),
(87,0,l),
(174,0,l)
);
}
);
userData = {
assembly = "NPUSHB[ ]	/* 43 values pushed */
11 8 3 3 3 0 1 76 0 3 0 2 0 3 2 128 1 1 0 0 38 77 5 4 2 2 2 39 2 78 0 0 0 12 0 12 18 17 18 17 6 8 26 
CALL[ ]	/* CallFunction */";
};
width = 856;
}
);
note = M;
unicode = 77;
},
{
glyphname = N;
layers = (
{
layerId = m01;
shapes = (
{
closed = 1;
nodes = (
(174,587,l),
(545,0,l),
(654,0,l),
(654,707,l),
(567,707,l),
(567,118,l),
(198,707,l),
(87,707,l),
(87,0,l),
(174,0,l)
);
}
);
userData = {
assembly = "NPUSHB[ ]	/* 33 values pushed */
8 3 2 2 0 1 76 1 1 0 0 38 77 4 3 2 2 2 39 2 78 0 0 0 9 0 9 17 18 17 5 8 25 
CALL[ ]	/* CallFunction */";
};
width = 741;
}
);
note = N;
unicode = 78;
},
{
glyphname = P;
layers = (
{
layerId = m01;
shapes = (
{
closed = 1;
nodes = (
(174,0,l),
(174,233,l),
(314,233,ls),
(372,233,o),
(468,263,o),
(500,289,qs),
(538,319,o),
(581,411,o),
(581,472,qs),
(581,592,o),
(449,707,o),
(332,707,qs),
(87,707,l),
(87,0,l)
);
},
{
closed = 1;
nodes = (
(174,628,l),
(328,628,ls),
(492,628,o),
(492,476,qs),
(492,430,o),
(466,372,o),
(443,352,qs),
(420,331,o),
(348,312,o),
(310,312,qs),
(174,312,l)
);
}
);
userData = {
assembly = "NPUSHB[ ]	/* 39 values pushed */
5 1 3 0 1 2 3 1 103 0 4 4 0 95 0 0 0 38 77 0 2 2 39 2 78 15 14 23 21 14 24 15 24 17 39 32 6 8 25 
CALL[ ]	/* CallFunction */";
};
width = 630;
}
);
note = P;
unicode = 80;
},
{
glyphname = R;
layers = (
{
layerId = m01;
shapes = (
{
closed = 1;
nodes = (
(500,0,l),
(595,0,l),
(447,280,l),
(478,289,o),
(536,322,o),
(579,373,o),
(605,442,o),
(605,486,qs),
(605,546,o),
(570,631,o),
(504,683,o),
(410,707,o),
(352,707,qs),
(87,707,l),
(87,0,l),
(174,0,l),
(174,265,l),
(359,265,l)
);
},
{
closed = 1;
nodes = (
(174,628,l),
(343,628,ls),
(427,628,o),
(516,565,o),
(516,489,qs),
(515,443,o),
(484,388,o),
(432,356,o),
(363,344,o),
(324,344,qs),
(174,344,l)
);
}
);
userData = {
assembly = "NPUSHB[ ]	/* 53 values pushed */
14 1 3 4 1 76 7 1 4 6 1 3 0 4 3 103 0 5 5 1 95 0 1 1 38 77 2 1 0 0 39 0 78 19 18 0 0 27 25 18 28 19 28 0 17 0 17 26 33 17 8 8 25 
CALL[ ]	/* CallFunction */";
};
width = 658;
}
);
note = R;
unicode = 82;
},
{
glyphname = U;
layers = (
{
layerId = m01;
shapes = (
{
closed = 1;
nodes = (
(556,306,ls),
(556,258,o),
(537,173,o),
(492,108,o),
(418,71,o),
(364,71,qs),
(310,71,o),
(235,108,o),
(189,172,o),
(169,258,o),
(169,306,qs),
(169,707,l),
(82,707,l),
(82,305,ls),
(82,237,o),
(114,123,o),
(182,39,o),
(289,-8,o),
(363,-8,qs),
(437,-8,o),
(543,40,o),
(612,124,o),
(644,238,o),
(644,305,qs),
(644,707,l),
(556,707,l)
);
}
);
userData = {
assembly = "NPUSHB[ ]	/* 30 values pushed */
4 3 2 1 1 38 77 0 2 2 0 97 0 0 0 47 0 78 0 0 0 25 0 25 37 21 37 5 8 25 
CALL[ ]	/* CallFunction */";
};
width = 726;
}
);
note = U;
unicode = 85;
},
{
glyphname = V;
layers = (
{
layerId = m01;
shapes = (
{
closed = 1;
nodes = (
(279,0,l),
(405,0,l),
(669,707,l),
(575,707,l),
(342,75,l),
(109,707,l),
(14,707,l)
);
}
);
userData = {
assembly = "NPUSHB[ ]	/* 30 values pushed */
1 1 1 0 1 76 3 2 2 0 0 38 77 0 1 1 39 1 78 0 0 0 6 0 6 17 18 4 8 24 
CALL[ ]	/* CallFunction */";
};
width = 683;
}
);
note = V;
unicode = 86;
},
{
glyphname = W;
kernLeft = W;
kernRight = W;
layers = (
{
layerId = m01;
shapes = (
{
closed = 1;
nodes = (
(427,707,l),
(273,75,l),
(112,707,l),
(14,707,l),
(206,0,l),
(337,0,l),
(491,624,l),
(645,0,l),
(777,0,l),
(969,707,l),
(875,707,l),
(714,75,l),
(560,707,l),
(560,707,l)
);
}
);
userData = {
assembly = "NPUSHB[ ]	/* 30 values pushed */
11 6 1 3 1 0 1 76 4 3 2 0 0 38 77 2 1 1 1 39 1 78 18 17 18 17 18 5 8 27 
CALL[ ]	/* CallFunction */";
};
width = 983;
}
);
note = W;
unicode = 87;
},
{
glyphname = X;
layers = (
{
layerId = m01;
shapes = (
{
closed = 1;
nodes = (
(127,707,l),
(21,707,l),
(241,353,l),
(14,0,l),
(116,0,l),
(296,283,l),
(474,0,l),
(579,0,l),
(351,356,l),
(571,707,l),
(466,707,l),
(297,425,l)
);
}
);
userData = {
assembly = "NPUSHB[ ]	/* 29 values pushed */
11 8 5 2 4 1 0 1 76 3 1 0 0 38 77 2 1 1 1 39 1 78 18 18 18 16 4 8 26 
CALL[ ]	/* CallFunction */";
};
width = 593;
}
);
note = X;
unicode = 88;
},
{
glyphname = Y;
kernLeft = Y;
kernRight = Y;
layers = (
{
layerId = m01;
shapes = (
{
closed = 1;
nodes = (
(115,707,l),
(14,707,l),
(264,265,l),
(264,0,l),
(351,0,l),
(351,266,l),
(600,707,l),
(501,707,l),
(309,353,l)
);
}
);
userData = {
assembly = "NPUSHB[ ]	/* 26 values pushed */
8 5 2 3 1 0 1 76 2 1 0 0 38 77 0 1 1 39 1 78 18 18 16 3 8 25 
CALL[ ]	/* CallFunction */";
};
width = 614;
}
);
note = Y;
unicode = 89;
},
{
glyphname = Z;
layers = (
{
layerId = m01;
shapes = (
{
closed = 1;
nodes = (
(44,69,l),
(44,0,l),
(546,0,l),
(546,79,l),
(156,79,l),
(553,639,l),
(553,707,l),
(57,707,l),
(57,628,l),
(436,628,l)
);
}
);
userData = {
assembly = "NPUSHB[ ]	/* 44 values pushed */
3 1 3 0 8 1 2 1 2 76 4 1 3 3 0 95 0 0 0 38 77 0 1 1 2 95 0 2 2 39 2 78 0 0 0 9 0 9 17 18 17 5 8 25 
CALL[ ]	/* CallFunction */";
};
width = 597;
}
);
note = Z;
unicode = 90;
},
{
glyphname = b;
layers = (
{
layerId = m01;
shapes = (
{
closed = 1;
nodes = (
(152,64,l),
(178,32,o),
(257,-6,o),
(311,-6,qs),
(322,-6,ls),
(383,-5,o),
(472,37,o),
(530,109,o),
(557,206,o),
(557,263,qs),
(557,320,o),
(530,419,o),
(473,491,o),
(386,533,o),
(326,533,qs),
(275,534,o),
(178,489,o),
(152,449,q),
(152,707,l),
(67,707,l),
(67,0,l),
(148,0,l)
);
},
{
closed = 1;
nodes = (
(187,120,o),
(169,158,qs),
(157,181,o),
(150,236,o),
(150,262,qs),
(150,286,o),
(160,338,o),
(171,361,qs),
(180,380,o),
(207,414,o),
(243,441,o),
(289,457,o),
(313,457,qs),
(356,457,o),
(417,426,o),
(455,374,o),
(472,303,o),
(472,263,qs),
(471,223,o),
(454,153,o),
(417,100,o),
(358,69,o),
(315,69,qs),
(261,69,o)
);
}
);
userData = {
assembly = "MPPEM[ ]	/* MeasurePixelPerEm */
PUSHB[ ]	/* 1 value pushed */
39 
LT[ ]	/* LessThan */
IF[ ]	/* If */
NPUSHB[ ]	/* 10 values pushed */
3 1 4 5 20 1 2 4 2 76 
ELSE[ ]	/* Else */
NPUSHB[ ]	/* 10 values pushed */
3 1 4 5 20 1 3 4 2 76 
EIF[ ]	/* EndIf */
MPPEM[ ]	/* MeasurePixelPerEm */
PUSHB[ ]	/* 1 value pushed */
39 
LT[ ]	/* LessThan */
IF[ ]	/* If */
NPUSHB[ ]	/* 29 values pushed */
0 0 0 38 77 0 5 5 1 97 0 1 1 49 77 7 1 4 4 2 97 6 3 2 2 2 50 2 78 
ELSE[ ]	/* Else */
NPUSHB[ ]	/* 33 values pushed */
0 0 0 38 77 0 5 5 1 97 0 1 1 49 77 6 1 3 3 39 77 7 1 4 4 2 97 0 2 2 50 2 78 
EIF[ ]	/* EndIf */
NPUSHB[ ]	/* 20 values pushed */
23 22 0 0 33 31 22 45 23 45 0 21 0 21 56 35 17 8 8 25 
CALL[ ]	/* CallFunction */";
};
width = 604;
}
);
note = b;
unicode = 98;
},
{
glyphname = d;
kernLeft = d;
layers = (
{
layerId = m01;
shapes = (
{
closed = 1;
nodes = (
(452,707,l),
(452,461,l),
(422,499,o),
(328,533,o),
(282,533,qs),
(221,533,o),
(133,491,o),
(75,418,o),
(47,319,o),
(47,262,qs),
(47,205,o),
(74,108,o),
(130,36,o),
(218,-5,o),
(278,-6,qs),
(330,-6,o),
(425,34,o),
(452,79,q),
(456,0,l),
(537,0,l),
(537,707,l)
);
},
{
closed = 1;
nodes = (
(403,417,o),
(423,388,qs),
(440,362,o),
(453,302,o),
(453,266,qs),
(453,237,o),
(441,178,o),
(427,153,qs),
(407,117,o),
(341,69,o),
(290,69,qs),
(246,69,o),
(186,100,o),
(148,152,o),
(132,219,o),
(132,261,qs),
(132,303,o),
(149,374,o),
(186,426,o),
(246,457,o),
(289,457,qs),
(337,457,o)
);
}
);
userData = {
assembly = "NPUSHB[ ]	/* 10 values pushed */
18 1 4 2 2 1 5 4 2 76 
MPPEM[ ]	/* MeasurePixelPerEm */
PUSHB[ ]	/* 1 value pushed */
39 
LT[ ]	/* LessThan */
IF[ ]	/* If */
NPUSHB[ ]	/* 28 values pushed */
0 3 3 38 77 6 1 4 4 2 97 0 2 2 49 77 0 5 5 0 97 1 1 0 0 39 0 78 
ELSE[ ]	/* Else */
NPUSHB[ ]	/* 32 values pushed */
0 3 3 38 77 6 1 4 4 2 97 0 2 2 49 77 0 0 0 39 77 0 5 5 1 97 0 1 1 50 1 78 
EIF[ ]	/* EndIf */
NPUSHB[ ]	/* 15 values pushed */
22 21 32 30 21 42 22 42 19 40 35 16 7 8 26 
CALL[ ]	/* CallFunction */";
};
width = 604;
}
);
note = d;
unicode = 100;
},
{
glyphname = h;
layers = (
{
layerId = m01;
shapes = (
{
closed = 1;
nodes = (
(152,246,ls),
(152,286,o),
(167,362,o),
(190,393,qs),
(209,421,o),
(272,458,o),
(309,458,qs),
(354,458,o),
(406,423,o),
(434,369,o),
(442,300,o),
(442,264,qs),
(442,0,l),
(527,0,l),
(527,290,ls),
(527,342,o),
(508,431,o),
(461,496,o),
(384,533,o),
(327,533,qs),
(302,533,o),
(249,522,o),
(205,500,o),
(165,466,o),
(152,446,q),
(152,707,l),
(67,707,l),
(67,0,l),
(152,0,l)
);
}
);
userData = {
assembly = "NPUSHB[ ]	/* 42 values pushed */
3 1 2 3 1 76 0 0 0 38 77 0 3 3 1 97 0 1 1 49 77 5 4 2 2 2 39 2 78 0 0 0 28 0 28 37 21 37 17 6 8 26 
CALL[ ]	/* CallFunction */";
};
width = 591;
}
);
note = h;
unicode = 104;
},
{
glyphname = i;
layers = (
{
layerId = m01;
shapes = (
{
closed = 1;
nodes = (
(59,689,o),
(59,664,qs),
(59,639,o),
(91,607,o),
(116,607,qs),
(140,607,o),
(174,639,o),
(174,664,qs),
(174,689,o),
(140,720,o),
(116,720,qs),
(91,720,o)
);
},
{
closed = 1;
nodes = (
(159,527,l),
(74,527,l),
(74,0,l),
(159,0,l)
);
}
);
userData = {
assembly = "NPUSHB[ ]	/* 42 values pushed */
0 1 1 0 97 4 1 0 0 48 77 0 2 2 41 77 5 1 3 3 39 3 78 12 12 1 0 12 15 12 15 14 13 7 5 0 11 1 11 6 8 22 
CALL[ ]	/* CallFunction */";
};
width = 233;
}
);
note = i;
unicode = 105;
},
{
glyphname = l;
layers = (
{
layerId = m01;
shapes = (
{
closed = 1;
nodes = (
(152,707,l),
(67,707,l),
(67,0,l),
(152,0,l)
);
}
);
userData = {
assembly = "NPUSHB[ ]	/* 22 values pushed */
0 0 0 38 77 2 1 1 1 39 1 78 0 0 0 3 0 3 17 3 8 23 
CALL[ ]	/* CallFunction */";
};
width = 219;
}
);
note = l;
unicode = 108;
},
{
glyphname = m;
layers = (
{
layerId = m01;
shapes = (
{
closed = 1;
nodes = (
(67,527,l),
(67,0,l),
(152,0,l),
(152,286,ls),
(152,314,o),
(163,375,o),
(192,425,o),
(239,458,o),
(275,458,qs),
(309,458,o),
(347,428,o),
(366,383,o),
(370,328,o),
(370,303,qs),
(370,0,l),
(455,0,l),
(455,287,ls),
(455,316,o),
(467,376,o),
(494,426,o),
(542,458,o),
(573,458,qs),
(607,458,o),
(647,428,o),
(667,383,o),
(672,328,o),
(672,302,qs),
(672,0,l),
(757,0,l),
(757,345,ls),
(757,385,o),
(739,453,o),
(701,504,o),
(639,533,o),
(596,533,qs),
(542,533,o),
(463,488,o),
(436,448,q),
(419,486,o),
(351,532,o),
(296,533,qs),
(251,533,o),
(178,499,o),
(153,464,q),
(149,527,l)
);
}
);
userData = {
assembly = "MPPEM[ ]	/* MeasurePixelPerEm */
PUSHB[ ]	/* 1 value pushed */
46 
LT[ ]	/* LessThan */
IF[ ]	/* If */
NPUSHB[ ]	/* 10 values pushed */
0 1 3 0 6 1 2 3 2 76 
ELSE[ ]	/* Else */
NPUSHB[ ]	/* 10 values pushed */
0 1 3 7 6 1 2 3 2 76 
EIF[ ]	/* EndIf */
MPPEM[ ]	/* MeasurePixelPerEm */
PUSHB[ ]	/* 1 value pushed */
46 
LT[ ]	/* LessThan */
IF[ ]	/* If */
NPUSHB[ ]	/* 21 values pushed */
5 1 3 3 0 97 7 1 2 0 0 49 77 6 4 2 2 2 39 2 78 
ELSE[ ]	/* Else */
NPUSHB[ ]	/* 25 values pushed */
0 7 7 41 77 5 1 3 3 0 97 1 1 0 0 49 77 6 4 2 2 2 39 2 78 
EIF[ ]	/* EndIf */
NPUSHB[ ]	/* 11 values pushed */
17 21 37 21 37 21 36 34 8 8 30 
CALL[ ]	/* CallFunction */";
};
width = 819;
}
);
note = m;
unicode = 109;
},
{
glyphname = n;
layers = (
{
layerId = m01;
shapes = (
{
closed = 1;
nodes = (
(152,241,ls),
(152,281,o),
(168,360,o),
(191,393,qs),
(210,419,o),
(274,458,o),
(314,458,qs),
(356,458,o),
(406,426,o),
(433,373,o),
(442,305,o),
(442,268,qs),
(442,0,l),
(527,0,l),
(527,291,ls),
(527,342,o),
(507,431,o),
(461,496,o),
(383,533,o),
(326,533,qs),
(302,533,o),
(251,523,o),
(205,501,o),
(166,469,o),
(153,447,q),
(149,527,l),
(67,527,l),
(67,0,l),
(152,0,l)
);
}
);
userData = {
assembly = "PUSHB[ ]	/* 6 values pushed */
3 1 2 3 1 76 
MPPEM[ ]	/* MeasurePixelPerEm */
PUSHB[ ]	/* 1 value pushed */
39 
LT[ ]	/* LessThan */
IF[ ]	/* If */
NPUSHB[ ]	/* 19 values pushed */
0 3 3 0 97 1 1 0 0 41 77 5 4 2 2 2 39 2 78 
ELSE[ ]	/* Else */
NPUSHB[ ]	/* 23 values pushed */
0 0 0 41 77 0 3 3 1 97 0 1 1 49 77 5 4 2 2 2 39 2 78 
EIF[ ]	/* EndIf */
NPUSHB[ ]	/* 13 values pushed */
0 0 0 28 0 28 37 21 37 17 6 8 26 
CALL[ ]	/* CallFunction */";
};
width = 591;
}
);
note = n;
unicode = 110;
},
{
glyphname = p;
layers = (
{
layerId = m01;
shapes = (
{
closed = 1;
nodes = (
(152,66,l),
(178,32,o),
(262,-6,o),
(322,-6,qs),
(383,-6,o),
(471,35,o),
(529,107,o),
(557,205,o),
(557,263,qs),
(557,320,o),
(529,419,o),
(472,492,o),
(387,533,o),
(326,533,qs),
(272,532,o),
(179,489,o),
(152,448,q),
(148,527,l),
(67,527,l),
(67,-190,l),
(152,-190,l)
);
},
{
closed = 1;
nodes = (
(188,120,o),
(169,158,qs),
(158,181,o),
(150,232,o),
(150,262,qs),
(150,288,o),
(158,337,o),
(169,360,qs),
(188,402,o),
(262,457,o),
(313,457,qs),
(356,457,o),
(417,426,o),
(455,374,o),
(472,303,o),
(472,263,qs),
(471,223,o),
(454,153,o),
(417,100,o),
(358,69,o),
(315,69,qs),
(261,69,o)
);
}
);
userData = {
assembly = "NPUSHB[ ]	/* 10 values pushed */
3 1 4 5 19 1 2 4 2 76 
MPPEM[ ]	/* MeasurePixelPerEm */
PUSHB[ ]	/* 1 value pushed */
16 
LT[ ]	/* LessThan */
IF[ ]	/* If */
NPUSHB[ ]	/* 29 values pushed */
0 5 5 0 97 1 1 0 0 41 77 7 1 4 4 2 97 0 2 2 50 77 6 1 3 3 43 3 78 
ELSE[ ]	/* Else */
MPPEM[ ]	/* MeasurePixelPerEm */
PUSHB[ ]	/* 1 value pushed */
46 
LT[ ]	/* LessThan */
IF[ ]	/* If */
NPUSHB[ ]	/* 35 values pushed */
0 5 5 0 97 1 1 0 0 41 77 7 1 4 4 2 97 0 2 2 50 77 6 1 3 3 0 97 1 1 0 0 41 3 78 
ELSE[ ]	/* Else */
NPUSHB[ ]	/* 33 values pushed */
0 5 5 1 97 0 1 1 49 77 7 1 4 4 2 97 0 2 2 50 77 6 1 3 3 0 95 0 0 0 41 3 78 
EIF[ ]	/* EndIf */
EIF[ ]	/* EndIf */
NPUSHB[ ]	/* 20 values pushed */
22 21 0 0 32 30 21 42 22 42 0 20 0 20 40 35 17 8 8 25 
CALL[ ]	/* CallFunction */";
};
width = 604;
}
);
note = p;
unicode = 112;
},
{
glyphname = q;
kernLeft = d;
layers = (
{
layerId = m01;
shapes = (
{
closed = 1;
nodes = (
(456,527,l),
(452,461,l),
(422,499,o),
(328,533,o),
(282,533,qs),
(221,533,o),
(133,491,o),
(75,418,o),
(47,319,o),
(47,262,qs),
(47,205,o),
(74,108,o),
(130,36,o),
(218,-5,o),
(278,-6,qs),
(330,-6,o),
(426,33,o),
(452,79,q),
(452,-190,l),
(537,-190,l),
(537,527,l)
);
},
{
closed = 1;
nodes = (
(403,417,o),
(423,388,qs),
(440,362,o),
(453,302,o),
(453,266,qs),
(453,236,o),
(441,178,o),
(427,153,qs),
(407,117,o),
(341,69,o),
(290,69,qs),
(246,69,o),
(186,100,o),
(148,152,o),
(132,219,o),
(132,263,qs),
(132,303,o),
(149,374,o),
(186,426,o),
(246,457,o),
(289,457,qs),
(337,457,o)
);
}
);
userData = {
assembly = "MPPEM[ ]	/* MeasurePixelPerEm */
PUSHB[ ]	/* 1 value pushed */
39 
LT[ ]	/* LessThan */
IF[ ]	/* If */
NPUSHB[ ]	/* 10 values pushed */
18 1 4 2 2 1 5 4 2 76 
ELSE[ ]	/* Else */
NPUSHB[ ]	/* 10 values pushed */
18 1 4 3 2 1 5 4 2 76 
EIF[ ]	/* EndIf */
MPPEM[ ]	/* MeasurePixelPerEm */
PUSHB[ ]	/* 1 value pushed */
16 
LT[ ]	/* LessThan */
IF[ ]	/* If */
NPUSHB[ ]	/* 28 values pushed */
6 1 4 4 2 97 3 1 2 2 49 77 0 5 5 1 97 0 1 1 50 77 0 0 0 43 0 78 
ELSE[ ]	/* Else */
MPPEM[ ]	/* MeasurePixelPerEm */
PUSHB[ ]	/* 1 value pushed */
39 
LT[ ]	/* LessThan */
IF[ ]	/* If */
NPUSHB[ ]	/* 34 values pushed */
6 1 4 4 2 97 3 1 2 2 49 77 0 5 5 1 97 0 1 1 50 77 0 0 0 2 97 3 1 2 2 49 0 78 
ELSE[ ]	/* Else */
NPUSHB[ ]	/* 32 values pushed */
6 1 4 4 2 97 0 2 2 49 77 0 5 5 1 97 0 1 1 50 77 0 0 0 3 95 0 3 3 41 0 78 
EIF[ ]	/* EndIf */
EIF[ ]	/* EndIf */
NPUSHB[ ]	/* 15 values pushed */
22 21 32 30 21 42 22 42 19 40 35 16 7 8 26 
CALL[ ]	/* CallFunction */";
};
width = 604;
}
);
note = q;
unicode = 113;
},
{
glyphname = u;
layers = (
{
layerId = m01;
shapes = (
{
closed = 1;
nodes = (
(150,156,o),
(150,234,qs),
(150,527,l),
(65,527,l),
(65,230,ls),
(65,110,o),
(178,-6,o),
(287,-6,qs),
(396,-6,o),
(511,110,o),
(511,230,qs),
(511,527,l),
(426,527,l),
(426,234,ls),
(426,156,o),
(359,69,o),
(287,69,qs),
(218,69,o)
);
}
);
userData = {
assembly = "NPUSHB[ ]	/* 33 values pushed */
3 1 1 1 41 77 4 1 0 0 2 97 0 2 2 50 2 78 1 0 14 13 10 8 5 4 0 17 1 17 5 8 22 
CALL[ ]	/* CallFunction */";
};
width = 576;
}
);
note = u;
unicode = 117;
},
{
glyphname = v;
layers = (
{
layerId = m01;
shapes = (
{
closed = 1;
nodes = (
(326,0,l),
(529,527,l),
(432,527,l),
(269,82,l),
(103,527,l),
(7,527,l),
(210,0,l)
);
}
);
userData = {
assembly = "NPUSHB[ ]	/* 24 values pushed */
2 1 2 0 1 76 1 1 0 0 41 77 0 2 2 39 2 78 17 18 16 3 8 25 
CALL[ ]	/* CallFunction */";
};
width = 536;
}
);
note = v;
unicode = 118;
},
{
glyphname = w;
kernLeft = w;
layers = (
{
layerId = m01;
shapes = (
{
closed = 1;
nodes = (
(291,0,l),
(421,427,l),
(551,0,l),
(667,0,l),
(831,527,l),
(734,527,l),
(610,82,l),
(479,527,l),
(364,527,l),
(234,82,l),
(108,527,l),
(12,527,l),
(176,0,l)
);
}
);
userData = {
assembly = "NPUSHB[ ]	/* 30 values pushed */
10 5 2 3 3 0 1 76 2 1 2 0 0 41 77 4 1 3 3 39 3 78 18 17 18 18 16 5 8 27 
CALL[ ]	/* CallFunction */";
};
width = 843;
}
);
note = w;
unicode = 119;
},
{
glyphname = x;
layers = (
{
layerId = m01;
shapes = (
{
closed = 1;
nodes = (
(501,0,l),
(310,266,l),
(488,527,l),
(389,527,l),
(259,327,l),
(125,527,l),
(23,527,l),
(202,269,l),
(14,0,l),
(110,0,l),
(254,201,l),
(400,0,l)
);
}
);
userData = {
assembly = "NPUSHB[ ]	/* 28 values pushed */
9 6 3 3 0 1 1 76 2 1 1 1 41 77 3 1 0 0 39 0 78 18 18 18 17 4 8 26 
CALL[ ]	/* CallFunction */";
};
width = 515;
}
);
note = x;
unicode = 120;
},
{
glyphname = z;
layers = (
{
layerId = m01;
shapes = (
{
closed = 1;
nodes = (
(47,527,l),
(47,452,l),
(362,452,l),
(47,72,l),
(47,0,l),
(471,0,l),
(471,74,l),
(153,74,l),
(471,456,l),
(471,527,l)
);
}
);
userData = {
assembly = "NPUSHB[ ]	/* 38 values pushed */
0 1 2 3 5 1 1 0 2 76 0 2 2 3 95 0 3 3 41 77 0 0 0 1 95 0 1 1 39 1 78 17 18 17 17 4 8 26 
CALL[ ]	/* CallFunction */";
};
width = 518;
}
);
note = z;
unicode = 122;
},
{
glyphname = period;
kernLeft = period;
kernRight = period;
layers = (
{
layerId = m01;
shapes = (
{
closed = 1;
nodes = (
(67,78,o),
(67,52,qs),
(67,26,o),
(101,-8,o),
(127,-8,qs),
(153,-8,o),
(187,26,o),
(187,52,qs),
(187,78,o),
(153,112,o),
(127,112,qs),
(101,112,o)
);
}
);
userData = {
assembly = "NPUSHB[ ]	/* 23 values pushed */
2 1 0 0 1 97 0 1 1 47 1 78 1 0 7 5 0 11 1 11 3 8 22 
CALL[ ]	/* CallFunction */";
};
width = 254;
}
);
note = period;
unicode = 46;
},
{
glyphname = comma;
kernLeft = period;
kernRight = period;
layers = (
{
layerId = m01;
shapes = (
{
closed = 1;
nodes = (
(87,-74,o),
(67,-88,q),
(91,-121,l),
(111,-114,o),
(148,-82,o),
(176,-40,o),
(193,11,o),
(193,32,qs),
(193,70,o),
(158,112,o),
(129,112,qs),
(106,112,o),
(71,81,o),
(70,55,qs),
(70,30,o),
(102,0,o),
(128,-2,q),
(122,-26,o)
);
}
);
userData = {
assembly = "NPUSHB[ ]	/* 13 values pushed */
15 14 2 0 73 0 0 0 118 37 1 8 23 
CALL[ ]	/* CallFunction */";
};
width = 261;
}
);
note = comma;
unicode = 44;
},
{
glyphname = A;
kernLeft = A;
kernRight = A;
layers = (
{
layerId = m01;
shapes = (
{
closed = 1;
nodes = (
(398,707,l),
(273,707,l),
(10,0,l),
(104,0,l),
(160,152,l),
(510,152,l),
(566,0,l),
(660,0,l)
);
},
{
closed = 1;
nodes = (
(189,231,l),
(335,631,l),
(481,231,l)
);
}
);
userData = {
assembly = "NPUSHB[ ]	/* 35 values pushed */
0 4 0 0 1 4 0 104 0 2 2 38 77 5 3 2 1 1 39 1 78 0 0 10 9 0 7 0 7 17 17 17 6 8 25 
CALL[ ]	/* CallFunction */";
};
width = 670;
}
);
note = A;
unicode = 65;
},
{
glyphname = breve;
layers = (
{
layerId = m01;
shapes = (
{
closed = 1;
nodes = (
(193,699,o),
(191,734,q),
(113,734,l),
(115,669,o),
(204,601,o),
(283,601,qs),
(362,601,o),
(453,669,o),
(455,734,q),
(377,734,l),
(375,699,o),
(326,667,o),
(284,667,qs),
(242,667,o)
);
}
);
userData = {
assembly = "PUSHB[ ]	/* 2 values pushed */
6 100 
WCVTP[ ]	/* WriteCVTInPixels */
NPUSHB[ ]	/* 39 values pushed */
3 1 1 0 1 133 4 1 0 2 2 0 89 4 1 0 0 2 97 0 2 0 2 81 1 0 11 10 8 6 4 3 0 13 1 13 5 8 22 
CALL[ ]	/* CallFunction */
PUSHB[ ]	/* 2 values pushed */
6 0 
WCVTP[ ]	/* WriteCVTInPixels */";
};
width = 569;
}
);
note = breve;
unicode = 728;
},
{
glyphname = circumflex;
layers = (
{
layerId = m01;
shapes = (
{
closed = 1;
nodes = (
(116,606,l),
(201,606,l),
(279,702,l),
(357,606,l),
(443,606,l),
(309,769,l),
(249,769,l)
);
}
);
userData = {
assembly = "PUSHB[ ]	/* 2 values pushed */
6 100 
WCVTP[ ]	/* WriteCVTInPixels */
NPUSHB[ ]	/* 28 values pushed */
3 1 0 2 1 76 3 1 2 0 2 133 1 1 0 0 118 0 0 0 6 0 6 18 17 4 8 24 
CALL[ ]	/* CallFunction */
PUSHB[ ]	/* 2 values pushed */
6 0 
WCVTP[ ]	/* WriteCVTInPixels */";
};
width = 559;
}
);
note = circumflex;
unicode = 710;
},
{
glyphname = uni0326;
layers = (
{
layerId = m01;
shapes = (
{
closed = 1;
nodes = (
(-340,-287,o),
(-360,-301,q),
(-336,-334,l),
(-316,-327,o),
(-279,-295,o),
(-251,-253,o),
(-234,-206,o),
(-234,-179,qs),
(-232,-148,o),
(-264,-100,o),
(-297,-100,qs),
(-321,-100,o),
(-357,-130,o),
(-357,-158,qs),
(-357,-183,o),
(-325,-213,o),
(-299,-215,q),
(-305,-239,o)
);
}
);
userData = {
assembly = "PUSHB[ ]	/* 2 values pushed */
6 100 
WCVTP[ ]	/* WriteCVTInPixels */
NPUSHB[ ]	/* 13 values pushed */
15 14 2 0 73 0 0 0 118 37 1 8 23 
CALL[ ]	/* CallFunction */
PUSHB[ ]	/* 2 values pushed */
6 0 
WCVTP[ ]	/* WriteCVTInPixels */";
};
width = 0;
}
);
note = uni0326;
unicode = 806;
},
{
glyphname = abreve;
kernLeft = abreve;
layers = (
{
layerId = m01;
shapes = (
{
closed = 1;
nodes = (
(196,698,o),
(196,740,q),
(118,740,l),
(118,667,o),
(207,604,o),
(289,604,qs),
(363,604,o),
(454,669,o),
(454,737,qs),
(454,740,l),
(376,740,l),
(374,698,o),
(327,667,o),
(287,667,qs),
(244,667,o)
);
},
{
closed = 1;
nodes = (
(490,0,l),
(490,285,ls),
(490,341,o),
(470,431,o),
(420,494,o),
(339,533,o),
(280,533,qs),
(246,533,o),
(178,517,o),
(120,484,o),
(78,433,o),
(71,397,q),
(162,397,l),
(174,429,o),
(238,457,o),
(280,457,qs),
(349,455,o),
(407,376,o),
(407,309,q),
(252,309,ls),
(211,309,o),
(138,294,o),
(82,256,o),
(49,195,o),
(49,150,qs),
(49,112,o),
(80,52,o),
(132,13,o),
(199,-6,o),
(236,-6,qs),
(259,-6,o),
(308,0,o),
(355,16,o),
(397,44,o),
(414,67,q),
(419,0,l)
);
},
{
closed = 1;
nodes = (
(407,212,ls),
(406,142,o),
(319,69,o),
(244,69,qs),
(223,69,o),
(183,79,o),
(152,101,o),
(134,133,o),
(134,156,qs),
(134,187,o),
(169,225,o),
(227,237,o),
(290,238,o),
(314,238,qs),
(407,238,l)
);
}
);
userData = {
assembly = "MPPEM[ ]	/* MeasurePixelPerEm */
PUSHB[ ]	/* 1 value pushed */
39 
LT[ ]	/* LessThan */
IF[ ]	/* If */
NPUSHB[ ]	/* 49 values pushed */
12 1 0 0 2 8 0 2 105 3 1 1 0 7 5 1 7 103 0 5 13 1 10 11 5 10 104 0 6 6 8 97 0 8 8 49 77 0 11 11 4 97 9 1 4 4 50 4 78 
ELSE[ ]	/* Else */
NPUSHB[ ]	/* 53 values pushed */
12 1 0 0 2 8 0 2 105 3 1 1 0 7 5 1 7 103 0 5 13 1 10 11 5 10 104 0 6 6 8 97 0 8 8 49 77 0 9 9 39 77 0 11 11 4 97 0 4 4 50 4 78 
EIF[ ]	/* EndIf */
NPUSHB[ ]	/* 35 values pushed */
53 51 1 0 62 60 51 65 53 65 50 49 44 42 38 37 35 33 31 29 21 19 12 11 9 7 4 3 0 14 1 14 14 8 22 
CALL[ ]	/* CallFunction */";
};
width = 555;
}
);
note = abreve;
unicode = 259;
},
{
glyphname = acircumflex;
kernLeft = abreve;
layers = (
{
layerId = m01;
shapes = (
{
closed = 1;
nodes = (
(490,0,l),
(490,285,ls),
(490,341,o),
(470,431,o),
(420,494,o),
(339,533,o),
(280,533,qs),
(246,533,o),
(178,517,o),
(120,484,o),
(78,433,o),
(71,397,q),
(162,397,l),
(174,429,o),
(238,457,o),
(280,457,qs),
(349,455,o),
(407,376,o),
(407,309,q),
(252,309,ls),
(211,309,o),
(138,294,o),
(82,256,o),
(49,195,o),
(49,150,qs),
(49,112,o),
(80,52,o),
(132,13,o),
(199,-6,o),
(236,-6,qs),
(259,-6,o),
(308,0,o),
(355,16,o),
(397,44,o),
(414,67,q),
(419,0,l)
);
},
{
closed = 1;
nodes = (
(407,212,ls),
(406,142,o),
(319,69,o),
(244,69,qs),
(223,69,o),
(183,79,o),
(152,101,o),
(134,133,o),
(134,156,qs),
(134,187,o),
(169,225,o),
(227,237,o),
(290,238,o),
(314,238,qs),
(407,238,l)
);
},
{
closed = 1;
nodes = (
(120,606,l),
(205,606,l),
(283,702,l),
(361,606,l),
(447,606,l),
(313,769,l),
(253,769,l)
);
}
);
userData = {
assembly = "PUSHB[ ]	/* 6 values pushed */
54 1 8 10 1 76 
MPPEM[ ]	/* MeasurePixelPerEm */
PUSHB[ ]	/* 1 value pushed */
39 
LT[ ]	/* LessThan */
IF[ ]	/* If */
NPUSHB[ ]	/* 51 values pushed */
12 1 10 8 10 133 9 1 8 4 8 133 0 3 2 1 2 3 1 128 0 1 11 1 6 7 1 6 103 0 2 2 4 97 0 4 4 49 77 0 7 7 0 97 5 1 0 0 50 0 78 
ELSE[ ]	/* Else */
NPUSHB[ ]	/* 55 values pushed */
12 1 10 8 10 133 9 1 8 4 8 133 0 3 2 1 2 3 1 128 0 1 11 1 6 7 1 6 103 0 2 2 4 97 0 4 4 49 77 0 5 5 39 77 0 7 7 0 97 0 0 0 50 0 78 
EIF[ ]	/* EndIf */
NPUSHB[ ]	/* 27 values pushed */
51 51 38 36 51 57 51 57 56 55 53 52 47 45 36 50 38 50 21 36 18 34 40 36 13 8 28 
CALL[ ]	/* CallFunction */";
};
width = 555;
}
);
note = acircumflex;
unicode = 226;
},
{
glyphname = Abreve;
layers = (
{
layerId = m01;
shapes = (
{
closed = 1;
nodes = (
(273,707,l),
(10,0,l),
(104,0,l),
(160,152,l),
(510,152,l),
(566,0,l),
(660,0,l),
(398,707,l)
);
},
{
closed = 1;
nodes = (
(335,631,l),
(481,231,l),
(189,231,l)
);
},
{
closed = 1;
nodes = (
(246,892,o),
(244,927,q),
(166,927,l),
(168,862,o),
(257,794,o),
(336,794,qs),
(415,794,o),
(506,862,o),
(508,927,q),
(430,927,l),
(428,892,o),
(379,860,o),
(337,860,qs),
(295,860,o)
);
}
);
userData = {
assembly = "NPUSHB[ ]	/* 67 values pushed */
9 1 4 3 1 76 8 1 6 5 6 133 10 1 5 0 7 3 5 7 105 9 1 4 0 1 0 4 1 104 0 3 3 38 77 2 1 0 0 39 0 78 12 11 8 8 22 21 19 17 15 14 11 24 12 24 8 10 8 10 17 17 17 16 11 8 26 
CALL[ ]	/* CallFunction */";
};
width = 670;
}
);
note = Abreve;
unicode = 258;
},
{
glyphname = Acircumflex;
kernLeft = A;
kernRight = A;
layers = (
{
layerId = m01;
shapes = (
{
closed = 1;
nodes = (
(273,707,l),
(10,0,l),
(104,0,l),
(160,152,l),
(510,152,l),
(566,0,l),
(660,0,l),
(398,707,l)
);
},
{
closed = 1;
nodes = (
(335,631,l),
(481,231,l),
(189,231,l)
);
},
{
closed = 1;
nodes = (
(176,786,l),
(261,786,l),
(339,883,l),
(417,786,l),
(503,786,l),
(369,949,l),
(309,949,l)
);
}
);
userData = {
assembly = "NPUSHB[ ]	/* 10 values pushed */
14 1 5 7 9 1 4 3 2 76 
MPPEM[ ]	/* MeasurePixelPerEm */
PUSHB[ ]	/* 1 value pushed */
24 
LT[ ]	/* LessThan */
IF[ ]	/* If */
NPUSHB[ ]	/* 36 values pushed */
6 1 5 7 3 7 5 3 128 8 1 4 0 1 0 4 1 104 9 1 7 7 44 77 0 3 3 38 77 2 1 0 0 39 0 78 
ELSE[ ]	/* Else */
NPUSHB[ ]	/* 33 values pushed */
9 1 7 5 7 133 6 1 5 3 5 133 8 1 4 0 1 0 4 1 104 0 3 3 38 77 2 1 0 0 39 0 78 
EIF[ ]	/* EndIf */
NPUSHB[ ]	/* 23 values pushed */
11 11 8 8 11 17 11 17 16 15 13 12 8 10 8 10 17 17 17 16 10 8 26 
CALL[ ]	/* CallFunction */";
};
width = 670;
}
);
note = Acircumflex;
unicode = 194;
},
{
glyphname = Icircumflex;
layers = (
{
layerId = m01;
shapes = (
{
closed = 1;
nodes = (
(-69,792,l),
(16,792,l),
(103,914,l),
(190,792,l),
(276,792,l),
(133,982,l),
(73,982,l)
);
},
{
closed = 1;
nodes = (
(60,707,l),
(60,0,l),
(147,0,l),
(147,707,l)
);
}
);
userData = {
assembly = "PUSHB[ ]	/* 6 values pushed */
3 1 0 2 1 76 
MPPEM[ ]	/* MeasurePixelPerEm */
PUSHB[ ]	/* 1 value pushed */
41 
LT[ ]	/* LessThan */
IF[ ]	/* If */
NPUSHB[ ]	/* 26 values pushed */
1 1 0 2 4 2 0 4 128 5 1 2 2 44 77 0 4 4 38 77 0 3 3 39 3 78 
ELSE[ ]	/* Else */
NPUSHB[ ]	/* 23 values pushed */
5 1 2 0 2 133 1 1 0 4 0 133 0 4 4 38 77 0 3 3 39 3 78 
EIF[ ]	/* EndIf */
NPUSHB[ ]	/* 15 values pushed */
0 0 10 9 8 7 0 6 0 6 18 17 6 8 24 
CALL[ ]	/* CallFunction */";
};
width = 207;
}
);
note = Icircumflex;
unicode = 206;
},
{
glyphname = exclam;
layers = (
{
layerId = m01;
shapes = (
{
closed = 1;
nodes = (
(184,707,l),
(87,707,l),
(99,220,l),
(172,220,l)
);
},
{
closed = 1;
nodes = (
(77,78,o),
(77,52,qs),
(77,26,o),
(110,-8,o),
(136,-8,qs),
(161,-8,o),
(196,26,o),
(196,52,qs),
(196,78,o),
(161,112,o),
(136,112,qs),
(110,112,o)
);
}
);
userData = {
assembly = "NPUSHB[ ]	/* 41 values pushed */
4 1 1 1 0 95 0 0 0 38 77 5 1 2 2 3 97 0 3 3 47 3 78 5 4 0 0 11 9 4 15 5 15 0 3 0 3 17 6 8 23 
CALL[ ]	/* CallFunction */";
};
width = 273;
}
);
note = exclam;
unicode = 33;
},
{
glyphname = quotedbl;
layers = (
{
layerId = m01;
shapes = (
{
closed = 1;
nodes = (
(59,707,l),
(72,471,l),
(134,471,l),
(147,707,l)
);
},
{
closed = 1;
nodes = (
(212,707,l),
(225,471,l),
(287,471,l),
(300,707,l)
);
}
);
userData = {
assembly = "NPUSHB[ ]	/* 20 values pushed */
2 1 0 0 1 95 3 1 1 1 38 0 78 17 17 17 16 4 8 26 
CALL[ ]	/* CallFunction */";
};
width = 359;
}
);
note = quotedbl;
unicode = 34;
},
{
glyphname = quotesingle;
layers = (
{
layerId = m01;
shapes = (
{
closed = 1;
nodes = (
(67,707,l),
(80,471,l),
(142,471,l),
(155,707,l)
);
}
);
userData = {
assembly = "NPUSHB[ ]	/* 16 values pushed */
0 0 0 1 95 0 1 1 38 0 78 17 16 2 8 24 
CALL[ ]	/* CallFunction */";
};
width = 222;
}
);
note = quotesingle;
unicode = 39;
},
{
glyphname = numbersign;
layers = (
{
layerId = m01;
shapes = (
{
closed = 1;
nodes = (
(88,448,l),
(184,448,l),
(163,259,l),
(59,259,l),
(59,179,l),
(155,179,l),
(135,0,l),
(220,0,l),
(239,179,l),
(376,179,l),
(357,0,l),
(441,0,l),
(460,179,l),
(565,179,l),
(565,259,l),
(469,259,l),
(489,448,l),
(594,448,l),
(594,527,l),
(498,527,l),
(517,707,l),
(433,707,l),
(413,527,l),
(277,527,l),
(296,707,l),
(211,707,l),
(193,527,l),
(88,527,l)
);
},
{
closed = 1;
nodes = (
(405,448,l),
(384,259,l),
(247,259,l),
(268,448,l)
);
}
);
userData = {
assembly = "NPUSHB[ ]	/* 70 values pushed */
14 11 2 5 10 8 2 6 7 5 6 103 2 1 0 0 38 77 15 12 2 4 4 1 95 16 13 3 3 1 1 41 77 9 1 7 7 39 7 78 0 0 31 30 29 28 0 27 0 27 26 25 24 23 22 21 20 19 17 17 17 17 17 17 17 17 17 17 8 31 
CALL[ ]	/* CallFunction */";
};
width = 653;
}
);
note = numbersign;
unicode = 35;
},
{
glyphname = percent;
layers = (
{
layerId = m01;
shapes = (
{
closed = 1;
nodes = (
(294,426,o),
(330,469,o),
(349,526,o),
(349,559,qs),
(349,628,o),
(275,715,o),
(205,715,qs),
(169,715,o),
(115,692,o),
(78,650,o),
(59,593,o),
(59,559,qs),
(59,526,o),
(78,469,o),
(114,426,o),
(169,402,o),
(205,402,qs),
(240,402,o)
);
},
{
closed = 1;
nodes = (
(662,707,l),
(574,707,l),
(139,0,l),
(228,0,l)
);
},
{
closed = 1;
nodes = (
(275,592,o),
(275,559,qs),
(275,525,o),
(243,473,o),
(205,473,qs),
(165,473,o),
(131,524,o),
(131,559,qs),
(131,592,o),
(165,644,o),
(205,644,qs),
(243,644,o)
);
},
{
closed = 1;
nodes = (
(689,18,o),
(726,61,o),
(745,118,o),
(745,151,qs),
(745,185,o),
(726,242,o),
(689,284,o),
(635,307,o),
(601,307,qs),
(565,307,o),
(511,284,o),
(473,242,o),
(454,185,o),
(454,151,qs),
(454,118,o),
(473,61,o),
(510,18,o),
(565,-6,o),
(601,-6,qs),
(635,-6,o)
);
},
{
closed = 1;
nodes = (
(670,184,o),
(670,151,qs),
(670,117,o),
(639,65,o),
(600,65,qs),
(561,65,o),
(527,116,o),
(527,151,qs),
(527,184,o),
(560,236,o),
(600,236,qs),
(639,236,o)
);
}
);
userData = {
assembly = "MPPEM[ ]	/* MeasurePixelPerEm */
PUSHB[ ]	/* 1 value pushed */
29 
LT[ ]	/* LessThan */
IF[ ]	/* If */
NPUSHB[ ]	/* 44 values pushed */
0 5 10 1 0 7 5 0 105 0 7 14 1 8 9 7 8 106 12 1 4 4 1 97 2 1 1 1 46 77 0 9 9 3 97 13 6 11 3 3 3 39 3 78 
ELSE[ ]	/* Else */
MPPEM[ ]	/* MeasurePixelPerEm */
PUSHB[ ]	/* 1 value pushed */
39 
LT[ ]	/* LessThan */
IF[ ]	/* If */
NPUSHB[ ]	/* 48 values pushed */
0 5 10 1 0 7 5 0 105 0 7 14 1 8 9 7 8 106 0 2 2 38 77 12 1 4 4 1 97 0 1 1 46 77 0 9 9 3 97 13 6 11 3 3 3 39 3 78 
ELSE[ ]	/* Else */
NPUSHB[ ]	/* 52 values pushed */
0 5 10 1 0 7 5 0 105 0 7 14 1 8 9 7 8 106 0 2 2 38 77 12 1 4 4 1 97 0 1 1 46 77 11 1 3 3 39 77 0 9 9 6 97 13 1 6 6 50 6 78 
EIF[ ]	/* EndIf */
EIF[ ]	/* EndIf */
NPUSHB[ ]	/* 43 values pushed */
55 54 35 34 23 22 18 18 1 0 61 59 54 65 55 65 45 43 34 53 35 53 29 27 22 33 23 33 18 21 18 21 20 19 11 9 0 17 1 17 15 8 22 
CALL[ ]	/* CallFunction */";
};
width = 804;
}
);
note = percent;
unicode = 37;
},
{
glyphname = asterisk;
layers = (
{
layerId = m01;
shapes = (
{
closed = 1;
nodes = (
(178,633,l),
(86,663,l),
(69,609,l),
(161,579,l),
(104,501,l),
(150,467,l),
(207,545,l),
(264,467,l),
(310,501,l),
(253,579,l),
(345,609,l),
(327,663,l),
(236,633,l),
(236,730,l),
(178,730,l)
);
}
);
userData = {
assembly = "NPUSHB[ ]	/* 16 values pushed */
13 12 11 10 9 8 7 6 5 4 3 2 1 13 0 73 
MPPEM[ ]	/* MeasurePixelPerEm */
PUSHB[ ]	/* 1 value pushed */
22 
LT[ ]	/* LessThan */
IF[ ]	/* If */
PUSHB[ ]	/* 7 values pushed */
1 1 0 0 38 0 78 
ELSE[ ]	/* Else */
PUSHB[ ]	/* 5 values pushed */
1 1 0 0 118 
EIF[ ]	/* EndIf */
NPUSHB[ ]	/* 9 values pushed */
0 0 0 14 0 14 2 8 22 
CALL[ ]	/* CallFunction */";
};
width = 414;
}
);
note = asterisk;
unicode = 42;
},
{
glyphname = plus;
layers = (
{
layerId = m01;
shapes = (
{
closed = 1;
nodes = (
(221,315,l),
(221,160,l),
(299,160,l),
(299,315,l),
(447,315,l),
(447,392,l),
(299,392,l),
(299,547,l),
(221,547,l),
(221,392,l),
(74,392,l),
(74,315,l)
);
}
);
userData = {
assembly = "MPPEM[ ]	/* MeasurePixelPerEm */
PUSHB[ ]	/* 1 value pushed */
26 
LT[ ]	/* LessThan */
IF[ ]	/* If */
NPUSHB[ ]	/* 21 values pushed */
2 1 0 5 1 3 4 0 3 103 0 4 4 1 95 0 1 1 41 4 78 
ELSE[ ]	/* Else */
NPUSHB[ ]	/* 26 values pushed */
0 1 0 4 1 87 2 1 0 5 1 3 4 0 3 103 0 1 1 4 95 0 4 1 4 79 
EIF[ ]	/* EndIf */
NPUSHB[ ]	/* 9 values pushed */
17 17 17 17 17 16 6 8 28 
CALL[ ]	/* CallFunction */";
};
width = 521;
}
);
note = plus;
unicode = 43;
},
{
glyphname = slash;
layers = (
{
layerId = m01;
shapes = (
{
closed = 1;
nodes = (
(129,-168,l),
(438,801,l),
(348,801,l),
(39,-168,l)
);
}
);
userData = {
assembly = "MPPEM[ ]	/* MeasurePixelPerEm */
PUSHB[ ]	/* 1 value pushed */
16 
LT[ ]	/* LessThan */
IF[ ]	/* If */
NPUSHB[ ]	/* 11 values pushed */
0 0 1 0 133 0 1 1 43 1 78 
ELSE[ ]	/* Else */
NPUSHB[ ]	/* 9 values pushed */
0 0 1 0 133 0 1 1 118 
EIF[ ]	/* EndIf */
PUSHB[ ]	/* 5 values pushed */
17 16 2 8 24 
CALL[ ]	/* CallFunction */";
};
width = 477;
}
);
note = slash;
unicode = 47;
},
{
glyphname = colon;
kernLeft = colon;
layers = (
{
layerId = m01;
shapes = (
{
closed = 1;
nodes = (
(67,434,o),
(67,408,qs),
(67,382,o),
(100,348,o),
(126,348,qs),
(151,348,o),
(186,381,o),
(186,408,qs),
(186,434,o),
(153,468,o),
(126,468,qs),
(100,468,o)
);
},
{
closed = 1;
nodes = (
(67,78,o),
(67,52,qs),
(67,26,o),
(100,-8,o),
(126,-8,qs),
(151,-8,o),
(186,26,o),
(186,52,qs),
(186,78,o),
(153,112,o),
(126,112,qs),
(100,112,o)
);
}
);
userData = {
assembly = "NPUSHB[ ]	/* 40 values pushed */
4 1 0 0 1 2 0 1 105 5 1 2 2 3 97 0 3 3 47 3 78 13 12 1 0 19 17 12 23 13 23 7 5 0 11 1 11 6 8 22 
CALL[ ]	/* CallFunction */";
};
width = 253;
}
);
note = colon;
unicode = 58;
},
{
glyphname = semicolon;
kernLeft = colon;
layers = (
{
layerId = m01;
shapes = (
{
closed = 1;
nodes = (
(74,434,o),
(74,408,qs),
(74,382,o),
(107,348,o),
(133,348,qs),
(159,348,o),
(193,381,o),
(193,408,qs),
(193,434,o),
(159,468,o),
(133,468,qs),
(107,468,o)
);
},
{
closed = 1;
nodes = (
(87,-75,o),
(67,-89,q),
(91,-122,l),
(111,-115,o),
(148,-83,o),
(176,-41,o),
(193,6,o),
(193,29,qs),
(194,61,o),
(164,110,o),
(132,112,qs),
(106,113,o),
(70,82,o),
(70,54,qs),
(70,29,o),
(102,-1,o),
(128,-3,q),
(122,-27,o)
);
}
);
userData = {
assembly = "NPUSHB[ ]	/* 41 values pushed */
27 26 2 2 73 0 2 1 2 134 3 1 0 1 1 0 89 3 1 0 0 1 97 0 1 0 1 81 1 0 19 17 7 5 0 11 1 11 4 8 22 
CALL[ ]	/* CallFunction */";
};
width = 261;
}
);
note = semicolon;
unicode = 59;
},
{
glyphname = less;
layers = (
{
layerId = m01;
shapes = (
{
closed = 1;
nodes = (
(377,99,l),
(377,192,l),
(136,351,l),
(377,509,l),
(377,602,l),
(39,372,l),
(39,329,l)
);
}
);
userData = {
assembly = "PUSHB[ ]	/* 4 values pushed */
5 1 1 50 
CALL[ ]	/* CallFunction */";
};
width = 446;
}
);
note = less;
unicode = 60;
},
{
glyphname = equal;
layers = (
{
layerId = m01;
shapes = (
{
closed = 1;
nodes = (
(473,444,l),
(473,522,l),
(69,522,l),
(69,444,l)
);
},
{
closed = 1;
nodes = (
(473,185,l),
(473,263,l),
(69,263,l),
(69,185,l)
);
}
);
userData = {
assembly = "NPUSHB[ ]	/* 25 values pushed */
0 2 0 3 2 3 99 0 1 1 0 95 0 0 0 41 1 78 17 17 17 16 4 8 26 
CALL[ ]	/* CallFunction */";
};
width = 542;
}
);
note = equal;
unicode = 61;
},
{
glyphname = greater;
layers = (
{
layerId = m01;
shapes = (
{
closed = 1;
nodes = (
(69,602,l),
(69,509,l),
(310,351,l),
(69,192,l),
(69,99,l),
(407,329,l),
(407,372,l)
);
}
);
userData = {
assembly = "PUSHB[ ]	/* 4 values pushed */
5 1 1 50 
CALL[ ]	/* CallFunction */";
};
width = 446;
}
);
note = greater;
unicode = 62;
},
{
glyphname = at;
layers = (
{
layerId = m01;
shapes = (
{
closed = 1;
nodes = (
(685,33,o),
(733,33,qs),
(792,33,o),
(863,87,o),
(902,169,o),
(914,263,o),
(914,304,qs),
(914,390,o),
(862,540,o),
(762,651,o),
(616,715,o),
(522,715,qs),
(412,715,o),
(243,642,o),
(129,513,o),
(70,339,o),
(70,232,qs),
(70,144,o),
(125,-8,o),
(231,-121,o),
(384,-186,o),
(482,-186,qs),
(500,-186,o),
(530,-184,o),
(558,-181,o),
(586,-177,o),
(604,-173,q),
(597,-89,l),
(581,-92,o),
(558,-95,o),
(535,-98,o),
(510,-99,o),
(492,-99,qs),
(414,-99,o),
(290,-48,o),
(205,43,o),
(160,167,o),
(160,240,qs),
(160,321,o),
(206,465,o),
(297,572,o),
(432,634,o),
(522,634,qs),
(600,634,o),
(716,581,o),
(794,488,o),
(833,364,o),
(833,294,qs),
(833,272,o),
(826,208,o),
(807,148,o),
(771,105,o),
(738,105,qs),
(713,106,o),
(686,131,o),
(675,170,o),
(675,216,o),
(677,239,qs),
(682,294,o),
(696,405,o),
(705,460,q),
(650,466,l),
(623,414,l),
(606,453,o),
(538,485,o),
(498,486,qs),
(448,486,o),
(371,447,o),
(318,381,o),
(288,294,o),
(288,239,qs),
(288,204,o),
(306,133,o),
(346,76,o),
(411,39,o),
(458,38,qs),
(482,38,o),
(524,45,o),
(564,64,o),
(600,95,o),
(615,119,q),
(625,81,o)
);
},
{
closed = 1;
nodes = (
(389,341,o),
(419,383,o),
(465,410,o),
(497,410,qs),
(531,410,o),
(573,381,o),
(596,341,o),
(604,298,o),
(604,278,o),
(604,268,o),
(600,235,o),
(581,182,o),
(550,138,o),
(506,110,o),
(473,110,qs),
(440,111,o),
(399,140,o),
(377,180,o),
(370,224,o),
(370,241,qs),
(370,275,o)
);
}
);
userData = {
assembly = "MPPEM[ ]	/* MeasurePixelPerEm */
PUSHB[ ]	/* 1 value pushed */
46 
LT[ ]	/* LessThan */
IF[ ]	/* If */
NPUSHB[ ]	/* 16 values pushed */
20 19 18 3 9 1 53 1 4 0 54 1 5 4 3 76 
ELSE[ ]	/* Else */
NPUSHB[ ]	/* 16 values pushed */
20 19 18 3 9 1 53 1 4 7 54 1 5 4 3 76 
EIF[ ]	/* EndIf */
MPPEM[ ]	/* MeasurePixelPerEm */
PUSHB[ ]	/* 1 value pushed */
16 
LT[ ]	/* LessThan */
IF[ ]	/* If */
NPUSHB[ ]	/* 39 values pushed */
0 1 0 9 2 1 9 105 8 1 2 7 1 0 4 2 0 105 0 3 3 6 97 0 6 6 46 77 0 4 4 5 97 0 5 5 43 5 78 
ELSE[ ]	/* Else */
MPPEM[ ]	/* MeasurePixelPerEm */
PUSHB[ ]	/* 1 value pushed */
46 
LT[ ]	/* LessThan */
IF[ ]	/* If */
NPUSHB[ ]	/* 36 values pushed */
0 1 0 9 2 1 9 105 8 1 2 7 1 0 4 2 0 105 0 4 0 5 4 5 101 0 3 3 6 97 0 6 6 46 3 78 
ELSE[ ]	/* Else */
NPUSHB[ ]	/* 42 values pushed */
0 1 0 9 8 1 9 105 0 8 0 0 7 8 0 105 0 2 0 7 4 2 7 105 0 4 0 5 4 5 101 0 3 3 6 97 0 6 6 46 3 78 
EIF[ ]	/* EndIf */
EIF[ ]	/* EndIf */
NPUSHB[ ]	/* 14 values pushed */
99 97 38 40 40 55 56 40 43 40 36 10 8 31 
CALL[ ]	/* CallFunction */";
};
width = 983;
}
);
note = at;
unicode = 64;
},
{
glyphname = bracketleft;
layers = (
{
layerId = m01;
shapes = (
{
closed = 1;
nodes = (
(286,-114,l),
(170,-114,l),
(170,719,l),
(286,719,l),
(286,791,l),
(87,791,l),
(87,-186,l),
(286,-186,l)
);
}
);
userData = {
assembly = "MPPEM[ ]	/* MeasurePixelPerEm */
PUSHB[ ]	/* 1 value pushed */
16 
LT[ ]	/* LessThan */
IF[ ]	/* If */
NPUSHB[ ]	/* 20 values pushed */
0 0 0 1 2 0 1 103 0 2 2 3 95 4 1 3 3 43 3 78 
ELSE[ ]	/* Else */
NPUSHB[ ]	/* 25 values pushed */
0 0 0 1 2 0 1 103 0 2 3 3 2 87 0 2 2 3 95 4 1 3 2 3 79 
EIF[ ]	/* EndIf */
NPUSHB[ ]	/* 12 values pushed */
0 0 0 7 0 7 17 17 17 5 8 25 
CALL[ ]	/* CallFunction */";
};
width = 321;
}
);
note = bracketleft;
unicode = 91;
},
{
glyphname = bracketright;
layers = (
{
layerId = m01;
shapes = (
{
closed = 1;
nodes = (
(35,719,l),
(151,719,l),
(151,-114,l),
(35,-114,l),
(35,-186,l),
(234,-186,l),
(234,791,l),
(35,791,l)
);
}
);
userData = {
assembly = "MPPEM[ ]	/* MeasurePixelPerEm */
PUSHB[ ]	/* 1 value pushed */
16 
LT[ ]	/* LessThan */
IF[ ]	/* If */
NPUSHB[ ]	/* 20 values pushed */
4 1 3 0 2 1 3 2 103 0 1 1 0 95 0 0 0 43 0 78 
ELSE[ ]	/* Else */
NPUSHB[ ]	/* 25 values pushed */
4 1 3 0 2 1 3 2 103 0 1 0 0 1 87 0 1 1 0 95 0 0 1 0 79 
EIF[ ]	/* EndIf */
NPUSHB[ ]	/* 12 values pushed */
0 0 0 7 0 7 17 17 17 5 8 25 
CALL[ ]	/* CallFunction */";
};
width = 321;
}
);
note = bracketright;
unicode = 93;
},
{
glyphname = backslash;
layers = (
{
layerId = m01;
shapes = (
{
closed = 1;
nodes = (
(129,801,l),
(39,801,l),
(348,-168,l),
(438,-168,l)
);
}
);
userData = {
assembly = "MPPEM[ ]	/* MeasurePixelPerEm */
PUSHB[ ]	/* 1 value pushed */
16 
LT[ ]	/* LessThan */
IF[ ]	/* If */
NPUSHB[ ]	/* 12 values pushed */
0 0 1 0 133 2 1 1 1 43 1 78 
ELSE[ ]	/* Else */
NPUSHB[ ]	/* 10 values pushed */
0 0 1 0 133 2 1 1 1 118 
EIF[ ]	/* EndIf */
NPUSHB[ ]	/* 10 values pushed */
0 0 0 3 0 3 17 3 8 23 
CALL[ ]	/* CallFunction */";
};
width = 477;
}
);
note = backslash;
unicode = 92;
},
{
glyphname = asciicircum;
layers = (
{
layerId = m01;
shapes = (
{
closed = 1;
nodes = (
(59,512,l),
(144,512,l),
(231,643,l),
(318,512,l),
(404,512,l),
(261,715,l),
(201,715,l)
);
}
);
userData = {
assembly = "PUSHB[ ]	/* 2 values pushed */
6 100 
WCVTP[ ]	/* WriteCVTInPixels */
NPUSHB[ ]	/* 28 values pushed */
3 1 0 2 1 76 3 1 2 0 2 133 1 1 0 0 118 0 0 0 6 0 6 18 17 4 8 24 
CALL[ ]	/* CallFunction */
PUSHB[ ]	/* 2 values pushed */
6 0 
WCVTP[ ]	/* WriteCVTInPixels */";
};
width = 463;
}
);
note = asciicircum;
unicode = 94;
},
{
glyphname = underscore;
layers = (
{
layerId = m01;
shapes = (
{
closed = 1;
nodes = (
(466,-174,l),
(466,-97,l),
(-3,-97,l),
(-3,-174,l)
);
}
);
userData = {
assembly = "PUSHB[ ]	/* 2 values pushed */
6 100 
WCVTP[ ]	/* WriteCVTInPixels */
NPUSHB[ ]	/* 21 values pushed */
0 0 1 1 0 87 0 0 0 1 95 0 1 0 1 79 17 16 2 8 24 
CALL[ ]	/* CallFunction */
PUSHB[ ]	/* 2 values pushed */
6 0 
WCVTP[ ]	/* WriteCVTInPixels */";
};
width = 463;
}
);
note = underscore;
unicode = 95;
},
{
glyphname = braceleft;
layers = (
{
layerId = m01;
shapes = (
{
closed = 1;
nodes = (
(218,660,o),
(219,688,o),
(226,708,o),
(244,719,o),
(261,719,qs),
(330,719,l),
(330,791,l),
(252,791,ls),
(225,791,o),
(182,781,o),
(152,756,o),
(135,715,o),
(135,684,qs),
(135,465,ls),
(135,438,o),
(128,391,o),
(107,356,o),
(68,335,o),
(37,335,q),
(37,270,l),
(68,270,o),
(107,249,o),
(128,213,o),
(135,166,o),
(135,140,qs),
(135,-79,ls),
(135,-110,o),
(152,-151,o),
(182,-176,o),
(225,-186,o),
(252,-186,qs),
(330,-186,l),
(330,-114,l),
(261,-114,ls),
(244,-114,o),
(226,-103,o),
(219,-83,o),
(218,-55,o),
(218,-38,qs),
(218,168,ls),
(218,214,o),
(190,284,o),
(150,302,q),
(190,321,o),
(218,389,o),
(218,437,qs),
(218,643,ls)
);
}
);
userData = {
assembly = "PUSHB[ ]	/* 6 values pushed */
3 1 2 3 1 76 
MPPEM[ ]	/* MeasurePixelPerEm */
PUSHB[ ]	/* 1 value pushed */
16 
LT[ ]	/* LessThan */
IF[ ]	/* If */
NPUSHB[ ]	/* 27 values pushed */
0 4 0 5 3 4 5 105 0 3 0 2 0 3 2 105 0 0 0 1 95 0 1 1 43 1 78 
ELSE[ ]	/* Else */
NPUSHB[ ]	/* 32 values pushed */
0 4 0 5 3 4 5 105 0 3 0 2 0 3 2 105 0 0 1 1 0 89 0 0 0 1 95 0 1 0 1 79 
EIF[ ]	/* EndIf */
NPUSHB[ ]	/* 9 values pushed */
33 41 17 25 33 43 6 8 28 
CALL[ ]	/* CallFunction */";
};
width = 389;
}
);
note = braceleft;
unicode = 123;
},
{
glyphname = bar;
layers = (
{
layerId = m01;
shapes = (
{
closed = 1;
nodes = (
(174,801,l),
(87,801,l),
(87,-168,l),
(174,-168,l)
);
}
);
userData = {
assembly = "MPPEM[ ]	/* MeasurePixelPerEm */
PUSHB[ ]	/* 1 value pushed */
16 
LT[ ]	/* LessThan */
IF[ ]	/* If */
NPUSHB[ ]	/* 12 values pushed */
0 0 1 0 133 2 1 1 1 43 1 78 
ELSE[ ]	/* Else */
NPUSHB[ ]	/* 10 values pushed */
0 0 1 0 133 2 1 1 1 118 
EIF[ ]	/* EndIf */
NPUSHB[ ]	/* 10 values pushed */
0 0 0 3 0 3 17 3 8 23 
CALL[ ]	/* CallFunction */";
};
width = 261;
}
);
note = bar;
unicode = 124;
},
{
glyphname = braceright;
layers = (
{
layerId = m01;
shapes = (
{
closed = 1;
nodes = (
(171,389,o),
(199,321,o),
(238,302,q),
(199,284,o),
(171,214,o),
(171,168,qs),
(171,-38,ls),
(171,-55,o),
(170,-83,o),
(163,-103,o),
(145,-114,o),
(128,-114,qs),
(59,-114,l),
(59,-186,l),
(137,-186,ls),
(164,-186,o),
(207,-176,o),
(237,-151,o),
(254,-110,o),
(254,-79,qs),
(254,140,ls),
(254,166,o),
(261,213,o),
(282,249,o),
(320,270,o),
(352,270,q),
(352,335,l),
(320,335,o),
(282,356,o),
(261,391,o),
(254,438,o),
(254,465,qs),
(254,684,ls),
(254,715,o),
(237,756,o),
(207,781,o),
(164,791,o),
(137,791,qs),
(59,791,l),
(59,719,l),
(128,719,ls),
(145,719,o),
(163,708,o),
(170,688,o),
(171,660,o),
(171,643,qs),
(171,437,ls)
);
}
);
userData = {
assembly = "PUSHB[ ]	/* 6 values pushed */
43 1 3 2 1 76 
MPPEM[ ]	/* MeasurePixelPerEm */
PUSHB[ ]	/* 1 value pushed */
16 
LT[ ]	/* LessThan */
IF[ ]	/* If */
NPUSHB[ ]	/* 27 values pushed */
0 1 0 0 2 1 0 105 0 2 0 3 5 2 3 105 0 5 5 4 95 0 4 4 43 4 78 
ELSE[ ]	/* Else */
NPUSHB[ ]	/* 32 values pushed */
0 1 0 0 2 1 0 105 0 2 0 3 5 2 3 105 0 5 4 4 5 89 0 5 5 4 95 0 4 5 4 79 
EIF[ ]	/* EndIf */
NPUSHB[ ]	/* 9 values pushed */
33 41 17 25 33 36 6 8 28 
CALL[ ]	/* CallFunction */";
};
width = 389;
}
);
note = braceright;
unicode = 125;
},
{
glyphname = Euro;
layers = (
{
layerId = m01;
shapes = (
{
closed = 1;
nodes = (
(630,65,q),
(588,121,l),
(554,90,o),
(486,69,o),
(440,69,qs),
(359,69,o),
(258,156,o),
(241,225,q),
(470,225,l),
(483,303,l),
(229,303,l),
(227,313,o),
(225,335,o),
(225,347,qs),
(225,350,o),
(226,382,o),
(229,405,q),
(501,405,l),
(514,483,l),
(242,483,l),
(249,512,o),
(277,567,o),
(324,610,o),
(390,635,o),
(431,636,qs),
(477,636,o),
(547,611,o),
(579,583,q),
(623,646,l),
(585,683,o),
(492,715,o),
(432,715,qs),
(318,715,o),
(182,592,o),
(156,483,q),
(62,483,l),
(49,405,l),
(146,405,l),
(144,378,o),
(143,349,o),
(143,344,qs),
(143,334,o),
(144,314,o),
(145,303,q),
(62,303,l),
(49,225,l),
(151,225,l),
(177,113,o),
(320,-8,o),
(435,-8,qs),
(557,-8,o)
);
}
);
userData = {
assembly = "NPUSHB[ ]	/* 91 values pushed */
21 1 6 5 22 1 4 6 48 1 11 1 49 1 0 11 4 76 7 1 4 8 1 3 2 4 3 103 9 1 2 10 1 1 11 2 1 103 0 6 6 5 97 0 5 5 46 77 0 11 11 0 97 12 1 0 0 47 0 78 1 0 46 44 42 41 40 39 33 32 31 30 26 24 19 17 15 14 13 12 6 5 4 3 0 50 1 50 13 8 22 
CALL[ ]	/* CallFunction */";
};
width = 679;
}
);
note = Euro;
unicode = 8364;
},
{
glyphname = quotedblbase;
kernLeft = period;
kernRight = period;
layers = (
{
layerId = m01;
shapes = (
{
closed = 1;
nodes = (
(87,-75,o),
(67,-89,q),
(91,-122,l),
(111,-115,o),
(148,-83,o),
(176,-41,o),
(193,6,o),
(193,33,qs),
(193,62,o),
(163,111,o),
(132,112,qs),
(105,112,o),
(70,82,o),
(70,54,qs),
(70,29,o),
(102,-1,o),
(128,-3,q),
(122,-27,o)
);
},
{
closed = 1;
nodes = (
(276,-75,o),
(256,-89,q),
(280,-122,l),
(300,-115,o),
(337,-83,o),
(365,-41,o),
(382,6,o),
(382,33,qs),
(382,62,o),
(352,111,o),
(321,112,qs),
(294,112,o),
(259,82,o),
(259,54,qs),
(259,29,o),
(291,-1,o),
(317,-3,q),
(311,-27,o)
);
}
);
userData = {
assembly = "NPUSHB[ ]	/* 18 values pushed */
33 32 15 14 4 0 73 1 1 0 0 118 25 23 37 2 8 23 
CALL[ ]	/* CallFunction */";
};
width = 450;
}
);
note = quotedblbase;
unicode = 8222;
},
{
glyphname = quotesinglbase;
layers = (
{
layerId = m01;
shapes = (
{
closed = 1;
nodes = (
(87,-75,o),
(67,-89,q),
(91,-122,l),
(111,-115,o),
(148,-83,o),
(176,-41,o),
(193,6,o),
(193,36,qs),
(193,63,o),
(164,110,o),
(132,112,qs),
(105,112,o),
(70,82,o),
(70,54,qs),
(70,29,o),
(102,-1,o),
(128,-3,q),
(122,-27,o)
);
}
);
userData = {
assembly = "NPUSHB[ ]	/* 13 values pushed */
15 14 2 0 73 0 0 0 118 37 1 8 23 
CALL[ ]	/* CallFunction */";
};
width = 261;
}
);
note = quotesinglbase;
unicode = 8218;
},
{
glyphname = quotedblright;
layers = (
{
layerId = m01;
shapes = (
{
closed = 1;
nodes = (
(87,545,o),
(67,531,q),
(91,498,l),
(111,505,o),
(148,537,o),
(176,579,o),
(193,626,o),
(193,653,qs),
(193,682,o),
(166,730,o),
(133,732,qs),
(106,732,o),
(70,702,o),
(70,674,qs),
(70,649,o),
(102,619,o),
(128,617,q),
(122,593,o)
);
},
{
closed = 1;
nodes = (
(276,545,o),
(256,531,q),
(280,498,l),
(300,505,o),
(337,537,o),
(365,579,o),
(382,626,o),
(382,653,qs),
(382,682,o),
(355,730,o),
(322,732,qs),
(295,732,o),
(259,702,o),
(259,674,qs),
(259,649,o),
(291,619,o),
(317,617,q),
(311,593,o)
);
}
);
userData = {
assembly = "PUSHB[ ]	/* 7 values pushed */
33 32 15 14 4 0 73 
MPPEM[ ]	/* MeasurePixelPerEm */
PUSHB[ ]	/* 1 value pushed */
44 
LT[ ]	/* LessThan */
IF[ ]	/* If */
PUSHB[ ]	/* 7 values pushed */
1 1 0 0 48 0 78 
ELSE[ ]	/* Else */
PUSHB[ ]	/* 5 values pushed */
1 1 0 0 118 
EIF[ ]	/* EndIf */
PUSHB[ ]	/* 6 values pushed */
25 23 37 2 8 23 
CALL[ ]	/* CallFunction */";
};
width = 450;
}
);
note = quotedblright;
unicode = 8221;
},
{
glyphname = quoteright;
layers = (
{
layerId = m01;
shapes = (
{
closed = 1;
nodes = (
(87,545,o),
(67,531,q),
(91,498,l),
(111,505,o),
(148,537,o),
(176,579,o),
(193,626,o),
(193,653,qs),
(193,682,o),
(180,706,qs),
(163,732,o),
(132,732,qs),
(105,732,o),
(70,702,o),
(70,674,qs),
(70,649,o),
(102,619,o),
(128,617,q),
(122,593,o)
);
}
);
userData = {
assembly = "PUSHB[ ]	/* 5 values pushed */
16 15 2 0 73 
MPPEM[ ]	/* MeasurePixelPerEm */
PUSHB[ ]	/* 1 value pushed */
41 
LT[ ]	/* LessThan */
IF[ ]	/* If */
PUSHB[ ]	/* 6 values pushed */
0 0 0 48 0 78 
ELSE[ ]	/* Else */
PUSHB[ ]	/* 4 values pushed */
0 0 0 118 
EIF[ ]	/* EndIf */
PUSHB[ ]	/* 4 values pushed */
37 1 8 23 
CALL[ ]	/* CallFunction */";
};
width = 261;
}
);
note = quoteright;
unicode = 8217;
},
{
glyphname = quotedblleft;
layers = (
{
layerId = m01;
shapes = (
{
closed = 1;
nodes = (
(363,698,o),
(383,712,q),
(359,745,l),
(339,738,o),
(302,706,o),
(274,664,o),
(257,616,o),
(257,588,qs),
(257,559,o),
(287,513,o),
(321,511,qs),
(346,511,o),
(380,541,o),
(380,569,qs),
(380,594,o),
(348,624,o),
(322,626,q),
(328,650,o)
);
},
{
closed = 1;
nodes = (
(174,698,o),
(194,712,q),
(170,745,l),
(150,738,o),
(113,706,o),
(85,664,o),
(68,616,o),
(68,588,qs),
(68,559,o),
(98,512,o),
(133,511,qs),
(156,511,o),
(191,541,o),
(191,569,qs),
(191,594,o),
(159,624,o),
(133,626,q),
(139,650,o)
);
}
);
userData = {
assembly = "NPUSHB[ ]	/* 18 values pushed */
33 32 15 14 4 0 74 1 1 0 0 118 25 23 37 2 8 23 
CALL[ ]	/* CallFunction */";
};
width = 450;
}
);
note = quotedblleft;
unicode = 8220;
},
{
glyphname = quoteleft;
layers = (
{
layerId = m01;
shapes = (
{
closed = 1;
nodes = (
(174,698,o),
(194,712,q),
(170,745,l),
(150,738,o),
(113,706,o),
(85,664,o),
(68,616,o),
(68,590,qs),
(68,561,o),
(81,539,qs),
(98,512,o),
(133,511,qs),
(155,511,o),
(191,541,o),
(191,569,qs),
(191,594,o),
(159,624,o),
(133,626,q),
(139,650,o)
);
}
);
userData = {
assembly = "NPUSHB[ ]	/* 13 values pushed */
16 15 2 0 74 0 0 0 118 37 1 8 23 
CALL[ ]	/* CallFunction */";
};
width = 261;
}
);
note = quoteleft;
unicode = 8216;
},
{
glyphname = minus;
layers = (
{
layerId = m01;
shapes = (
{
closed = 1;
nodes = (
(430,315,l),
(430,392,l),
(74,392,l),
(74,315,l)
);
}
);
userData = {
assembly = "NPUSHB[ ]	/* 21 values pushed */
0 0 1 1 0 87 0 0 0 1 95 0 1 0 1 79 17 16 2 6 24 
CALL[ ]	/* CallFunction */";
};
width = 504;
}
);
note = minus;
unicode = 8722;
},
{
glyphname = hyphen;
layers = (
{
layerId = m01;
shapes = (
{
closed = 1;
nodes = (
(384,243,l),
(384,321,l),
(74,321,l),
(74,243,l)
);
}
);
userData = {
assembly = "NPUSHB[ ]	/* 21 values pushed */
0 0 1 1 0 87 0 0 0 1 95 0 1 0 1 79 17 16 2 8 24 
CALL[ ]	/* CallFunction */";
};
width = 458;
}
);
note = hyphen;
unicode = 45;
},
{
glyphname = endash;
layers = (
{
layerId = m01;
shapes = (
{
closed = 1;
nodes = (
(504,243,l),
(504,321,l),
(74,321,l),
(74,243,l)
);
}
);
userData = {
assembly = "NPUSHB[ ]	/* 21 values pushed */
0 0 1 1 0 87 0 0 0 1 95 0 1 0 1 79 17 16 2 8 24 
CALL[ ]	/* CallFunction */";
};
width = 578;
}
);
note = endash;
unicode = 8211;
},
{
glyphname = emdash;
layers = (
{
layerId = m01;
shapes = (
{
closed = 1;
nodes = (
(685,243,l),
(685,321,l),
(74,321,l),
(74,243,l)
);
}
);
userData = {
assembly = "NPUSHB[ ]	/* 21 values pushed */
0 0 1 1 0 87 0 0 0 1 95 0 1 0 1 79 17 16 2 8 24 
CALL[ ]	/* CallFunction */";
};
width = 759;
}
);
note = emdash;
unicode = 8212;
},
{
glyphname = grave;
layers = (
{
layerId = m01;
shapes = (
{
closed = 1;
nodes = (
(141,769,l),
(49,769,l),
(149,628,l),
(226,628,l)
);
}
);
userData = {
assembly = "PUSHB[ ]	/* 2 values pushed */
6 100 
WCVTP[ ]	/* WriteCVTInPixels */
NPUSHB[ ]	/* 20 values pushed */
0 0 1 0 133 2 1 1 1 118 0 0 0 3 0 3 17 3 8 23 
CALL[ ]	/* CallFunction */
PUSHB[ ]	/* 2 values pushed */
6 0 
WCVTP[ ]	/* WriteCVTInPixels */";
};
width = 335;
}
);
note = grave;
unicode = 96;
},
{
glyphname = acute;
layers = (
{
layerId = m01;
shapes = (
{
closed = 1;
nodes = (
(186,628,l),
(286,769,l),
(194,769,l),
(109,628,l)
);
}
);
userData = {
assembly = "PUSHB[ ]	/* 2 values pushed */
6 100 
WCVTP[ ]	/* WriteCVTInPixels */
NPUSHB[ ]	/* 14 values pushed */
0 0 1 0 133 0 1 1 118 17 16 2 8 24 
CALL[ ]	/* CallFunction */
PUSHB[ ]	/* 2 values pushed */
6 0 
WCVTP[ ]	/* WriteCVTInPixels */";
};
width = 335;
}
);
note = acute;
unicode = 180;
},
{
glyphname = guillemotright;
layers = (
{
layerId = m01;
shapes = (
{
closed = 1;
nodes = (
(233,90,l),
(324,90,l),
(437,264,l),
(324,438,l),
(233,438,l),
(351,264,l)
);
},
{
closed = 1;
nodes = (
(59,90,l),
(149,90,l),
(262,264,l),
(149,438,l),
(59,438,l),
(174,264,l)
);
}
);
userData = {
assembly = "NPUSHB[ ]	/* 35 values pushed */
11 8 5 2 4 1 0 1 76 2 1 0 1 1 0 87 2 1 0 0 1 95 3 1 1 0 1 79 18 18 18 16 4 8 26 
CALL[ ]	/* CallFunction */";
};
width = 476;
}
);
note = guillemotright;
unicode = 187;
},
{
glyphname = guilsinglright;
layers = (
{
layerId = m01;
shapes = (
{
closed = 1;
nodes = (
(59,90,l),
(149,90,l),
(262,264,l),
(149,438,l),
(59,438,l),
(174,264,l)
);
}
);
userData = {
assembly = "NPUSHB[ ]	/* 28 values pushed */
5 2 2 1 0 1 76 0 0 1 1 0 87 0 0 0 1 95 0 1 0 1 79 18 16 2 8 24 
CALL[ ]	/* CallFunction */";
};
width = 301;
}
);
note = guilsinglright;
unicode = 8250;
},
{
glyphname = guillemotleft;
layers = (
{
layerId = m01;
shapes = (
{
closed = 1;
nodes = (
(243,438,l),
(152,438,l),
(39,264,l),
(152,90,l),
(243,90,l),
(125,264,l)
);
},
{
closed = 1;
nodes = (
(417,438,l),
(327,438,l),
(214,264,l),
(327,90,l),
(417,90,l),
(302,264,l)
);
}
);
userData = {
assembly = "NPUSHB[ ]	/* 35 values pushed */
11 8 5 2 4 0 1 1 76 3 1 1 0 0 1 87 3 1 1 1 0 95 2 1 0 1 0 79 18 18 18 16 4 8 26 
CALL[ ]	/* CallFunction */";
};
width = 476;
}
);
note = guillemotleft;
unicode = 171;
},
{
glyphname = guilsinglleft;
layers = (
{
layerId = m01;
shapes = (
{
closed = 1;
nodes = (
(242,438,l),
(152,438,l),
(39,264,l),
(152,90,l),
(242,90,l),
(127,264,l)
);
}
);
userData = {
assembly = "NPUSHB[ ]	/* 28 values pushed */
5 2 2 0 1 1 76 0 1 0 0 1 87 0 1 1 0 95 0 0 1 0 79 18 16 2 8 24 
CALL[ ]	/* CallFunction */";
};
width = 301;
}
);
note = guilsinglleft;
unicode = 8249;
},
{
glyphname = uni00AD;
layers = (
{
layerId = m01;
shapes = (
{
closed = 1;
nodes = (
(379,243,l),
(379,321,l),
(74,321,l),
(74,243,l)
);
}
);
userData = {
assembly = "NPUSHB[ ]	/* 21 values pushed */
0 0 1 1 0 87 0 0 0 1 95 0 1 0 1 79 17 16 2 8 24 
CALL[ ]	/* CallFunction */";
};
width = 453;
}
);
note = uni00AD;
unicode = 173;
},
{
glyphname = ellipsis;
layers = (
{
layerId = m01;
shapes = (
{
closed = 1;
nodes = (
(57,78,o),
(57,52,qs),
(57,26,o),
(90,-8,o),
(116,-8,qs),
(141,-8,o),
(176,26,o),
(176,52,qs),
(176,78,o),
(141,112,o),
(116,112,qs),
(90,112,o)
);
},
{
closed = 1;
nodes = (
(291,78,o),
(291,52,qs),
(291,26,o),
(324,-8,o),
(350,-8,qs),
(375,-8,o),
(410,26,o),
(410,52,qs),
(410,78,o),
(375,112,o),
(350,112,qs),
(324,112,o)
);
},
{
closed = 1;
nodes = (
(521,78,o),
(521,52,qs),
(521,26,o),
(554,-8,o),
(580,-8,qs),
(605,-8,o),
(640,26,o),
(640,52,qs),
(640,78,o),
(605,112,o),
(580,112,qs),
(554,112,o)
);
}
);
userData = {
assembly = "NPUSHB[ ]	/* 45 values pushed */
8 4 7 2 6 5 0 0 1 97 5 3 2 1 1 47 1 78 25 24 13 12 1 0 31 29 24 35 25 35 19 17 12 23 13 23 7 5 0 11 1 11 9 8 22 
CALL[ ]	/* CallFunction */";
};
width = 697;
}
);
note = ellipsis;
unicode = 8230;
},
{
glyphname = uni0445;
layers = (
{
layerId = m01;
shapes = (
{
closed = 1;
nodes = (
(501,0,l),
(310,266,l),
(488,527,l),
(389,527,l),
(259,327,l),
(125,527,l),
(23,527,l),
(202,269,l),
(14,0,l),
(110,0,l),
(254,201,l),
(400,0,l)
);
}
);
userData = {
assembly = "NPUSHB[ ]	/* 28 values pushed */
9 6 3 3 0 1 1 76 2 1 1 1 22 77 3 1 0 0 21 0 78 18 18 18 17 4 7 26 
CALL[ ]	/* CallFunction */";
};
width = 515;
}
);
note = uni0445;
unicode = 1093;
},
{
glyphname = uni0431;
layers = (
{
layerId = m01;
shapes = (
{
closed = 1;
nodes = (
(149,521,o),
(168,549,qs),
(184,572,o),
(227,600,o),
(261,605,qs),
(307,612,o),
(352,617,o),
(395,622,o),
(415,625,qs),
(443,628,o),
(487,635,o),
(502,640,q),
(502,718,l),
(480,714,o),
(435,707,o),
(416,705,qs),
(394,702,o),
(275,685,o),
(258,682,qs),
(204,673,o),
(121,627,o),
(94,579,qs),
(77,550,o),
(58,475,o),
(54,435,qs),
(50,396,o),
(49,299,o),
(51,283,q),
(52,230,o),
(78,120,o),
(133,41,o),
(223,-6,o),
(289,-6,qs),
(347,-6,o),
(436,33,o),
(497,101,o),
(529,194,o),
(529,248,qs),
(529,302,o),
(499,390,o),
(442,453,o),
(359,487,o),
(305,487,qs),
(282,487,o),
(233,478,o),
(186,458,o),
(146,429,o),
(131,408,q),
(132,442,o)
);
},
{
closed = 1;
nodes = (
(196,97,o),
(158,145,o),
(139,208,o),
(139,243,qs),
(140,276,o),
(160,337,o),
(200,384,o),
(256,410,o),
(292,411,qs),
(331,411,o),
(385,386,o),
(423,341,o),
(444,280,o),
(444,245,qs),
(444,209,o),
(424,145,o),
(385,97,o),
(328,69,o),
(291,69,qs),
(253,69,o)
);
}
);
userData = {
assembly = "NPUSHB[ ]	/* 45 values pushed */
20 0 2 2 3 1 76 36 35 2 0 74 0 0 0 3 2 0 3 105 4 1 2 2 1 97 0 1 1 30 1 78 50 49 60 58 49 68 50 68 40 36 5 7 24 
CALL[ ]	/* CallFunction */";
};
width = 576;
}
);
note = uni0431;
unicode = 1073;
},
{
glyphname = uni0432;
kernLeft = uni0432;
layers = (
{
layerId = m01;
shapes = (
{
closed = 1;
nodes = (
(313,0,ls),
(356,0,o),
(424,22,o),
(471,61,o),
(497,114,o),
(498,156,qs),
(498,201,o),
(450,271,o),
(396,283,q),
(467,317,o),
(467,396,qs),
(467,430,o),
(442,480,o),
(420,495,qs),
(395,513,o),
(322,527,o),
(271,527,qs),
(67,527,l),
(67,0,l)
);
},
{
closed = 1;
nodes = (
(281,452,o),
(323,450,o),
(359,437,o),
(384,410,o),
(384,381,qs),
(383,356,o),
(349,320,o),
(324,312,qs),
(304,305,o),
(252,302,o),
(227,302,qs),
(154,302,l),
(154,452,l),
(263,452,ls)
);
},
{
closed = 1;
nodes = (
(263,231,ls),
(290,231,o),
(340,229,o),
(360,223,qs),
(384,215,o),
(412,180,o),
(412,150,qs),
(411,127,o),
(391,97,o),
(359,80,o),
(316,74,o),
(293,74,qs),
(154,74,l),
(154,230,l)
);
}
);
userData = {
assembly = "NPUSHB[ ]	/* 52 values pushed */
9 1 5 2 1 76 0 2 0 5 4 2 5 103 6 1 3 3 0 95 0 0 0 22 77 0 4 4 1 95 0 1 1 21 1 78 19 19 46 43 35 33 19 32 19 30 50 46 32 7 7 25 
CALL[ ]	/* CallFunction */";
};
width = 547;
}
);
note = uni0432;
unicode = 1074;
},
{
glyphname = uni0433;
kernLeft = uni0432;
kernRight = uni0433;
layers = (
{
layerId = m01;
shapes = (
{
closed = 1;
nodes = (
(152,452,l),
(431,452,l),
(431,527,l),
(67,527,l),
(67,0,l),
(152,0,l)
);
}
);
userData = {
assembly = "NPUSHB[ ]	/* 28 values pushed */
0 1 1 0 95 0 0 0 22 77 3 1 2 2 21 2 78 0 0 0 5 0 5 17 17 4 7 24 
CALL[ ]	/* CallFunction */";
};
width = 454;
}
);
note = uni0433;
unicode = 1075;
},
{
glyphname = uni0434;
kernRight = uni0434;
layers = (
{
layerId = m01;
shapes = (
{
closed = 1;
nodes = (
(124,293,o),
(119,247,qs),
(115,205,o),
(99,130,o),
(85,110,qs),
(62,74,o),
(22,74,q),
(22,-162,l),
(104,-162,l),
(104,0,l),
(489,0,l),
(489,-162,l),
(571,-162,l),
(571,74,l),
(502,74,l),
(502,527,l),
(128,527,l),
(128,498,o),
(128,440,o),
(127,411,qs),
(127,384,o)
);
},
{
closed = 1;
nodes = (
(157,74,l),
(172,95,o),
(189,145,o),
(198,194,o),
(202,241,o),
(203,261,qs),
(206,306,o),
(208,410,o),
(209,452,q),
(417,452,l),
(417,74,l)
);
}
);
userData = {
assembly = "MPPEM[ ]	/* MeasurePixelPerEm */
PUSHB[ ]	/* 1 value pushed */
16 
LT[ ]	/* LessThan */
IF[ ]	/* If */
NPUSHB[ ]	/* 36 values pushed */
0 6 6 0 95 0 0 0 22 77 7 5 2 1 1 3 95 0 3 3 21 77 7 5 2 1 1 2 95 4 1 2 2 24 2 78 
ELSE[ ]	/* Else */
NPUSHB[ ]	/* 29 values pushed */
4 1 2 1 2 83 0 6 6 0 95 0 0 0 22 77 7 5 2 1 1 3 95 0 3 3 21 3 78 
EIF[ ]	/* EndIf */
NPUSHB[ ]	/* 11 values pushed */
24 23 17 17 17 17 17 19 8 7 30 
CALL[ ]	/* CallFunction */";
};
width = 593;
}
);
note = uni0434;
unicode = 1076;
},
{
glyphname = uni0436;
layers = (
{
layerId = m01;
shapes = (
{
closed = 1;
nodes = (
(423,227,l),
(511,227,l),
(648,0,l),
(747,0,l),
(576,276,l),
(732,527,l),
(641,527,l),
(502,299,l),
(423,299,l),
(423,527,l),
(338,527,l),
(338,299,l),
(259,299,l),
(120,527,l),
(29,527,l),
(185,276,l),
(14,0,l),
(113,0,l),
(250,227,l),
(338,227,l),
(338,0,l),
(423,0,l)
);
}
);
userData = {
assembly = "NPUSHB[ ]	/* 51 values pushed */
16 5 2 0 3 1 76 5 1 3 8 1 0 1 3 0 103 6 4 2 2 2 22 77 10 9 7 3 1 1 21 1 78 0 0 0 21 0 21 17 18 17 17 17 17 18 17 17 11 7 31 
CALL[ ]	/* CallFunction */";
};
width = 761;
}
);
note = uni0436;
unicode = 1078;
},
{
glyphname = uni043A;
kernLeft = uni0432;
layers = (
{
layerId = m01;
shapes = (
{
closed = 1;
nodes = (
(152,226,l),
(254,226,l),
(412,0,l),
(512,0,l),
(321,276,l),
(497,527,l),
(400,527,l),
(244,300,l),
(152,300,l),
(152,527,l),
(67,527,l),
(67,0,l),
(152,0,l)
);
}
);
userData = {
assembly = "NPUSHB[ ]	/* 42 values pushed */
7 1 4 1 1 76 0 1 0 4 3 1 4 103 2 1 0 0 22 77 6 5 2 3 3 21 3 78 0 0 0 12 0 12 17 18 17 17 17 7 7 27 
CALL[ ]	/* CallFunction */";
};
width = 519;
}
);
note = uni043A;
unicode = 1082;
},
{
glyphname = uni0438;
kernLeft = uni0432;
layers = (
{
layerId = m01;
shapes = (
{
closed = 1;
nodes = (
(417,362,o),
(436,389,o),
(444,404,q),
(444,0,l),
(529,0,l),
(529,527,l),
(445,527,l),
(190,179,ls),
(183,170,o),
(159,137,o),
(152,123,q),
(152,527,l),
(67,527,l),
(67,0,l),
(150,0,l),
(409,352,ls)
);
}
);
userData = {
assembly = "NPUSHB[ ]	/* 27 values pushed */
12 4 2 0 1 1 76 2 1 1 1 22 77 3 1 0 0 21 0 78 17 21 17 16 4 7 26 
CALL[ ]	/* CallFunction */";
};
width = 596;
}
);
note = uni0438;
unicode = 1080;
},
{
glyphname = uni0439;
layers = (
{
layerId = m01;
shapes = (
{
closed = 1;
nodes = (
(214,694,o),
(213,734,q),
(135,734,l),
(137,662,o),
(226,596,o),
(305,596,qs),
(384,596,o),
(475,662,o),
(477,734,q),
(399,734,l),
(399,694,o),
(348,662,o),
(306,662,qs),
(264,662,o)
);
},
{
closed = 1;
nodes = (
(417,362,o),
(436,389,o),
(444,404,q),
(444,0,l),
(529,0,l),
(529,527,l),
(445,527,l),
(190,179,ls),
(183,170,o),
(159,137,o),
(152,123,q),
(152,527,l),
(67,527,l),
(67,0,l),
(150,0,l),
(409,352,ls)
);
}
);
userData = {
assembly = "NPUSHB[ ]	/* 58 values pushed */
26 18 2 4 5 1 76 3 1 1 0 1 133 8 1 0 0 2 5 0 2 105 6 1 5 5 22 77 7 1 4 4 21 4 78 1 0 25 24 23 22 17 16 15 14 11 10 8 6 4 3 0 13 1 13 9 7 22 
CALL[ ]	/* CallFunction */";
};
width = 596;
}
);
note = uni0439;
unicode = 1081;
},
{
glyphname = uni043B;
layers = (
{
layerId = m01;
shapes = (
{
closed = 1;
nodes = (
(97,128,o),
(83,108,qs),
(59,74,o),
(19,74,q),
(19,-1,l),
(50,-1,ls),
(88,-1,o),
(146,35,o),
(163,64,qs),
(185,105,o),
(199,205,o),
(201,245,qs),
(210,452,l),
(408,452,l),
(408,0,l),
(493,0,l),
(493,527,l),
(127,527,l),
(126,455,o),
(121,319,o),
(116,247,qs),
(113,204,o)
);
}
);
userData = {
assembly = "NPUSHB[ ]	/* 30 values pushed */
0 2 2 0 95 0 0 0 22 77 0 4 4 1 97 3 1 1 1 21 1 78 17 38 17 17 19 5 7 27 
CALL[ ]	/* CallFunction */";
};
width = 560;
}
);
note = uni043B;
unicode = 1083;
},
{
glyphname = uni043C;
kernLeft = uni0432;
layers = (
{
layerId = m01;
shapes = (
{
closed = 1;
nodes = (
(151,0,l),
(151,433,l),
(338,135,l),
(362,135,l),
(548,433,l),
(548,0,l),
(632,0,l),
(632,527,l),
(520,527,l),
(352,263,l),
(181,527,l),
(67,527,l),
(67,0,l)
);
}
);
userData = {
assembly = "NPUSHB[ ]	/* 37 values pushed */
10 7 2 3 3 0 1 76 0 3 0 2 0 3 2 128 1 1 0 0 22 77 4 1 2 2 21 2 78 18 18 17 18 16 5 7 27 
CALL[ ]	/* CallFunction */";
};
width = 699;
}
);
note = uni043C;
unicode = 1084;
},
{
glyphname = uni043D;
kernLeft = uni0432;
layers = (
{
layerId = m01;
shapes = (
{
closed = 1;
nodes = (
(152,221,l),
(416,221,l),
(416,0,l),
(501,0,l),
(501,527,l),
(416,527,l),
(416,296,l),
(152,296,l),
(152,527,l),
(67,527,l),
(67,0,l),
(152,0,l)
);
}
);
userData = {
assembly = "NPUSHB[ ]	/* 36 values pushed */
0 1 0 4 3 1 4 103 2 1 0 0 22 77 6 5 2 3 3 21 3 78 0 0 0 11 0 11 17 17 17 17 17 7 7 27 
CALL[ ]	/* CallFunction */";
};
width = 568;
}
);
note = uni043D;
unicode = 1085;
},
{
glyphname = uni043F;
kernLeft = uni0432;
layers = (
{
layerId = m01;
shapes = (
{
closed = 1;
nodes = (
(152,452,l),
(419,452,l),
(419,0,l),
(504,0,l),
(504,527,l),
(67,527,l),
(67,0,l),
(152,0,l)
);
}
);
userData = {
assembly = "NPUSHB[ ]	/* 30 values pushed */
0 2 2 0 95 0 0 0 22 77 4 3 2 1 1 21 1 78 0 0 0 7 0 7 17 17 17 5 7 25 
CALL[ ]	/* CallFunction */";
};
width = 571;
}
);
note = uni043F;
unicode = 1087;
},
{
glyphname = uni0442;
layers = (
{
layerId = m01;
shapes = (
{
closed = 1;
nodes = (
(9,452,l),
(190,452,l),
(190,0,l),
(275,0,l),
(275,452,l),
(456,452,l),
(456,527,l),
(9,527,l)
);
}
);
userData = {
assembly = "NPUSHB[ ]	/* 30 values pushed */
2 1 0 0 3 95 4 1 3 3 22 77 0 1 1 21 1 78 0 0 0 7 0 7 17 17 17 5 7 25 
CALL[ ]	/* CallFunction */";
};
width = 465;
}
);
note = uni0442;
unicode = 1090;
},
{
glyphname = uni0444;
kernLeft = uni0444;
layers = (
{
layerId = m01;
shapes = (
{
closed = 1;
nodes = (
(189,530,o),
(43,393,o),
(43,259,qs),
(43,192,o),
(83,94,o),
(156,29,o),
(257,-4,o),
(318,-6,q),
(318,-180,l),
(403,-180,l),
(403,-6,l),
(464,-4,o),
(566,29,o),
(639,94,o),
(679,192,o),
(679,259,qs),
(679,392,o),
(532,530,o),
(403,532,q),
(403,694,l),
(318,694,l),
(318,532,l)
);
},
{
closed = 1;
nodes = (
(497,459,o),
(594,359,o),
(594,262,qs),
(594,165,o),
(500,66,o),
(403,65,q),
(403,459,l)
);
},
{
closed = 1;
nodes = (
(222,66,o),
(128,165,o),
(128,262,qs),
(128,359,o),
(224,459,o),
(318,459,q),
(318,65,l)
);
}
);
userData = {
assembly = "MPPEM[ ]	/* MeasurePixelPerEm */
PUSHB[ ]	/* 1 value pushed */
16 
LT[ ]	/* LessThan */
IF[ ]	/* If */
NPUSHB[ ]	/* 35 values pushed */
0 0 0 20 77 8 1 7 7 1 97 5 1 1 1 29 77 9 1 6 6 2 97 4 1 2 2 30 77 0 3 3 24 3 78 
ELSE[ ]	/* Else */
MPPEM[ ]	/* MeasurePixelPerEm */
PUSHB[ ]	/* 1 value pushed */
39 
LT[ ]	/* LessThan */
IF[ ]	/* If */
NPUSHB[ ]	/* 35 values pushed */
0 3 2 3 134 0 0 0 20 77 8 1 7 7 1 97 5 1 1 1 29 77 9 1 6 6 2 97 4 1 2 2 30 2 78 
ELSE[ ]	/* Else */
NPUSHB[ ]	/* 35 values pushed */
0 0 1 0 133 0 3 2 3 134 8 1 7 7 1 97 5 1 1 1 29 77 9 1 6 6 2 97 4 1 2 2 30 2 78 
EIF[ ]	/* EndIf */
EIF[ ]	/* EndIf */
NPUSHB[ ]	/* 14 values pushed */
35 34 17 20 17 22 17 17 22 17 16 10 7 31 
CALL[ ]	/* CallFunction */";
};
width = 722;
}
);
note = uni0444;
unicode = 1092;
},
{
glyphname = uni0446;
kernLeft = uni0432;
kernRight = uni0434;
layers = (
{
layerId = m01;
shapes = (
{
closed = 1;
nodes = (
(152,527,l),
(67,527,l),
(67,0,l),
(479,0,l),
(479,-162,l),
(562,-162,l),
(562,74,l),
(493,74,l),
(493,527,l),
(407,527,l),
(407,74,l),
(152,74,l)
);
}
);
userData = {
assembly = "MPPEM[ ]	/* MeasurePixelPerEm */
PUSHB[ ]	/* 1 value pushed */
16 
LT[ ]	/* LessThan */
IF[ ]	/* If */
NPUSHB[ ]	/* 31 values pushed */
4 1 0 0 22 77 6 5 2 1 1 3 96 0 3 3 21 77 6 5 2 1 1 2 96 0 2 2 24 2 78 
ELSE[ ]	/* Else */
NPUSHB[ ]	/* 24 values pushed */
0 2 1 2 84 4 1 0 0 22 77 6 5 2 1 1 3 96 0 3 3 21 3 78 
EIF[ ]	/* EndIf */
NPUSHB[ ]	/* 14 values pushed */
0 0 0 11 0 11 17 17 17 17 17 7 7 27 
CALL[ ]	/* CallFunction */";
};
width = 584;
}
);
note = uni0446;
unicode = 1094;
},
{
glyphname = uni0447;
kernLeft = uni0432;
layers = (
{
layerId = m01;
shapes = (
{
closed = 1;
nodes = (
(44,349,o),
(63,270,o),
(109,217,o),
(184,191,o),
(240,191,qs),
(268,191,o),
(339,196,o),
(377,203,q),
(377,0,l),
(462,0,l),
(462,527,l),
(377,527,l),
(377,278,l),
(348,272,o),
(281,266,o),
(251,266,qs),
(212,266,o),
(164,285,o),
(138,321,o),
(129,374,o),
(129,409,qs),
(129,527,l),
(44,527,l),
(44,403,ls)
);
}
);
userData = {
assembly = "NPUSHB[ ]	/* 38 values pushed */
10 1 1 0 15 1 4 1 2 76 0 1 0 4 3 1 4 105 2 1 0 0 22 77 0 3 3 21 3 78 50 17 19 37 16 5 7 27 
CALL[ ]	/* CallFunction */";
};
width = 529;
}
);
note = uni0447;
unicode = 1095;
},
{
glyphname = uni0448;
kernLeft = uni0432;
layers = (
{
layerId = m01;
shapes = (
{
closed = 1;
nodes = (
(720,0,l),
(720,527,l),
(635,527,l),
(635,74,l),
(435,74,l),
(435,527,l),
(350,527,l),
(350,74,l),
(152,74,l),
(152,527,l),
(67,527,l),
(67,0,l)
);
}
);
userData = {
assembly = "NPUSHB[ ]	/* 28 values pushed */
4 2 2 0 0 22 77 3 1 1 1 5 96 0 5 5 21 5 78 17 17 17 17 17 16 6 7 28 
CALL[ ]	/* CallFunction */";
};
width = 787;
}
);
note = uni0448;
unicode = 1096;
},
{
glyphname = uni0449;
kernLeft = uni0432;
kernRight = uni0434;
layers = (
{
layerId = m01;
shapes = (
{
closed = 1;
nodes = (
(707,0,l),
(707,-162,l),
(789,-162,l),
(789,74,l),
(720,74,l),
(720,527,l),
(635,527,l),
(635,74,l),
(435,74,l),
(435,527,l),
(350,527,l),
(350,74,l),
(152,74,l),
(152,527,l),
(67,527,l),
(67,0,l)
);
}
);
userData = {
assembly = "MPPEM[ ]	/* MeasurePixelPerEm */
PUSHB[ ]	/* 1 value pushed */
16 
LT[ ]	/* LessThan */
IF[ ]	/* If */
NPUSHB[ ]	/* 32 values pushed */
4 2 2 0 0 22 77 5 3 2 1 1 7 96 0 7 7 21 77 5 3 2 1 1 6 96 0 6 6 24 6 78 
ELSE[ ]	/* Else */
NPUSHB[ ]	/* 25 values pushed */
0 6 1 6 84 4 2 2 0 0 22 77 5 3 2 1 1 7 96 0 7 7 21 7 78 
EIF[ ]	/* EndIf */
NPUSHB[ ]	/* 11 values pushed */
17 17 17 17 17 17 17 16 8 7 30 
CALL[ ]	/* CallFunction */";
};
width = 811;
}
);
note = uni0449;
unicode = 1097;
},
{
glyphname = uni044A;
layers = (
{
layerId = m01;
shapes = (
{
closed = 1;
nodes = (
(347,0,ls),
(389,0,o),
(469,20,o),
(496,43,qs),
(519,63,o),
(549,122,o),
(550,172,qs),
(550,214,o),
(521,273,o),
(495,293,qs),
(466,313,o),
(391,326,o),
(346,326,qs),
(229,326,l),
(229,527,l),
(14,527,l),
(14,452,l),
(142,452,l),
(142,0,l)
);
},
{
closed = 1;
nodes = (
(229,252,l),
(330,252,ls),
(353,252,o),
(401,248,o),
(440,231,o),
(464,198,o),
(464,169,qs),
(464,138,o),
(441,99,o),
(422,91,qs),
(394,77,o),
(317,74,o),
(279,74,qs),
(229,74,l)
);
}
);
userData = {
assembly = "NPUSHB[ ]	/* 45 values pushed */
0 2 0 5 4 2 5 103 0 0 0 1 95 0 1 1 22 77 6 1 4 4 3 95 0 3 3 21 3 78 21 19 31 29 19 32 21 32 42 33 17 16 7 7 26 
CALL[ ]	/* CallFunction */";
};
width = 590;
}
);
note = uni044A;
unicode = 1098;
},
{
glyphname = uni044B;
kernLeft = uni0432;
layers = (
{
layerId = m01;
shapes = (
{
closed = 1;
nodes = (
(250,0,ls),
(292,0,o),
(372,20,o),
(400,43,qs),
(423,63,o),
(452,122,o),
(454,167,qs),
(454,212,o),
(425,273,o),
(398,293,qs),
(369,313,o),
(294,326,o),
(249,326,qs),
(154,326,l),
(154,527,l),
(67,527,l),
(67,0,l)
);
},
{
closed = 1;
nodes = (
(612,527,l),
(527,527,l),
(527,0,l),
(612,0,l)
);
},
{
closed = 1;
nodes = (
(154,252,l),
(233,252,ls),
(256,252,o),
(304,248,o),
(343,231,o),
(368,195,o),
(368,164,qs),
(367,138,o),
(344,99,o),
(325,91,qs),
(297,77,o),
(220,74,o),
(182,74,qs),
(154,74,l)
);
}
);
userData = {
assembly = "NPUSHB[ ]	/* 49 values pushed */
0 1 0 6 5 1 6 103 3 1 0 0 22 77 8 1 5 5 2 96 7 4 2 2 2 21 2 78 23 21 17 17 33 31 21 34 23 34 17 20 17 20 18 42 33 16 9 7 26 
CALL[ ]	/* CallFunction */";
};
width = 679;
}
);
note = uni044B;
unicode = 1099;
},
{
glyphname = uni044C;
kernLeft = uni0432;
layers = (
{
layerId = m01;
shapes = (
{
closed = 1;
nodes = (
(271,0,ls),
(313,0,o),
(394,20,o),
(421,43,qs),
(444,63,o),
(474,122,o),
(475,167,qs),
(475,212,o),
(446,273,o),
(419,293,qs),
(391,313,o),
(315,326,o),
(270,326,qs),
(154,326,l),
(154,527,l),
(67,527,l),
(67,0,l)
);
},
{
closed = 1;
nodes = (
(154,252,l),
(254,252,ls),
(277,252,o),
(325,248,o),
(364,231,o),
(389,195,o),
(389,164,qs),
(388,138,o),
(365,99,o),
(346,91,qs),
(318,77,o),
(242,74,o),
(204,74,qs),
(154,74,l)
);
}
);
userData = {
assembly = "NPUSHB[ ]	/* 39 values pushed */
0 1 0 4 3 1 4 103 0 0 0 22 77 5 1 3 3 2 96 0 2 2 21 2 78 19 17 29 27 17 30 19 30 42 33 16 6 7 25 
CALL[ ]	/* CallFunction */";
};
width = 519;
}
);
note = uni044C;
unicode = 1100;
},
{
glyphname = uni044E;
kernLeft = uni0432;
layers = (
{
layerId = m01;
shapes = (
{
closed = 1;
nodes = (
(349,499,o),
(289,437,o),
(256,352,o),
(252,300,q),
(152,300,l),
(152,527,l),
(67,527,l),
(67,0,l),
(152,0,l),
(152,226,l),
(252,226,l),
(256,174,o),
(289,89,o),
(349,28,o),
(436,-6,o),
(494,-6,qs),
(557,-6,o),
(650,34,o),
(711,105,o),
(742,204,o),
(742,263,qs),
(742,322,o),
(711,421,o),
(650,493,o),
(557,533,o),
(494,533,qs),
(436,533,o)
);
},
{
closed = 1;
nodes = (
(390,99,o),
(352,152,o),
(334,222,o),
(334,263,qs),
(334,303,o),
(352,374,o),
(390,427,o),
(451,457,o),
(494,457,qs),
(537,457,o),
(599,427,o),
(638,374,o),
(657,303,o),
(657,263,qs),
(657,222,o),
(638,152,o),
(599,99,o),
(537,69,o),
(494,69,qs),
(451,69,o)
);
}
);
userData = {
assembly = "MPPEM[ ]	/* MeasurePixelPerEm */
PUSHB[ ]	/* 1 value pushed */
39 
LT[ ]	/* LessThan */
IF[ ]	/* If */
NPUSHB[ ]	/* 33 values pushed */
0 5 0 2 6 5 2 103 0 7 7 0 97 4 8 2 0 0 29 77 9 1 6 6 1 97 3 1 1 1 30 1 78 
ELSE[ ]	/* Else */
NPUSHB[ ]	/* 41 values pushed */
0 5 0 2 6 5 2 103 0 4 4 22 77 0 7 7 0 97 8 1 0 0 29 77 0 3 3 21 77 9 1 6 6 1 97 0 1 1 30 1 78 
EIF[ ]	/* EndIf */
NPUSHB[ ]	/* 27 values pushed */
28 27 1 0 38 36 27 46 28 46 22 21 20 19 18 17 16 15 11 9 0 26 1 26 10 7 22 
CALL[ ]	/* CallFunction */";
};
width = 785;
}
);
note = uni044E;
unicode = 1102;
},
{
glyphname = uni044F;
kernLeft = uni0432;
layers = (
{
layerId = m01;
shapes = (
{
closed = 1;
nodes = (
(255,527,ls),
(213,527,o),
(139,516,o),
(111,496,qs),
(82,476,o),
(47,411,o),
(48,358,qs),
(50,297,o),
(114,224,o),
(171,208,q),
(34,0,l),
(133,0,l),
(261,195,l),
(382,195,l),
(382,0,l),
(467,0,l),
(467,527,l)
);
},
{
closed = 1;
nodes = (
(319,269,ls),
(281,269,o),
(210,273,o),
(181,287,qs),
(159,298,o),
(135,335,o),
(134,362,qs),
(135,391,o),
(156,428,o),
(173,438,qs),
(193,449,o),
(244,453,o),
(269,453,qs),
(382,452,l),
(382,269,l)
);
}
);
userData = {
assembly = "NPUSHB[ ]	/* 40 values pushed */
6 1 1 5 1 76 0 5 0 1 0 5 1 103 0 4 4 3 95 0 3 3 22 77 2 1 0 0 21 0 78 57 33 41 17 17 16 6 7 28 
CALL[ ]	/* CallFunction */";
};
width = 534;
}
);
note = uni044F;
unicode = 1103;
},
{
glyphname = uni0410;
kernLeft = A;
kernRight = A;
layers = (
{
layerId = m01;
shapes = (
{
closed = 1;
nodes = (
(273,707,l),
(10,0,l),
(104,0,l),
(160,152,l),
(510,152,l),
(566,0,l),
(660,0,l),
(398,707,l)
);
},
{
closed = 1;
nodes = (
(335,631,l),
(481,231,l),
(189,231,l)
);
}
);
userData = {
assembly = "NPUSHB[ ]	/* 40 values pushed */
9 1 4 3 1 76 5 1 4 0 1 0 4 1 104 0 3 3 20 77 2 1 0 0 21 0 78 8 8 8 10 8 10 17 17 17 16 6 7 26 
CALL[ ]	/* CallFunction */";
};
width = 670;
}
);
note = uni0410;
unicode = 1040;
},
{
glyphname = uni0415;
layers = (
{
layerId = m01;
shapes = (
{
closed = 1;
nodes = (
(562,79,l),
(174,79,l),
(174,310,l),
(523,310,l),
(523,390,l),
(174,390,l),
(174,628,l),
(562,628,l),
(562,707,l),
(87,707,l),
(87,0,l),
(562,0,l)
);
}
);
userData = {
assembly = "NPUSHB[ ]	/* 44 values pushed */
0 2 0 3 4 2 3 103 0 1 1 0 95 0 0 0 20 77 0 4 4 5 95 6 1 5 5 21 5 78 0 0 0 11 0 11 17 17 17 17 17 7 7 27 
CALL[ ]	/* CallFunction */";
};
width = 610;
}
);
note = uni0415;
unicode = 1045;
},
{
glyphname = uni041C;
layers = (
{
layerId = m01;
shapes = (
{
closed = 1;
nodes = (
(174,619,l),
(411,184,l),
(451,184,l),
(686,619,l),
(686,0,l),
(773,0,l),
(773,707,l),
(646,707,l),
(433,318,l),
(217,707,l),
(87,707,l),
(87,0,l),
(174,0,l)
);
}
);
userData = {
assembly = "NPUSHB[ ]	/* 43 values pushed */
11 8 3 3 3 0 1 76 0 3 0 2 0 3 2 128 1 1 0 0 20 77 5 4 2 2 2 21 2 78 0 0 0 12 0 12 18 17 18 17 6 7 26 
CALL[ ]	/* CallFunction */";
};
width = 860;
}
);
note = uni041C;
unicode = 1052;
},
{
glyphname = uni041D;
layers = (
{
layerId = m01;
shapes = (
{
closed = 1;
nodes = (
(87,707,l),
(87,0,l),
(174,0,l),
(174,307,l),
(553,307,l),
(553,0,l),
(640,0,l),
(640,707,l),
(553,707,l),
(553,387,l),
(174,387,l),
(174,707,l)
);
}
);
userData = {
assembly = "NPUSHB[ ]	/* 30 values pushed */
0 0 0 3 2 0 3 103 5 1 1 1 20 77 4 1 2 2 21 2 78 17 17 17 17 17 16 6 7 28 
CALL[ ]	/* CallFunction */";
};
width = 727;
}
);
note = uni041D;
unicode = 1053;
},
{
glyphname = uni0420;
layers = (
{
layerId = m01;
shapes = (
{
closed = 1;
nodes = (
(174,233,l),
(314,233,ls),
(372,233,o),
(468,263,o),
(500,289,qs),
(538,319,o),
(581,411,o),
(581,472,qs),
(581,592,o),
(449,707,o),
(332,707,qs),
(87,707,l),
(87,0,l),
(174,0,l)
);
},
{
closed = 1;
nodes = (
(328,628,ls),
(492,628,o),
(492,476,qs),
(492,430,o),
(466,372,o),
(443,352,qs),
(420,331,o),
(348,312,o),
(310,312,qs),
(174,312,l),
(174,628,l)
);
}
);
userData = {
assembly = "NPUSHB[ ]	/* 40 values pushed */
0 3 0 1 2 3 1 103 0 4 4 0 95 0 0 0 20 77 5 1 2 2 21 2 78 0 0 24 22 16 14 0 13 0 13 39 33 6 7 24 
CALL[ ]	/* CallFunction */";
};
width = 625;
}
);
note = uni0420;
unicode = 1056;
},
{
glyphname = uni0422;
kernLeft = uni0422;
kernRight = uni0422;
layers = (
{
layerId = m01;
shapes = (
{
closed = 1;
nodes = (
(555,628,l),
(555,707,l),
(14,707,l),
(14,628,l),
(241,628,l),
(241,0,l),
(328,0,l),
(328,628,l)
);
}
);
userData = {
assembly = "NPUSHB[ ]	/* 24 values pushed */
3 1 1 1 2 95 0 2 2 20 77 0 0 0 21 0 78 17 17 17 16 4 7 26 
CALL[ ]	/* CallFunction */";
};
width = 569;
}
);
note = uni0422;
unicode = 1058;
},
{
glyphname = uni0425;
layers = (
{
layerId = m01;
shapes = (
{
closed = 1;
nodes = (
(127,707,l),
(21,707,l),
(241,353,l),
(14,0,l),
(116,0,l),
(296,283,l),
(474,0,l),
(579,0,l),
(351,356,l),
(571,707,l),
(466,707,l),
(297,425,l)
);
}
);
userData = {
assembly = "NPUSHB[ ]	/* 29 values pushed */
11 8 5 2 4 1 0 1 76 3 1 0 0 20 77 2 1 1 1 21 1 78 18 18 18 16 4 7 26 
CALL[ ]	/* CallFunction */";
};
width = 593;
}
);
note = uni0425;
unicode = 1061;
},
{
glyphname = T;
kernLeft = uni0422;
kernRight = uni0422;
layers = (
{
layerId = m01;
shapes = (
{
closed = 1;
nodes = (
(328,628,l),
(555,628,l),
(555,707,l),
(14,707,l),
(14,628,l),
(241,628,l),
(241,0,l),
(328,0,l)
);
}
);
userData = {
assembly = "NPUSHB[ ]	/* 30 values pushed */
2 1 0 0 1 95 0 1 1 38 77 4 1 3 3 39 3 78 0 0 0 7 0 7 17 17 17 5 8 25 
CALL[ ]	/* CallFunction */";
};
width = 569;
}
);
note = T;
unicode = 84;
},
{
glyphname = uni0412;
layers = (
{
layerId = m01;
shapes = (
{
closed = 1;
nodes = (
(329,0,ls),
(378,0,o),
(475,15,o),
(553,57,o),
(603,131,o),
(606,197,qs),
(606,269,o),
(538,360,o),
(470,372,q),
(521,392,o),
(570,476,o),
(570,530,qs),
(570,584,o),
(530,654,o),
(501,673,qs),
(468,695,o),
(385,707,o),
(334,707,qs),
(86,707,l),
(86,0,l)
);
},
{
closed = 1;
nodes = (
(365,628,o),
(419,621,o),
(461,599,o),
(485,558,o),
(485,524,qs),
(484,481,o),
(449,432,o),
(421,418,qs),
(397,405,o),
(337,397,o),
(309,397,qs),
(173,397,l),
(173,628,l),
(335,628,ls)
);
},
{
closed = 1;
nodes = (
(173,319,l),
(358,319,ls),
(388,319,o),
(446,309,o),
(491,283,o),
(518,237,o),
(518,201,qs),
(518,159,o),
(482,110,o),
(423,85,o),
(358,79,o),
(326,79,qs),
(173,79,l)
);
}
);
userData = {
assembly = "NPUSHB[ ]	/* 57 values pushed */
10 1 5 2 1 76 0 2 0 5 4 2 5 103 6 1 3 3 0 95 0 0 0 20 77 7 1 4 4 1 95 0 1 1 21 1 78 35 34 20 20 45 43 34 46 35 46 20 33 20 32 34 47 32 8 7 25 
CALL[ ]	/* CallFunction */";
};
width = 655;
}
);
note = uni0412;
unicode = 1042;
},
{
glyphname = uni041F;
layers = (
{
layerId = m01;
shapes = (
{
closed = 1;
nodes = (
(87,707,l),
(87,0,l),
(174,0,l),
(174,628,l),
(556,628,l),
(556,0,l),
(643,0,l),
(643,707,l)
);
}
);
userData = {
assembly = "NPUSHB[ ]	/* 24 values pushed */
0 1 1 3 95 0 3 3 20 77 2 1 0 0 21 0 78 17 17 17 16 4 7 26 
CALL[ ]	/* CallFunction */";
};
width = 730;
}
);
note = uni041F;
unicode = 1055;
},
{
glyphname = uni0413;
kernRight = uni0413;
layers = (
{
layerId = m01;
shapes = (
{
closed = 1;
nodes = (
(174,628,l),
(542,628,l),
(542,707,l),
(87,707,l),
(87,0,l),
(174,0,l)
);
}
);
userData = {
assembly = "NPUSHB[ ]	/* 28 values pushed */
0 1 1 0 95 0 0 0 20 77 3 1 2 2 21 2 78 0 0 0 5 0 5 17 17 4 7 24 
CALL[ ]	/* CallFunction */";
};
width = 571;
}
);
note = uni0413;
unicode = 1043;
},
{
glyphname = uni041B;
layers = (
{
layerId = m01;
shapes = (
{
closed = 1;
nodes = (
(606,707,l),
(135,707,l),
(135,619,o),
(130,440,o),
(128,352,qs),
(126,304,o),
(121,197,o),
(110,161,qs),
(102,126,o),
(51,79,o),
(14,79,q),
(14,-7,l),
(91,-5,o),
(173,55,o),
(190,106,qs),
(199,131,o),
(209,209,o),
(213,295,o),
(216,378,o),
(216,408,qs),
(217,462,o),
(220,574,o),
(222,628,q),
(519,628,l),
(519,0,l),
(606,0,l)
);
}
);
userData = {
assembly = "MPPEM[ ]	/* MeasurePixelPerEm */
PUSHB[ ]	/* 1 value pushed */
39 
LT[ ]	/* LessThan */
IF[ ]	/* If */
NPUSHB[ ]	/* 23 values pushed */
0 0 0 3 95 0 3 3 20 77 0 2 2 1 97 5 4 2 1 1 30 1 78 
ELSE[ ]	/* Else */
NPUSHB[ ]	/* 27 values pushed */
0 0 0 3 95 0 3 3 20 77 5 1 4 4 21 77 0 2 2 1 97 0 1 1 30 1 78 
EIF[ ]	/* EndIf */
NPUSHB[ ]	/* 13 values pushed */
0 0 0 25 0 25 24 17 26 17 6 7 26 
CALL[ ]	/* CallFunction */";
};
width = 693;
}
);
note = uni041B;
unicode = 1051;
},
{
glyphname = uni0414;
kernRight = uni0414;
layers = (
{
layerId = m01;
shapes = (
{
closed = 1;
nodes = (
(109,0,l),
(600,0,l),
(600,-195,l),
(687,-195,l),
(687,79,l),
(602,79,l),
(602,707,l),
(150,707,l),
(149,607,o),
(143,407,o),
(136,307,qs),
(132,256,o),
(117,159,o),
(105,129,qs),
(95,106,o),
(58,79,o),
(22,79,q),
(22,-195,l),
(109,-195,l)
);
},
{
closed = 1;
nodes = (
(197,114,o),
(213,190,o),
(222,263,o),
(225,329,o),
(226,353,qs),
(235,628,l),
(515,628,l),
(515,79,l),
(183,79,l)
);
}
);
userData = {
assembly = "PUSHB[ ]	/* 6 values pushed */
7 1 0 6 1 76 
MPPEM[ ]	/* MeasurePixelPerEm */
PUSHB[ ]	/* 1 value pushed */
16 
LT[ ]	/* LessThan */
IF[ ]	/* If */
NPUSHB[ ]	/* 39 values pushed */
0 6 6 1 95 0 1 1 20 77 9 7 2 3 0 0 4 95 0 4 4 21 77 9 7 2 3 0 0 3 95 8 5 2 3 3 24 3 78 
ELSE[ ]	/* Else */
NPUSHB[ ]	/* 31 values pushed */
8 5 2 3 0 3 83 0 6 6 1 95 0 1 1 20 77 9 7 2 3 0 0 4 95 0 4 4 21 4 78 
EIF[ ]	/* EndIf */
NPUSHB[ ]	/* 22 values pushed */
19 19 0 0 19 27 19 27 21 20 0 18 0 18 17 17 17 24 17 10 7 27 
CALL[ ]	/* CallFunction */";
};
width = 709;
}
);
note = uni0414;
unicode = 1044;
},
{
glyphname = uni0411;
layers = (
{
layerId = m01;
shapes = (
{
closed = 1;
nodes = (
(331,0,ls),
(386,0,o),
(484,22,o),
(557,72,o),
(599,153,o),
(599,218,qs),
(599,280,o),
(555,357,o),
(482,400,o),
(387,415,o),
(335,415,qs),
(174,415,l),
(174,628,l),
(568,628,l),
(568,707,l),
(87,707,l),
(87,0,l)
);
},
{
closed = 1;
nodes = (
(325,336,ls),
(360,336,o),
(427,329,o),
(479,304,o),
(511,255,o),
(511,212,qs),
(511,169,o),
(479,117,o),
(425,88,o),
(356,79,o),
(320,79,qs),
(174,79,l),
(174,336,l)
);
}
);
userData = {
assembly = "NPUSHB[ ]	/* 38 values pushed */
0 2 0 5 4 2 5 103 0 1 1 0 95 0 0 0 20 77 0 4 4 3 95 0 3 3 21 3 78 40 33 40 33 17 16 6 7 28 
CALL[ ]	/* CallFunction */";
};
width = 654;
}
);
note = uni0411;
unicode = 1041;
},
{
glyphname = uni0416;
layers = (
{
layerId = m01;
shapes = (
{
closed = 1;
nodes = (
(473,307,l),
(581,307,l),
(744,0,l),
(846,0,l),
(653,357,l),
(844,707,l),
(750,707,l),
(581,386,l),
(473,386,l),
(473,707,l),
(386,707,l),
(386,386,l),
(280,386,l),
(111,707,l),
(15,707,l),
(206,357,l),
(14,0,l),
(115,0,l),
(278,307,l),
(386,307,l),
(386,0,l),
(473,0,l)
);
}
);
userData = {
assembly = "NPUSHB[ ]	/* 51 values pushed */
16 5 2 0 3 1 76 5 1 3 8 1 0 1 3 0 103 6 4 2 2 2 20 77 10 9 7 3 1 1 21 1 78 0 0 0 21 0 21 17 18 17 17 17 17 18 17 17 11 7 31 
CALL[ ]	/* CallFunction */";
};
width = 860;
}
);
note = uni0416;
unicode = 1046;
},
{
glyphname = uni0417;
kernLeft = uni0417;
kernRight = uni0417;
layers = (
{
layerId = m01;
shapes = (
{
closed = 1;
nodes = (
(254,-8,o),
(313,-8,qs),
(363,-8,o),
(457,14,o),
(530,63,o),
(576,141,o),
(577,197,qs),
(577,203,ls),
(577,234,o),
(558,290,o),
(524,336,o),
(473,368,o),
(442,374,q),
(476,390,o),
(517,430,o),
(539,472,o),
(546,514,o),
(546,533,qs),
(546,583,o),
(507,653,o),
(443,696,o),
(360,715,o),
(315,715,qs),
(249,715,o),
(135,677,o),
(98,632,qs),
(83,611,o),
(63,559,o),
(63,537,qs),
(63,529,l),
(150,529,l),
(150,552,o),
(171,588,o),
(188,602,qs),
(211,620,o),
(275,636,o),
(309,636,qs),
(335,636,o),
(388,627,o),
(434,601,o),
(461,555,o),
(461,519,qs),
(460,483,o),
(422,433,o),
(394,419,qs),
(367,405,o),
(304,398,o),
(275,398,qs),
(224,398,l),
(224,320,l),
(310,320,ls),
(336,320,o),
(402,316,o),
(428,303,qs),
(453,291,o),
(488,240,o),
(488,198,qs),
(488,156,o),
(452,105,o),
(399,79,o),
(338,71,o),
(313,71,qs),
(297,71,o),
(255,74,o),
(212,85,o),
(172,105,o),
(157,122,qs),
(133,151,o),
(131,182,q),
(44,182,l),
(45,142,o),
(78,75,o),
(108,50,qs),
(147,18,o)
);
}
);
userData = {
assembly = "NPUSHB[ ]	/* 63 values pushed */
60 1 2 3 1 76 0 5 4 3 4 5 3 128 0 0 2 1 2 0 1 128 0 3 0 2 0 3 2 103 0 4 4 6 97 0 6 6 27 77 0 1 1 7 97 0 7 7 28 7 78 72 70 38 21 41 33 56 38 19 8 7 29 
CALL[ ]	/* CallFunction */";
};
width = 626;
}
);
note = uni0417;
unicode = 1047;
},
{
glyphname = uni0418;
layers = (
{
layerId = m01;
shapes = (
{
closed = 1;
nodes = (
(558,566,l),
(558,0,l),
(645,0,l),
(645,707,l),
(553,707,l),
(174,136,l),
(174,707,l),
(87,707,l),
(87,0,l),
(178,0,l)
);
}
);
userData = {
assembly = "NPUSHB[ ]	/* 33 values pushed */
8 3 2 2 0 1 76 1 1 0 0 20 77 4 3 2 2 2 21 2 78 0 0 0 9 0 9 17 18 17 5 7 25 
CALL[ ]	/* CallFunction */";
};
width = 732;
}
);
note = uni0418;
unicode = 1048;
},
{
glyphname = uni0419;
layers = (
{
layerId = m01;
shapes = (
{
closed = 1;
nodes = (
(267,880,o),
(265,918,q),
(182,918,l),
(184,846,o),
(279,767,o),
(366,767,qs),
(453,767,o),
(548,846,o),
(550,918,q),
(467,918,l),
(465,880,o),
(411,839,o),
(366,839,qs),
(321,839,o)
);
},
{
closed = 1;
nodes = (
(558,566,l),
(558,0,l),
(645,0,l),
(645,707,l),
(553,707,l),
(174,136,l),
(174,707,l),
(87,707,l),
(87,0,l),
(178,0,l)
);
}
);
userData = {
assembly = "NPUSHB[ ]	/* 63 values pushed */
22 17 2 6 4 1 76 3 1 1 0 1 133 8 1 0 0 2 4 0 2 105 5 1 4 4 20 77 9 7 2 6 6 21 6 78 14 14 1 0 14 23 14 23 21 20 19 18 16 15 11 10 8 6 4 3 0 13 1 13 10 7 22 
CALL[ ]	/* CallFunction */";
};
width = 732;
}
);
note = uni0419;
unicode = 1049;
},
{
glyphname = uni041A;
layers = (
{
layerId = m01;
shapes = (
{
closed = 1;
nodes = (
(286,302,l),
(508,0,l),
(611,0,l),
(355,356,l),
(609,707,l),
(509,707,l),
(279,381,l),
(174,381,l),
(174,707,l),
(87,707,l),
(87,0,l),
(174,0,l),
(174,302,l)
);
}
);
userData = {
assembly = "NPUSHB[ ]	/* 36 values pushed */
8 1 5 2 1 76 0 2 0 5 0 2 5 103 3 1 1 1 20 77 4 1 0 0 21 0 78 17 18 17 17 17 16 6 7 28 
CALL[ ]	/* CallFunction */";
};
width = 625;
}
);
note = uni041A;
unicode = 1050;
},
{
glyphname = uni0423;
layers = (
{
layerId = m01;
shapes = (
{
closed = 1;
nodes = (
(174,-1,o),
(262,20,o),
(299,53,qs),
(323,75,o),
(366,141,o),
(385,179,qs),
(413,234,o),
(464,351,o),
(488,408,qs),
(520,484,o),
(583,635,o),
(615,707,q),
(521,707,l),
(343,269,l),
(118,707,l),
(15,707,l),
(293,179,l),
(276,147,o),
(239,109,o),
(197,88,o),
(147,81,o),
(116,81,q),
(116,-1,l)
);
}
);
userData = {
assembly = "NPUSHB[ ]	/* 31 values pushed */
8 5 2 0 1 1 76 2 1 1 1 20 77 0 0 0 3 97 0 3 3 21 3 78 27 18 21 16 4 7 26 
CALL[ ]	/* CallFunction */";
};
width = 614;
}
);
note = uni0423;
unicode = 1059;
},
{
glyphname = uni0424;
kernLeft = uni0417;
kernRight = uni0417;
layers = (
{
layerId = m01;
shapes = (
{
closed = 1;
nodes = (
(462,106,l),
(537,106,ls),
(597,107,o),
(691,150,o),
(755,223,o),
(789,323,o),
(789,382,qs),
(788,443,o),
(748,541,o),
(678,609,o),
(583,646,o),
(526,646,qs),
(462,646,l),
(462,746,l),
(375,746,l),
(375,646,l),
(310,646,ls),
(253,646,o),
(158,609,o),
(89,541,o),
(49,443,o),
(48,382,qs),
(48,323,o),
(80,223,o),
(143,150,o),
(235,107,o),
(295,106,qs),
(375,106,l),
(375,-9,l),
(462,-9,l)
);
},
{
closed = 1;
nodes = (
(375,181,l),
(313,181,ls),
(266,181,o),
(199,212,o),
(156,266,o),
(136,340,o),
(136,384,qs),
(136,425,o),
(161,494,o),
(208,543,o),
(275,571,o),
(317,571,qs),
(375,571,l)
);
},
{
closed = 1;
nodes = (
(520,571,ls),
(562,571,o),
(629,543,o),
(676,494,o),
(701,425,o),
(701,384,qs),
(701,340,o),
(681,266,o),
(638,212,o),
(571,181,o),
(524,181,qs),
(462,181,l),
(462,571,l)
);
}
);
userData = {
assembly = "NPUSHB[ ]	/* 59 values pushed */
3 1 1 9 11 2 6 7 1 6 105 8 1 7 4 1 0 5 7 0 103 0 2 2 5 95 10 1 5 5 21 5 78 31 30 0 0 55 53 45 43 41 39 30 42 31 42 0 29 0 29 40 33 17 40 33 12 7 27 
CALL[ ]	/* CallFunction */";
};
width = 837;
}
);
note = uni0424;
unicode = 1060;
},
{
glyphname = uni0426;
kernRight = uni0414;
layers = (
{
layerId = m01;
shapes = (
{
closed = 1;
nodes = (
(618,-195,l),
(705,-195,l),
(705,79,l),
(620,79,l),
(620,707,l),
(533,707,l),
(533,79,l),
(174,79,l),
(174,707,l),
(87,707,l),
(87,0,l),
(618,0,l)
);
}
);
userData = {
assembly = "MPPEM[ ]	/* MeasurePixelPerEm */
PUSHB[ ]	/* 1 value pushed */
16 
LT[ ]	/* LessThan */
IF[ ]	/* If */
NPUSHB[ ]	/* 30 values pushed */
2 1 0 0 20 77 3 1 1 1 5 96 6 1 5 5 21 77 3 1 1 1 4 96 0 4 4 24 4 78 
ELSE[ ]	/* Else */
NPUSHB[ ]	/* 24 values pushed */
0 4 1 4 84 2 1 0 0 20 77 3 1 1 1 5 96 6 1 5 5 21 5 78 
EIF[ ]	/* EndIf */
NPUSHB[ ]	/* 14 values pushed */
0 0 0 11 0 11 17 17 17 17 17 7 7 27 
CALL[ ]	/* CallFunction */";
};
width = 724;
}
);
note = uni0426;
unicode = 1062;
},
{
glyphname = uni0427;
layers = (
{
layerId = m01;
shapes = (
{
closed = 1;
nodes = (
(218,343,o),
(173,379,o),
(151,445,o),
(151,499,qs),
(151,707,l),
(64,707,l),
(64,475,ls),
(64,408,o),
(99,322,o),
(164,271,o),
(258,250,o),
(318,249,qs),
(336,249,o),
(376,249,o),
(468,256,o),
(487,258,q),
(487,0,l),
(574,0,l),
(574,707,l),
(487,707,l),
(487,336,l),
(458,332,o),
(397,328,o),
(333,328,qs),
(286,329,o)
);
}
);
userData = {
assembly = "NPUSHB[ ]	/* 48 values pushed */
3 1 0 1 8 1 3 0 2 76 5 1 0 0 3 2 0 3 105 4 1 1 1 20 77 0 2 2 21 2 78 2 0 19 18 13 10 7 6 5 4 0 24 2 24 6 7 22 
CALL[ ]	/* CallFunction */";
};
width = 661;
}
);
note = uni0427;
unicode = 1063;
},
{
glyphname = uni0428;
layers = (
{
layerId = m01;
shapes = (
{
closed = 1;
nodes = (
(878,0,l),
(878,707,l),
(791,707,l),
(791,79,l),
(526,79,l),
(526,707,l),
(439,707,l),
(439,79,l),
(174,79,l),
(174,707,l),
(87,707,l),
(87,0,l)
);
}
);
userData = {
assembly = "NPUSHB[ ]	/* 28 values pushed */
4 2 2 0 0 20 77 3 1 1 1 5 96 0 5 5 21 5 78 17 17 17 17 17 16 6 7 28 
CALL[ ]	/* CallFunction */";
};
width = 965;
}
);
note = uni0428;
unicode = 1064;
},
{
glyphname = uni0429;
kernRight = uni0414;
layers = (
{
layerId = m01;
shapes = (
{
closed = 1;
nodes = (
(876,0,l),
(876,-195,l),
(963,-195,l),
(963,79,l),
(878,79,l),
(878,707,l),
(791,707,l),
(791,79,l),
(526,79,l),
(526,707,l),
(439,707,l),
(439,79,l),
(174,79,l),
(174,707,l),
(87,707,l),
(87,0,l)
);
}
);
userData = {
assembly = "MPPEM[ ]	/* MeasurePixelPerEm */
PUSHB[ ]	/* 1 value pushed */
16 
LT[ ]	/* LessThan */
IF[ ]	/* If */
NPUSHB[ ]	/* 32 values pushed */
4 2 2 0 0 20 77 5 3 2 1 1 7 96 0 7 7 21 77 5 3 2 1 1 6 96 0 6 6 24 6 78 
ELSE[ ]	/* Else */
NPUSHB[ ]	/* 25 values pushed */
0 6 1 6 84 4 2 2 0 0 20 77 5 3 2 1 1 7 96 0 7 7 21 7 78 
EIF[ ]	/* EndIf */
NPUSHB[ ]	/* 11 values pushed */
17 17 17 17 17 17 17 16 8 7 30 
CALL[ ]	/* CallFunction */";
};
width = 982;
}
);
note = uni0429;
unicode = 1065;
},
{
glyphname = uni042A;
layers = (
{
layerId = m01;
shapes = (
{
closed = 1;
nodes = (
(411,0,ls),
(466,0,o),
(564,22,o),
(638,72,o),
(681,153,o),
(681,218,qs),
(681,280,o),
(637,357,o),
(564,400,o),
(469,415,o),
(417,415,qs),
(271,415,l),
(271,707,l),
(14,707,l),
(14,628,l),
(184,628,l),
(184,0,l)
);
},
{
closed = 1;
nodes = (
(407,336,ls),
(442,336,o),
(509,329,o),
(561,304,o),
(593,255,o),
(593,212,qs),
(593,169,o),
(561,117,o),
(507,88,o),
(438,79,o),
(402,79,qs),
(271,79,l),
(271,336,l)
);
}
);
userData = {
assembly = "NPUSHB[ ]	/* 38 values pushed */
0 2 0 5 4 2 5 103 0 0 0 1 95 0 1 1 20 77 0 4 4 3 95 0 3 3 21 3 78 40 33 40 33 17 16 6 7 28 
CALL[ ]	/* CallFunction */";
};
width = 731;
}
);
note = uni042A;
unicode = 1066;
},
{
glyphname = uni042B;
layers = (
{
layerId = m01;
shapes = (
{
closed = 1;
nodes = (
(295,0,ls),
(350,0,o),
(448,22,o),
(521,72,o),
(563,153,o),
(563,218,qs),
(563,280,o),
(519,357,o),
(446,400,o),
(351,415,o),
(299,415,qs),
(174,415,l),
(174,707,l),
(87,707,l),
(87,0,l)
);
},
{
closed = 1;
nodes = (
(754,707,l),
(667,707,l),
(667,0,l),
(754,0,l)
);
},
{
closed = 1;
nodes = (
(289,336,ls),
(324,336,o),
(391,329,o),
(443,304,o),
(475,255,o),
(475,212,qs),
(475,169,o),
(443,117,o),
(389,88,o),
(320,79,o),
(284,79,qs),
(174,79,l),
(174,336,l)
);
}
);
userData = {
assembly = "NPUSHB[ ]	/* 44 values pushed */
0 1 0 6 5 1 6 103 3 1 0 0 20 77 0 5 5 2 96 7 4 2 2 2 21 2 78 15 15 31 29 21 19 15 18 15 18 18 40 33 16 8 7 26 
CALL[ ]	/* CallFunction */";
};
width = 841;
}
);
note = uni042B;
unicode = 1067;
},
{
glyphname = uni042C;
layers = (
{
layerId = m01;
shapes = (
{
closed = 1;
nodes = (
(312,0,ls),
(367,0,o),
(466,21,o),
(540,72,o),
(583,155,o),
(583,218,qs),
(582,280,o),
(538,357,o),
(466,400,o),
(371,415,o),
(318,415,qs),
(173,415,l),
(173,707,l),
(86,707,l),
(86,0,l)
);
},
{
closed = 1;
nodes = (
(308,336,ls),
(343,336,o),
(410,329,o),
(462,304,o),
(494,255,o),
(494,212,qs),
(494,167,o),
(462,117,o),
(409,89,o),
(341,79,o),
(304,79,qs),
(173,79,l),
(173,336,l)
);
}
);
userData = {
assembly = "NPUSHB[ ]	/* 32 values pushed */
0 1 0 4 3 1 4 103 0 0 0 20 77 0 3 3 2 96 0 2 2 21 2 78 40 33 40 33 16 5 7 27 
CALL[ ]	/* CallFunction */";
};
width = 633;
}
);
note = uni042C;
unicode = 1068;
},
{
glyphname = uni042D;
kernLeft = uni0417;
kernRight = uni0417;
layers = (
{
layerId = m01;
shapes = (
{
closed = 1;
nodes = (
(478,597,o),
(535,530,o),
(566,442,o),
(569,393,q),
(243,393,l),
(243,314,l),
(569,314,l),
(567,263,o),
(536,174,o),
(478,108,o),
(393,71,o),
(336,71,qs),
(261,71,o),
(158,133,o),
(143,185,q),
(48,185,l),
(71,97,o),
(216,-8,o),
(333,-8,qs),
(415,-8,o),
(538,45,o),
(619,139,o),
(660,270,o),
(660,348,qs),
(660,425,o),
(623,558,o),
(545,657,o),
(425,714,o),
(342,715,qs),
(292,715,o),
(200,693,o),
(125,646,o),
(70,573,o),
(58,522,q),
(146,522,l),
(161,574,o),
(263,636,o),
(338,636,qs),
(394,636,o)
);
}
);
userData = {
assembly = "NPUSHB[ ]	/* 69 values pushed */
0 1 0 7 0 1 7 128 0 4 6 5 6 4 5 128 0 7 0 6 4 7 6 103 8 1 0 0 2 97 0 2 2 27 77 0 5 5 3 97 0 3 3 28 3 78 1 0 34 33 32 31 27 25 23 22 20 18 10 8 4 3 0 38 1 38 9 7 22 
CALL[ ]	/* CallFunction */";
};
width = 708;
}
);
note = uni042D;
unicode = 1069;
},
{
glyphname = uni042E;
kernRight = uni0417;
layers = (
{
layerId = m01;
shapes = (
{
closed = 1;
nodes = (
(174,314,l),
(289,314,l),
(293,244,o),
(337,126,o),
(417,40,o),
(533,-8,o),
(610,-8,qs),
(692,-8,o),
(817,47,o),
(901,143,o),
(943,275,o),
(943,353,qs),
(943,431,o),
(901,564,o),
(817,660,o),
(692,715,o),
(610,715,qs),
(533,715,o),
(417,667,o),
(337,581,o),
(293,463,o),
(289,393,q),
(174,393,l),
(174,707,l),
(87,707,l),
(87,0,l),
(174,0,l)
);
},
{
closed = 1;
nodes = (
(764,591,o),
(824,514,o),
(853,411,o),
(853,353,qs),
(853,295,o),
(824,193,o),
(765,116,o),
(673,71,o),
(610,71,qs),
(547,71,o),
(458,116,o),
(402,194,o),
(376,296,o),
(376,353,qs),
(376,410,o),
(402,513,o),
(459,591,o),
(548,636,o),
(610,636,qs),
(673,636,o)
);
}
);
userData = {
assembly = "MPPEM[ ]	/* MeasurePixelPerEm */
PUSHB[ ]	/* 1 value pushed */
29 
LT[ ]	/* LessThan */
IF[ ]	/* If */
NPUSHB[ ]	/* 33 values pushed */
0 1 0 4 7 1 4 103 9 1 6 6 0 97 2 1 0 0 20 77 0 7 7 3 97 8 5 2 3 3 28 3 78 
ELSE[ ]	/* Else */
NPUSHB[ ]	/* 41 values pushed */
0 1 0 4 7 1 4 103 0 0 0 20 77 9 1 6 6 2 97 0 2 2 27 77 8 1 5 5 21 77 0 7 7 3 97 0 3 3 28 3 78 
EIF[ ]	/* EndIf */
NPUSHB[ ]	/* 22 values pushed */
28 27 0 0 38 36 27 46 28 46 0 26 0 26 20 40 36 17 17 10 7 27 
CALL[ ]	/* CallFunction */";
};
width = 991;
}
);
note = uni042E;
unicode = 1070;
},
{
glyphname = uni042F;
layers = (
{
layerId = m01;
shapes = (
{
closed = 1;
nodes = (
(486,265,l),
(486,0,l),
(573,0,l),
(573,707,l),
(311,707,ls),
(253,707,o),
(158,682,o),
(91,628,o),
(55,544,o),
(55,484,qs),
(55,440,o),
(79,371,o),
(121,321,o),
(178,289,o),
(211,281,q),
(60,0,l),
(157,0,l),
(298,265,l)
);
},
{
closed = 1;
nodes = (
(298,344,o),
(229,356,o),
(174,388,o),
(143,442,o),
(143,487,qs),
(143,558,o),
(225,628,o),
(310,628,qs),
(486,628,l),
(486,344,l),
(337,344,ls)
);
}
);
userData = {
assembly = "NPUSHB[ ]	/* 46 values pushed */
2 1 3 5 1 76 6 1 5 0 3 0 5 3 103 0 4 4 1 95 0 1 1 20 77 2 1 0 0 21 0 78 18 18 18 28 18 27 34 17 17 42 16 7 7 27 
CALL[ ]	/* CallFunction */";
};
width = 660;
}
);
note = uni042F;
unicode = 1071;
},
{
glyphname = uni0440;
kernLeft = uni0432;
layers = (
{
layerId = m01;
shapes = (
{
closed = 1;
nodes = (
(178,32,o),
(262,-6,o),
(322,-6,qs),
(383,-6,o),
(471,35,o),
(529,107,o),
(557,205,o),
(557,263,qs),
(557,320,o),
(529,419,o),
(472,492,o),
(387,533,o),
(326,533,qs),
(272,532,o),
(179,489,o),
(152,446,q),
(148,527,l),
(67,527,l),
(67,-190,l),
(152,-190,l),
(152,63,l)
);
},
{
closed = 1;
nodes = (
(188,120,o),
(169,158,qs),
(158,181,o),
(150,232,o),
(150,262,qs),
(150,288,o),
(158,337,o),
(169,360,qs),
(188,402,o),
(262,457,o),
(313,457,qs),
(356,457,o),
(417,426,o),
(455,374,o),
(472,303,o),
(472,263,qs),
(471,223,o),
(454,153,o),
(417,100,o),
(358,69,o),
(315,69,qs),
(261,69,o)
);
}
);
userData = {
assembly = "NPUSHB[ ]	/* 10 values pushed */
4 1 4 5 20 1 3 4 2 76 
MPPEM[ ]	/* MeasurePixelPerEm */
PUSHB[ ]	/* 1 value pushed */
16 
LT[ ]	/* LessThan */
IF[ ]	/* If */
NPUSHB[ ]	/* 28 values pushed */
0 5 5 1 97 2 1 1 1 22 77 6 1 4 4 3 97 0 3 3 30 77 0 0 0 24 0 78 
ELSE[ ]	/* Else */
MPPEM[ ]	/* MeasurePixelPerEm */
PUSHB[ ]	/* 1 value pushed */
46 
LT[ ]	/* LessThan */
IF[ ]	/* If */
NPUSHB[ ]	/* 34 values pushed */
0 5 5 1 97 2 1 1 1 22 77 6 1 4 4 3 97 0 3 3 30 77 0 0 0 1 97 2 1 1 1 22 0 78 
ELSE[ ]	/* Else */
NPUSHB[ ]	/* 32 values pushed */
0 5 5 2 97 0 2 2 29 77 6 1 4 4 3 97 0 3 3 30 77 0 0 0 1 95 0 1 1 22 0 78 
EIF[ ]	/* EndIf */
EIF[ ]	/* EndIf */
NPUSHB[ ]	/* 15 values pushed */
22 21 32 30 21 42 22 42 40 35 17 16 7 7 26 
CALL[ ]	/* CallFunction */";
};
width = 600;
}
);
note = uni0440;
unicode = 1088;
},
{
glyphname = O;
kernLeft = O;
kernRight = D;
layers = (
{
layerId = m01;
shapes = (
{
closed = 1;
nodes = (
(587,47,o),
(671,143,o),
(713,275,o),
(713,353,qs),
(713,431,o),
(671,564,o),
(587,660,o),
(463,715,o),
(381,715,qs),
(298,715,o),
(174,660,o),
(90,564,o),
(48,431,o),
(48,353,qs),
(48,275,o),
(90,143,o),
(174,47,o),
(298,-8,o),
(381,-8,qs),
(463,-8,o)
);
},
{
closed = 1;
nodes = (
(535,591,o),
(595,514,o),
(624,411,o),
(624,353,qs),
(624,295,o),
(595,193,o),
(536,116,o),
(444,71,o),
(381,71,qs),
(318,71,o),
(225,116,o),
(165,194,o),
(136,296,o),
(136,353,qs),
(136,410,o),
(166,513,o),
(226,591,o),
(318,636,o),
(381,636,qs),
(443,636,o)
);
}
);
userData = {
assembly = "NPUSHB[ ]	/* 42 values pushed */
5 1 2 2 1 97 0 1 1 46 77 0 3 3 0 97 4 1 0 0 47 0 78 21 20 1 0 31 29 20 39 21 39 11 9 0 19 1 19 6 8 22 
CALL[ ]	/* CallFunction */";
};
width = 761;
}
);
note = O;
unicode = 79;
},
{
glyphname = a;
kernLeft = abreve;
layers = (
{
layerId = m01;
shapes = (
{
closed = 1;
nodes = (
(490,0,l),
(490,285,ls),
(490,341,o),
(470,431,o),
(420,494,o),
(339,533,o),
(280,533,qs),
(246,533,o),
(178,517,o),
(120,484,o),
(78,433,o),
(71,397,q),
(162,397,l),
(174,429,o),
(238,457,o),
(280,457,qs),
(349,455,o),
(407,376,o),
(407,309,q),
(252,309,ls),
(211,309,o),
(138,294,o),
(82,256,o),
(49,195,o),
(49,150,qs),
(49,112,o),
(80,52,o),
(133,12,o),
(199,-6,o),
(236,-6,qs),
(259,-6,o),
(306,0,o),
(353,16,o),
(397,44,o),
(414,67,q),
(419,0,l)
);
},
{
closed = 1;
nodes = (
(407,212,ls),
(406,142,o),
(319,69,o),
(244,69,qs),
(223,69,o),
(183,79,o),
(152,101,o),
(134,133,o),
(134,156,qs),
(134,187,o),
(169,225,o),
(227,238,o),
(290,238,o),
(314,238,qs),
(407,238,l)
);
}
);
userData = {
assembly = "MPPEM[ ]	/* MeasurePixelPerEm */
PUSHB[ ]	/* 1 value pushed */
39 
LT[ ]	/* LessThan */
IF[ ]	/* If */
NPUSHB[ ]	/* 39 values pushed */
0 3 2 1 2 3 1 128 0 1 8 1 6 7 1 6 103 0 2 2 4 97 0 4 4 49 77 0 7 7 0 97 5 1 0 0 50 0 78 
ELSE[ ]	/* Else */
NPUSHB[ ]	/* 43 values pushed */
0 3 2 1 2 3 1 128 0 1 8 1 6 7 1 6 103 0 2 2 4 97 0 4 4 49 77 0 5 5 39 77 0 7 7 0 97 0 0 0 50 0 78 
EIF[ ]	/* EndIf */
NPUSHB[ ]	/* 17 values pushed */
38 36 47 45 36 50 38 50 21 36 18 34 40 36 9 8 28 
CALL[ ]	/* CallFunction */";
};
width = 555;
}
);
note = a;
unicode = 97;
},
{
glyphname = c;
kernLeft = d;
layers = (
{
layerId = m01;
shapes = (
{
closed = 1;
nodes = (
(403,12,o),
(463,51,o),
(504,110,o),
(512,151,q),
(424,151,l),
(418,128,o),
(392,96,o),
(357,77,o),
(316,69,o),
(295,69,qs),
(252,69,o),
(190,100,o),
(151,153,o),
(132,223,o),
(132,262,qs),
(132,299,o),
(150,370,o),
(189,424,o),
(254,457,o),
(297,457,qs),
(341,458,o),
(406,420,o),
(421,376,q),
(508,376,l),
(499,419,o),
(459,479,o),
(404,516,o),
(342,533,o),
(302,533,qs),
(235,533,o),
(141,490,o),
(79,417,o),
(47,318,o),
(47,262,qs),
(47,204,o),
(77,106,o),
(137,34,o),
(229,-6,o),
(292,-6,qs),
(331,-6,o)
);
}
);
userData = {
assembly = "NPUSHB[ ]	/* 56 values pushed */
0 2 3 5 3 2 5 128 0 5 4 3 5 4 126 0 3 3 1 97 0 1 1 49 77 0 4 4 0 97 6 1 0 0 50 0 78 1 0 35 34 30 28 20 18 16 15 11 9 0 39 1 39 7 8 22 
CALL[ ]	/* CallFunction */";
};
width = 553;
}
);
note = c;
unicode = 99;
},
{
glyphname = e;
kernLeft = d;
layers = (
{
layerId = m01;
shapes = (
{
closed = 1;
nodes = (
(525,241,o),
(526,259,o),
(526,268,qs),
(528,308,o),
(505,402,o),
(449,483,o),
(357,533,o),
(294,533,qs),
(232,533,o),
(142,493,o),
(80,421,o),
(47,322,o),
(47,263,qs),
(47,204,o),
(77,105,o),
(139,34,o),
(232,-6,o),
(295,-6,qs),
(332,-6,o),
(404,11,o),
(463,47,o),
(506,103,o),
(515,141,q),
(428,141,l),
(421,121,o),
(393,93,o),
(357,76,o),
(316,69,o),
(297,69,qs),
(258,69,o),
(199,94,o),
(159,138,o),
(136,197,o),
(133,232,q),
(524,232,l)
);
},
{
closed = 1;
nodes = (
(138,336,o),
(160,391,o),
(198,433,o),
(254,457,o),
(291,457,qs),
(358,457,o),
(438,373,o),
(440,306,q),
(135,306,l)
);
}
);
userData = {
assembly = "NPUSHB[ ]	/* 60 values pushed */
0 1 4 0 4 1 0 128 8 1 6 7 1 4 1 6 4 103 0 5 5 3 97 0 3 3 49 77 0 0 0 2 97 0 2 2 50 2 78 35 35 0 0 35 43 35 43 39 37 0 34 0 34 40 36 20 36 9 8 26 
CALL[ ]	/* CallFunction */";
};
width = 573;
}
);
note = e;
unicode = 101;
},
{
glyphname = f;
layers = (
{
layerId = m01;
shapes = (
{
closed = 1;
nodes = (
(203,452,l),
(344,452,l),
(344,527,l),
(203,527,l),
(203,573,ls),
(203,624,o),
(239,678,o),
(293,678,qs),
(344,678,l),
(344,753,l),
(284,753,ls),
(194,753,o),
(118,671,o),
(118,583,qs),
(118,527,l),
(32,527,l),
(32,452,l),
(118,452,l),
(118,0,l),
(203,0,l)
);
}
);
userData = {
assembly = "NPUSHB[ ]	/* 42 values pushed */
0 2 0 3 1 2 3 105 5 1 0 0 1 95 4 1 1 1 41 77 7 1 6 6 39 6 78 0 0 0 19 0 19 17 19 33 35 17 17 8 8 28 
CALL[ ]	/* CallFunction */";
};
width = 366;
}
);
note = f;
unicode = 102;
},
{
glyphname = g;
kernLeft = d;
layers = (
{
layerId = m01;
shapes = (
{
closed = 1;
nodes = (
(456,527,l),
(452,461,l),
(422,499,o),
(328,533,o),
(282,533,qs),
(221,533,o),
(133,491,o),
(75,418,o),
(47,319,o),
(47,262,qs),
(47,205,o),
(74,108,o),
(130,36,o),
(218,-5,o),
(278,-6,qs),
(330,-6,o),
(426,33,o),
(452,79,q),
(452,6,ls),
(452,-30,o),
(435,-91,o),
(399,-135,o),
(341,-160,o),
(301,-160,qs),
(280,-160,o),
(236,-152,o),
(198,-133,o),
(169,-102,o),
(163,-79,q),
(75,-79,l),
(83,-120,o),
(124,-179,o),
(183,-218,o),
(256,-236,o),
(296,-236,qs),
(417,-236,o),
(537,-108,o),
(537,4,qs),
(537,527,l)
);
},
{
closed = 1;
nodes = (
(403,417,o),
(423,388,qs),
(440,362,o),
(453,302,o),
(453,266,qs),
(453,237,o),
(441,178,o),
(427,153,qs),
(407,117,o),
(341,69,o),
(290,69,qs),
(246,69,o),
(186,100,o),
(148,152,o),
(132,219,o),
(132,263,qs),
(132,303,o),
(149,374,o),
(186,426,o),
(246,457,o),
(289,457,qs),
(337,457,o)
);
}
);
userData = {
assembly = "MPPEM[ ]	/* MeasurePixelPerEm */
PUSHB[ ]	/* 1 value pushed */
39 
LT[ ]	/* LessThan */
IF[ ]	/* If */
NPUSHB[ ]	/* 10 values pushed */
36 1 6 4 20 1 7 6 2 76 
ELSE[ ]	/* Else */
NPUSHB[ ]	/* 10 values pushed */
36 1 6 5 20 1 7 6 2 76 
EIF[ ]	/* EndIf */
MPPEM[ ]	/* MeasurePixelPerEm */
PUSHB[ ]	/* 1 value pushed */
16 
LT[ ]	/* LessThan */
IF[ ]	/* If */
NPUSHB[ ]	/* 41 values pushed */
0 1 3 2 3 1 2 128 8 1 6 6 4 97 5 1 4 4 49 77 0 7 7 3 97 0 3 3 50 77 0 2 2 0 97 0 0 0 51 0 78 
ELSE[ ]	/* Else */
MPPEM[ ]	/* MeasurePixelPerEm */
PUSHB[ ]	/* 1 value pushed */
39 
LT[ ]	/* LessThan */
IF[ ]	/* If */
NPUSHB[ ]	/* 38 values pushed */
0 1 3 2 3 1 2 128 0 2 0 0 2 0 101 8 1 6 6 4 97 5 1 4 4 49 77 0 7 7 3 97 0 3 3 50 3 78 
ELSE[ ]	/* Else */
NPUSHB[ ]	/* 42 values pushed */
0 1 3 2 3 1 2 128 0 2 0 0 2 0 101 0 5 5 41 77 8 1 6 6 4 97 0 4 4 49 77 0 7 7 3 97 0 3 3 50 3 78 
EIF[ ]	/* EndIf */
EIF[ ]	/* EndIf */
NPUSHB[ ]	/* 17 values pushed */
40 39 50 48 39 60 40 60 19 40 39 36 20 34 9 8 28 
CALL[ ]	/* CallFunction */";
};
width = 604;
}
);
note = g;
unicode = 103;
},
{
glyphname = j;
layers = (
{
layerId = m01;
shapes = (
{
closed = 1;
nodes = (
(80,689,o),
(80,664,qs),
(80,639,o),
(112,607,o),
(137,607,qs),
(161,607,o),
(195,639,o),
(195,664,qs),
(195,689,o),
(161,720,o),
(137,720,qs),
(112,720,o)
);
},
{
closed = 1;
nodes = (
(95,-1,ls),
(95,-52,o),
(59,-106,o),
(5,-106,qs),
(-31,-106,l),
(-31,-180,l),
(15,-180,ls),
(104,-180,o),
(180,-98,o),
(180,-10,qs),
(180,527,l),
(95,527,l)
);
}
);
userData = {
assembly = "MPPEM[ ]	/* MeasurePixelPerEm */
PUSHB[ ]	/* 1 value pushed */
16 
LT[ ]	/* LessThan */
IF[ ]	/* If */
NPUSHB[ ]	/* 28 values pushed */
0 1 1 0 97 5 1 0 0 48 77 6 1 4 4 41 77 0 3 3 2 98 0 2 2 43 2 78 
ELSE[ ]	/* Else */
NPUSHB[ ]	/* 25 values pushed */
0 3 0 2 3 2 102 0 1 1 0 97 5 1 0 0 48 77 6 1 4 4 41 4 78 
EIF[ ]	/* EndIf */
NPUSHB[ ]	/* 21 values pushed */
12 12 1 0 12 23 12 23 20 18 17 15 7 5 0 11 1 11 7 8 22 
CALL[ ]	/* CallFunction */";
};
width = 254;
}
);
note = j;
unicode = 106;
},
{
glyphname = o;
kernLeft = d;
layers = (
{
layerId = m01;
shapes = (
{
closed = 1;
nodes = (
(141,493,o),
(78,421,o),
(47,322,o),
(47,263,qs),
(47,204,o),
(78,105,o),
(141,34,o),
(234,-6,o),
(297,-6,qs),
(360,-6,o),
(454,34,o),
(517,105,o),
(548,204,o),
(548,263,qs),
(548,322,o),
(517,421,o),
(454,493,o),
(362,533,o),
(299,533,qs),
(237,533,o)
);
},
{
closed = 1;
nodes = (
(192,99,o),
(151,152,o),
(132,222,o),
(132,263,qs),
(132,303,o),
(151,374,o),
(192,427,o),
(254,457,o),
(297,457,qs),
(340,457,o),
(403,427,o),
(444,374,o),
(463,303,o),
(463,263,qs),
(463,222,o),
(444,152,o),
(403,99,o),
(340,69,o),
(297,69,qs),
(254,69,o)
);
}
);
userData = {
assembly = "NPUSHB[ ]	/* 42 values pushed */
0 3 3 0 97 4 1 0 0 49 77 5 1 2 2 1 97 0 1 1 50 1 78 21 20 1 0 31 29 20 39 21 39 11 9 0 19 1 19 6 8 22 
CALL[ ]	/* CallFunction */";
};
width = 595;
}
);
note = o;
unicode = 111;
},
{
glyphname = r;
kernLeft = r;
kernRight = r;
layers = (
{
layerId = m01;
shapes = (
{
closed = 1;
nodes = (
(152,257,ls),
(152,297,o),
(171,369,o),
(212,422,o),
(278,453,o),
(325,453,qs),
(356,453,l),
(356,533,l),
(329,533,ls),
(272,533,o),
(182,491,o),
(153,445,q),
(149,527,l),
(67,527,l),
(67,0,l),
(152,0,l)
);
}
);
userData = {
assembly = "PUSHB[ ]	/* 6 values pushed */
3 1 3 2 1 76 
MPPEM[ ]	/* MeasurePixelPerEm */
PUSHB[ ]	/* 1 value pushed */
39 
LT[ ]	/* LessThan */
IF[ ]	/* If */
NPUSHB[ ]	/* 18 values pushed */
0 2 2 0 97 1 1 0 0 41 77 4 1 3 3 39 3 78 
ELSE[ ]	/* Else */
NPUSHB[ ]	/* 22 values pushed */
0 0 0 41 77 0 2 2 1 97 0 1 1 49 77 4 1 3 3 39 3 78 
EIF[ ]	/* EndIf */
NPUSHB[ ]	/* 12 values pushed */
0 0 0 15 0 15 33 35 17 5 8 25 
CALL[ ]	/* CallFunction */";
};
width = 373;
}
);
note = r;
unicode = 114;
},
{
glyphname = t;
kernLeft = t;
layers = (
{
layerId = m01;
shapes = (
{
closed = 1;
nodes = (
(115,684,l),
(115,527,l),
(29,527,l),
(29,452,l),
(115,452,l),
(115,170,ls),
(115,82,o),
(191,0,o),
(281,0,qs),
(338,0,l),
(338,74,l),
(299,74,ls),
(239,74,o),
(200,125,o),
(200,179,qs),
(200,452,l),
(341,452,l),
(341,527,l),
(200,527,l),
(200,684,l)
);
}
);
userData = {
assembly = "MPPEM[ ]	/* MeasurePixelPerEm */
PUSHB[ ]	/* 1 value pushed */
22 
LT[ ]	/* LessThan */
IF[ ]	/* If */
NPUSHB[ ]	/* 28 values pushed */
0 6 6 38 77 4 1 1 1 0 95 5 1 0 0 41 77 0 2 2 3 98 0 3 3 39 3 78 
ELSE[ ]	/* Else */
NPUSHB[ ]	/* 28 values pushed */
0 6 0 6 133 4 1 1 1 0 95 5 1 0 0 41 77 0 2 2 3 98 0 3 3 39 3 78 
EIF[ ]	/* EndIf */
NPUSHB[ ]	/* 10 values pushed */
17 17 19 33 35 17 16 7 8 29 
CALL[ ]	/* CallFunction */";
};
width = 370;
}
);
note = t;
unicode = 116;
},
{
glyphname = y2_alt;
layers = (
{
layerId = m01;
shapes = (
{
closed = 1;
nodes = (
(117,527,l),
(17,527,l),
(248,-17,l),
(234,-50,o),
(207,-98,o),
(170,-130,o),
(120,-145,o),
(84,-145,q),
(84,-226,l),
(102,-226,ls),
(145,-226,o),
(213,-209,o),
(250,-176,qs),
(275,-154,o),
(316,-82,o),
(348,-1,o),
(377,80,o),
(388,112,qs),
(537,527,l),
(441,527,l),
(295,84,l)
);
}
);
userData = {
assembly = "PUSHB[ ]	/* 7 values pushed */
20 17 2 2 0 1 76 
MPPEM[ ]	/* MeasurePixelPerEm */
PUSHB[ ]	/* 1 value pushed */
16 
LT[ ]	/* LessThan */
IF[ ]	/* If */
NPUSHB[ ]	/* 17 values pushed */
3 1 0 0 22 77 0 2 2 1 98 0 1 1 31 1 78 
ELSE[ ]	/* Else */
NPUSHB[ ]	/* 14 values pushed */
0 2 0 1 2 1 102 3 1 0 0 22 0 78 
EIF[ ]	/* EndIf */
PUSHB[ ]	/* 7 values pushed */
21 17 40 16 4 7 26 
CALL[ ]	/* CallFunction */";
};
width = 549;
}
);
note = y2_alt;
},
{
glyphname = uni0443;
layers = (
{
layerId = m01;
shapes = (
{
closed = 1;
nodes = (
(117,527,l),
(17,527,l),
(248,-17,l),
(234,-50,o),
(207,-98,o),
(170,-130,o),
(120,-145,o),
(84,-145,q),
(84,-226,l),
(102,-226,ls),
(145,-226,o),
(213,-209,o),
(250,-176,qs),
(275,-154,o),
(316,-82,o),
(349,-1,o),
(376,80,o),
(388,112,qs),
(537,527,l),
(441,527,l),
(295,83,l)
);
}
);
userData = {
assembly = "PUSHB[ ]	/* 7 values pushed */
20 17 2 2 0 1 76 
MPPEM[ ]	/* MeasurePixelPerEm */
PUSHB[ ]	/* 1 value pushed */
16 
LT[ ]	/* LessThan */
IF[ ]	/* If */
NPUSHB[ ]	/* 17 values pushed */
3 1 0 0 22 77 0 2 2 1 98 0 1 1 31 1 78 
ELSE[ ]	/* Else */
NPUSHB[ ]	/* 14 values pushed */
0 2 0 1 2 1 102 3 1 0 0 22 0 78 
EIF[ ]	/* EndIf */
PUSHB[ ]	/* 7 values pushed */
21 17 40 16 4 7 26 
CALL[ ]	/* CallFunction */";
};
width = 549;
}
);
note = uni0443;
unicode = 1091;
},
{
glyphname = uni0451;
kernLeft = uni0444;
layers = (
{
layerId = m01;
shapes = (
{
closed = 1;
nodes = (
(125,676,o),
(125,651,qs),
(125,626,o),
(158,595,o),
(182,595,qs),
(207,595,o),
(240,626,o),
(240,651,qs),
(240,676,o),
(207,707,o),
(182,707,qs),
(158,707,o)
);
},
{
closed = 1;
nodes = (
(351,676,o),
(351,651,qs),
(351,626,o),
(383,595,o),
(407,595,qs),
(432,595,o),
(465,626,o),
(465,651,qs),
(465,676,o),
(432,707,o),
(407,707,qs),
(383,707,o)
);
},
{
closed = 1;
nodes = (
(525,241,o),
(526,259,o),
(526,268,qs),
(528,308,o),
(505,402,o),
(449,483,o),
(357,533,o),
(294,533,qs),
(232,533,o),
(142,493,o),
(80,421,o),
(47,322,o),
(47,263,qs),
(47,204,o),
(77,105,o),
(139,34,o),
(232,-6,o),
(295,-6,qs),
(332,-6,o),
(404,11,o),
(463,47,o),
(506,103,o),
(515,141,q),
(428,141,l),
(421,121,o),
(393,93,o),
(357,76,o),
(316,69,o),
(297,69,qs),
(258,69,o),
(199,94,o),
(159,138,o),
(136,197,o),
(133,232,q),
(524,232,l)
);
},
{
closed = 1;
nodes = (
(138,336,o),
(160,391,o),
(198,433,o),
(254,457,o),
(291,457,qs),
(358,457,o),
(438,373,o),
(440,306,q),
(135,306,l)
);
}
);
userData = {
assembly = "NPUSHB[ ]	/* 94 values pushed */
0 5 8 4 8 5 4 128 14 1 10 13 1 8 5 10 8 103 3 1 1 1 0 97 12 2 11 3 0 0 20 77 0 9 9 7 97 0 7 7 29 77 0 4 4 6 97 0 6 6 30 6 78 59 59 24 24 13 12 1 0 59 67 59 67 63 61 24 58 24 58 51 49 41 39 35 34 30 28 19 17 12 23 13 23 7 5 0 11 1 11 15 7 22 
CALL[ ]	/* CallFunction */";
};
width = 573;
}
);
note = uni0451;
unicode = 1105;
},
{
glyphname = uni0437;
kernLeft = uni0444;
layers = (
{
layerId = m01;
shapes = (
{
closed = 1;
nodes = (
(449,356,o),
(449,392,qs),
(449,432,o),
(415,486,o),
(361,519,o),
(292,533,o),
(257,533,qs),
(222,533,o),
(151,518,o),
(93,485,o),
(56,430,o),
(55,390,q),
(139,390,l),
(142,411,o),
(166,437,o),
(200,452,o),
(240,457,o),
(258,457,qs),
(277,457,o),
(316,450,o),
(347,433,o),
(366,405,o),
(366,384,qs),
(365,357,o),
(344,328,o),
(311,310,o),
(271,303,o),
(252,303,qs),
(175,303,l),
(175,228,l),
(269,228,ls),
(288,228,o),
(332,225,o),
(349,217,qs),
(368,208,o),
(386,173,o),
(386,152,qs),
(386,126,o),
(362,93,o),
(324,75,o),
(279,69,o),
(258,69,qs),
(240,69,o),
(195,76,o),
(154,93,o),
(124,120,o),
(120,141,q),
(37,141,l),
(39,98,o),
(80,42,o),
(142,8,o),
(219,-6,o),
(257,-6,qs),
(297,-6,o),
(373,12,o),
(433,50,o),
(470,110,o),
(471,152,qs),
(471,199,o),
(431,267,o),
(380,283,q),
(415,300,o)
);
}
);
userData = {
assembly = "NPUSHB[ ]	/* 56 values pushed */
0 6 5 4 5 6 4 128 0 1 3 2 3 1 2 128 0 4 0 3 1 4 3 103 0 5 5 7 97 0 7 7 29 77 0 2 2 0 97 0 0 0 30 0 78 36 20 40 33 56 36 20 39 8 7 30 
CALL[ ]	/* CallFunction */";
};
width = 514;
}
);
note = uni0437;
unicode = 1079;
},
{
glyphname = uni044D;
kernLeft = uni0444;
layers = (
{
layerId = m01;
shapes = (
{
closed = 1;
nodes = (
(187,224,l),
(418,224,l),
(417,192,o),
(397,136,o),
(360,94,o),
(303,69,o),
(266,69,qs),
(245,69,o),
(201,77,o),
(162,96,o),
(133,128,o),
(127,151,q),
(39,151,l),
(47,110,o),
(89,51,o),
(149,12,o),
(223,-6,o),
(262,-6,qs),
(325,-6,o),
(416,33,o),
(476,104,o),
(505,203,o),
(505,263,qs),
(505,321,o),
(477,420,o),
(419,492,o),
(330,533,o),
(265,533,qs),
(223,533,o),
(144,512,o),
(110,486,qs),
(86,466,o),
(52,412,o),
(44,376,q),
(130,376,l),
(136,399,o),
(164,430,o),
(201,449,o),
(244,457,o),
(266,457,qs),
(339,456,o),
(414,368,o),
(419,298,q),
(187,298,l)
);
}
);
userData = {
assembly = "NPUSHB[ ]	/* 62 values pushed */
0 1 0 7 0 1 7 128 0 4 6 5 6 4 5 128 8 1 7 0 6 4 7 6 103 0 0 0 2 97 0 2 2 29 77 0 5 5 3 97 0 3 3 30 3 78 0 0 0 43 0 43 20 36 20 40 37 20 34 9 7 29 
CALL[ ]	/* CallFunction */";
};
width = 548;
}
);
note = uni044D;
unicode = 1101;
},
{
glyphname = C;
kernLeft = O;
kernRight = D;
layers = (
{
layerId = m01;
shapes = (
{
closed = 1;
nodes = (
(546,574,o),
(561,522,q),
(649,522,l),
(639,565,o),
(595,636,o),
(526,687,o),
(433,715,o),
(375,715,qs),
(292,715,o),
(170,660,o),
(88,563,o),
(48,431,o),
(48,353,qs),
(48,274,o),
(88,142,o),
(169,46,o),
(291,-8,o),
(373,-8,qs),
(491,-8,o),
(639,97,o),
(662,185,q),
(567,185,l),
(552,133,o),
(450,71,o),
(375,71,qs),
(313,71,o),
(223,116,o),
(165,193,o),
(137,297,o),
(137,356,qs),
(137,411,o),
(163,512,o),
(220,590,o),
(309,636,o),
(372,636,qs),
(447,636,o)
);
}
);
userData = {
assembly = "NPUSHB[ ]	/* 56 values pushed */
0 5 0 2 0 5 2 128 0 2 1 0 2 1 126 6 1 0 0 4 97 0 4 4 46 77 0 1 1 3 97 0 3 3 47 3 78 1 0 33 32 28 26 18 16 14 13 11 9 0 35 1 35 7 8 22 
CALL[ ]	/* CallFunction */";
};
width = 704;
}
);
note = C;
unicode = 67;
},
{
glyphname = S;
kernLeft = O;
kernRight = D;
layers = (
{
layerId = m01;
shapes = (
{
closed = 1;
nodes = (
(414,625,o),
(456,599,o),
(485,557,o),
(489,526,q),
(574,526,l),
(571,589,o),
(511,669,o),
(466,689,qs),
(437,703,o),
(372,714,o),
(332,715,qs),
(283,715,o),
(196,695,o),
(126,649,o),
(82,573,o),
(82,517,qs),
(82,457,o),
(136,378,o),
(176,359,qs),
(201,346,o),
(261,327,o),
(323,313,o),
(385,301,o),
(413,292,qs),
(455,280,o),
(505,234,o),
(505,187,qs),
(505,156,o),
(479,112,o),
(435,84,o),
(378,71,o),
(348,71,qs),
(317,71,o),
(254,81,o),
(200,107,o),
(158,151,o),
(148,185,q),
(57,185,l),
(68,132,o),
(122,58,o),
(198,12,o),
(291,-8,o),
(342,-8,qs),
(393,-8,o),
(484,15,o),
(553,65,o),
(594,143,o),
(594,203,qs),
(594,267,o),
(521,345,o),
(460,366,qs),
(434,375,o),
(379,387,o),
(322,399,o),
(268,413,o),
(244,423,qs),
(214,436,o),
(172,485,o),
(172,525,qs),
(172,558,o),
(201,601,o),
(247,626,o),
(304,636,o),
(332,636,qs),
(361,636,o)
);
}
);
userData = {
assembly = "NPUSHB[ ]	/* 56 values pushed */
0 5 0 2 0 5 2 128 0 2 3 0 2 3 126 6 1 0 0 4 97 0 4 4 46 77 0 3 3 1 97 0 1 1 47 1 78 1 0 60 59 54 52 33 31 27 26 22 20 0 64 1 64 7 8 22 
CALL[ ]	/* CallFunction */";
};
width = 652;
}
);
note = S;
unicode = 83;
},
{
glyphname = uni0421;
kernLeft = uni0417;
kernRight = uni0417;
layers = (
{
layerId = m01;
shapes = (
{
closed = 1;
nodes = (
(546,574,o),
(561,522,q),
(649,522,l),
(639,565,o),
(595,636,o),
(526,687,o),
(433,715,o),
(375,715,qs),
(292,715,o),
(170,660,o),
(88,563,o),
(48,431,o),
(48,353,qs),
(48,274,o),
(88,142,o),
(169,46,o),
(291,-8,o),
(373,-8,qs),
(491,-8,o),
(639,97,o),
(662,185,q),
(567,185,l),
(552,133,o),
(450,71,o),
(375,71,qs),
(313,71,o),
(223,116,o),
(165,193,o),
(137,297,o),
(137,356,qs),
(137,411,o),
(163,512,o),
(220,590,o),
(309,636,o),
(372,636,qs),
(447,636,o)
);
}
);
userData = {
assembly = "NPUSHB[ ]	/* 56 values pushed */
0 5 0 2 0 5 2 128 0 2 1 0 2 1 126 6 1 0 0 4 97 0 4 4 27 77 0 1 1 3 97 0 3 3 28 3 78 1 0 33 32 28 26 18 16 14 13 11 9 0 35 1 35 7 7 22 
CALL[ ]	/* CallFunction */";
};
width = 710;
}
);
note = uni0421;
unicode = 1057;
},
{
glyphname = G;
kernLeft = O;
kernRight = D;
layers = (
{
layerId = m01;
shapes = (
{
closed = 1;
nodes = (
(544,574,o),
(559,522,q),
(654,522,l),
(631,610,o),
(487,715,o),
(370,715,qs),
(287,715,o),
(166,659,o),
(87,562,o),
(48,429,o),
(48,351,qs),
(48,273,o),
(87,141,o),
(168,46,o),
(289,-8,o),
(372,-8,qs),
(441,-8,o),
(550,36,o),
(590,74,qs),
(611,95,o),
(642,148,o),
(662,207,o),
(672,269,o),
(672,298,qs),
(672,357,l),
(357,357,l),
(357,278,l),
(589,278,l),
(589,233,o),
(563,159,o),
(532,127,qs),
(479,71,o),
(373,71,qs),
(311,71,o),
(222,115,o),
(165,192,o),
(137,294,o),
(137,353,qs),
(137,412,o),
(163,515,o),
(219,592,o),
(307,636,o),
(369,636,qs),
(444,636,o)
);
}
);
userData = {
assembly = "NPUSHB[ ]	/* 59 values pushed */
0 6 0 3 0 6 3 128 0 3 0 2 1 3 2 103 7 1 0 0 5 97 0 5 5 46 77 0 1 1 4 97 0 4 4 47 4 78 1 0 41 40 38 36 28 26 18 17 16 15 11 9 0 43 1 43 8 8 22 
CALL[ ]	/* CallFunction */";
};
width = 720;
}
);
note = G;
unicode = 71;
},
{
glyphname = uni041E;
kernLeft = uni0417;
kernRight = uni0417;
layers = (
{
layerId = m01;
shapes = (
{
closed = 1;
nodes = (
(587,47,o),
(671,143,o),
(713,275,o),
(713,353,qs),
(713,431,o),
(671,564,o),
(587,660,o),
(463,715,o),
(381,715,qs),
(298,715,o),
(174,660,o),
(90,564,o),
(48,431,o),
(48,353,qs),
(48,275,o),
(90,143,o),
(174,47,o),
(298,-8,o),
(381,-8,qs),
(463,-8,o)
);
},
{
closed = 1;
nodes = (
(535,591,o),
(595,514,o),
(624,411,o),
(624,353,qs),
(624,295,o),
(595,193,o),
(536,116,o),
(444,71,o),
(381,71,qs),
(318,71,o),
(225,116,o),
(165,194,o),
(136,296,o),
(136,353,qs),
(136,410,o),
(166,513,o),
(226,591,o),
(318,636,o),
(381,636,qs),
(443,636,o)
);
}
);
userData = {
assembly = "NPUSHB[ ]	/* 42 values pushed */
5 1 2 2 1 97 0 1 1 27 77 0 3 3 0 97 4 1 0 0 28 0 78 21 20 1 0 31 29 20 39 21 39 11 9 0 19 1 19 6 7 22 
CALL[ ]	/* CallFunction */";
};
width = 761;
}
);
note = uni041E;
unicode = 1054;
},
{
glyphname = Q;
kernLeft = O;
kernRight = D;
layers = (
{
layerId = m01;
shapes = (
{
closed = 1;
nodes = (
(698,-74,l),
(597,66,l),
(654,115,o),
(713,262,o),
(713,353,qs),
(713,431,o),
(671,564,o),
(587,660,o),
(463,715,o),
(381,715,qs),
(298,715,o),
(174,660,o),
(90,564,o),
(48,431,o),
(48,353,qs),
(48,275,o),
(90,143,o),
(174,47,o),
(298,-8,o),
(381,-8,qs),
(462,-8,o),
(524,19,q),
(630,-126,l)
);
},
{
closed = 1;
nodes = (
(535,591,o),
(595,514,o),
(624,411,o),
(624,353,qs),
(624,295,o),
(595,193,o),
(536,116,o),
(444,71,o),
(381,71,qs),
(318,71,o),
(225,116,o),
(165,194,o),
(136,296,o),
(136,353,qs),
(136,410,o),
(166,513,o),
(226,591,o),
(318,636,o),
(381,636,qs),
(443,636,o)
);
}
);
userData = {
assembly = "NPUSHB[ ]	/* 46 values pushed */
20 1 0 3 1 76 22 21 2 0 73 4 1 2 2 1 97 0 1 1 46 77 0 3 3 0 97 0 0 0 47 0 78 24 23 34 32 23 42 24 42 40 33 5 8 24 
CALL[ ]	/* CallFunction */";
};
width = 761;
}
);
note = Q;
unicode = 81;
},
{
glyphname = J;
layers = (
{
layerId = m01;
shapes = (
{
closed = 1;
nodes = (
(48,90,o),
(162,-8,o),
(266,-8,qs),
(324,-8,o),
(404,29,o),
(454,96,o),
(476,188,o),
(476,244,qs),
(476,707,l),
(389,707,l),
(389,226,ls),
(389,192,o),
(377,135,o),
(348,94,o),
(301,71,o),
(266,71,qs),
(200,72,o),
(136,138,o),
(130,195,q),
(42,195,l)
);
}
);
userData = {
assembly = "NPUSHB[ ]	/* 37 values pushed */
4 1 3 1 0 1 3 0 128 0 1 1 38 77 0 0 0 2 97 0 2 2 47 2 78 0 0 0 19 0 19 37 21 34 5 8 25 
CALL[ ]	/* CallFunction */";
};
width = 558;
}
);
note = J;
unicode = 74;
},
{
glyphname = K_alt;
kernRight = K_alt;
layers = (
{
layerId = m01;
shapes = (
{
closed = 1;
nodes = (
(174,249,l),
(252,332,l),
(513,0,l),
(616,0,l),
(315,388,l),
(614,707,l),
(513,707,l),
(174,342,l),
(174,707,l),
(87,707,l),
(87,0,l),
(174,0,l)
);
}
);
userData = {
assembly = "NPUSHB[ ]	/* 35 values pushed */
10 9 6 3 4 2 0 1 76 1 1 0 0 20 77 4 3 2 2 2 21 2 78 0 0 0 11 0 11 18 18 17 5 7 25 
CALL[ ]	/* CallFunction */";
};
width = 630;
}
);
note = K_alt;
},
{
glyphname = K;
kernRight = K_alt;
layers = (
{
layerId = m01;
shapes = (
{
closed = 1;
nodes = (
(174,302,l),
(286,302,l),
(508,0,l),
(611,0,l),
(355,356,l),
(609,707,l),
(509,707,l),
(278,381,l),
(174,381,l),
(174,707,l),
(87,707,l),
(87,0,l),
(174,0,l)
);
}
);
userData = {
assembly = "NPUSHB[ ]	/* 42 values pushed */
7 1 4 1 1 76 0 1 0 4 3 1 4 103 2 1 0 0 38 77 6 5 2 3 3 39 3 78 0 0 0 12 0 12 17 18 17 17 17 7 8 27 
CALL[ ]	/* CallFunction */";
};
width = 625;
}
);
note = K;
unicode = 75;
},
{
glyphname = k_alt;
layers = (
{
layerId = m01;
shapes = (
{
closed = 1;
nodes = (
(152,176,l),
(228,254,l),
(414,0,l),
(513,0,l),
(289,309,l),
(501,527,l),
(402,527,l),
(152,270,l),
(152,707,l),
(67,707,l),
(67,0,l),
(152,0,l)
);
}
);
userData = {
assembly = "NPUSHB[ ]	/* 39 values pushed */
10 9 6 3 4 2 1 1 76 0 0 0 20 77 0 1 1 22 77 4 3 2 2 2 21 2 78 0 0 0 11 0 11 18 18 17 5 7 25 
CALL[ ]	/* CallFunction */";
};
width = 527;
}
);
note = k_alt;
},
{
glyphname = k;
layers = (
{
layerId = m01;
shapes = (
{
closed = 1;
nodes = (
(152,226,l),
(254,226,l),
(413,0,l),
(513,0,l),
(322,276,l),
(498,527,l),
(402,527,l),
(244,300,l),
(152,300,l),
(152,707,l),
(67,707,l),
(67,0,l),
(152,0,l)
);
}
);
userData = {
assembly = "NPUSHB[ ]	/* 46 values pushed */
7 1 4 1 1 76 0 1 0 4 3 1 4 103 0 0 0 38 77 0 2 2 41 77 6 5 2 3 3 39 3 78 0 0 0 12 0 12 17 18 17 17 17 7 8 27 
CALL[ ]	/* CallFunction */";
};
width = 520;
}
);
note = k;
unicode = 107;
},
{
glyphname = i_alt;
layers = (
{
layerId = m01;
shapes = (
{
closed = 1;
nodes = (
(83,689,o),
(83,664,qs),
(83,639,o),
(116,607,o),
(140,607,qs),
(165,607,o),
(198,639,o),
(198,664,qs),
(198,689,o),
(165,720,o),
(140,720,qs),
(116,720,o)
);
},
{
closed = 1;
nodes = (
(183,527,l),
(12,527,l),
(12,452,l),
(98,452,l),
(98,0,l),
(183,0,l)
);
}
);
userData = {
assembly = "NPUSHB[ ]	/* 49 values pushed */
0 1 1 0 97 5 1 0 0 27 77 0 2 2 3 95 0 3 3 22 77 6 1 4 4 21 4 78 12 12 1 0 12 17 12 17 16 15 14 13 7 5 0 11 1 11 7 7 22 
CALL[ ]	/* CallFunction */";
};
width = 257;
}
);
note = i_alt;
},
{
glyphname = j_alt;
layers = (
{
layerId = m01;
shapes = (
{
closed = 1;
nodes = (
(93,689,o),
(93,664,qs),
(93,639,o),
(125,607,o),
(150,607,qs),
(174,607,o),
(208,639,o),
(208,664,qs),
(208,689,o),
(174,720,o),
(150,720,qs),
(125,720,o)
);
},
{
closed = 1;
nodes = (
(21,527,l),
(21,452,l),
(108,452,l),
(108,-1,ls),
(108,-52,o),
(72,-106,o),
(18,-106,qs),
(-18,-106,l),
(-18,-180,l),
(28,-180,ls),
(117,-180,o),
(193,-98,o),
(193,-10,qs),
(193,527,l)
);
}
);
userData = {
assembly = "MPPEM[ ]	/* MeasurePixelPerEm */
PUSHB[ ]	/* 1 value pushed */
16 
LT[ ]	/* LessThan */
IF[ ]	/* If */
NPUSHB[ ]	/* 32 values pushed */
0 1 1 0 97 6 1 0 0 27 77 0 4 4 5 95 0 5 5 22 77 0 3 3 2 97 0 2 2 24 2 78 
ELSE[ ]	/* Else */
NPUSHB[ ]	/* 29 values pushed */
0 3 0 2 3 2 101 0 1 1 0 97 6 1 0 0 27 77 0 4 4 5 95 0 5 5 22 4 78 
EIF[ ]	/* EndIf */
NPUSHB[ ]	/* 19 values pushed */
1 0 25 24 23 22 19 17 16 14 7 5 0 11 1 11 7 7 22 
CALL[ ]	/* CallFunction */";
};
width = 267;
}
);
note = j_alt;
},
{
glyphname = s_alt;
kernLeft = d;
layers = (
{
layerId = m01;
shapes = (
{
closed = 1;
nodes = (
(340,449,o),
(373,434,o),
(399,407,o),
(401,391,q),
(479,391,l),
(476,418,o),
(450,471,o),
(398,512,o),
(329,532,o),
(280,533,qs),
(240,533,o),
(166,520,o),
(103,487,o),
(62,427,o),
(61,382,qs),
(61,338,o),
(92,284,o),
(119,268,qs),
(140,255,o),
(197,239,o),
(258,228,o),
(318,219,o),
(342,214,qs),
(376,207,o),
(413,177,o),
(413,144,qs),
(413,119,o),
(383,89,o),
(341,74,o),
(298,70,o),
(275,70,qs),
(261,70,o),
(218,75,o),
(174,91,o),
(137,120,o),
(129,143,q),
(43,143,l),
(49,100,o),
(94,44,o),
(158,10,o),
(234,-6,o),
(280,-6,qs),
(321,-6,o),
(397,9,o),
(434,31,qs),
(462,50,o),
(498,107,o),
(498,156,qs),
(498,202,o),
(454,268,o),
(405,282,qs),
(392,285,o),
(349,293,o),
(299,300,o),
(250,308,o),
(232,312,qs),
(193,321,o),
(146,353,o),
(145,382,qs),
(145,407,o),
(171,437,o),
(210,452,o),
(254,457,o),
(271,457,qs),
(294,457,o)
);
}
);
userData = {
assembly = "NPUSHB[ ]	/* 56 values pushed */
0 5 0 2 0 5 2 128 0 2 3 0 2 3 126 6 1 0 0 4 97 0 4 4 29 77 0 3 3 1 97 0 1 1 30 1 78 1 0 60 59 55 53 34 32 28 27 23 21 0 64 1 64 7 7 22 
CALL[ ]	/* CallFunction */";
};
width = 542;
}
);
note = s_alt;
},
{
glyphname = s;
kernLeft = d;
layers = (
{
layerId = m01;
shapes = (
{
closed = 1;
nodes = (
(365,420,o),
(372,391,q),
(451,391,l),
(447,422,o),
(415,478,o),
(386,498,qs),
(338,533,o),
(257,533,qs),
(219,533,o),
(151,519,o),
(121,501,qs),
(93,483,o),
(57,426,o),
(55,382,qs),
(55,340,o),
(89,282,o),
(117,265,qs),
(138,252,o),
(186,237,o),
(237,226,o),
(288,217,o),
(312,212,qs),
(346,205,o),
(385,175,o),
(385,145,qs),
(385,118,o),
(359,88,o),
(321,73,o),
(279,69,o),
(263,69,qs),
(241,69,o),
(206,75,o),
(167,91,o),
(133,119,o),
(125,143,q),
(39,143,l),
(45,100,o),
(88,43,o),
(149,8,o),
(223,-6,o),
(259,-6,qs),
(296,-6,o),
(371,8,o),
(430,42,o),
(469,101,o),
(470,149,qs),
(470,248,o),
(374,278,qs),
(362,282,o),
(327,290,o),
(288,297,o),
(248,304,o),
(231,308,qs),
(190,316,o),
(139,350,o),
(139,384,qs),
(140,408,o),
(165,437,o),
(200,452,o),
(237,457,o),
(255,457,qs),
(303,456,o)
);
}
);
userData = {
assembly = "NPUSHB[ ]	/* 56 values pushed */
0 5 0 2 0 5 2 128 0 2 3 0 2 3 126 6 1 0 0 4 97 0 4 4 49 77 0 3 3 1 97 0 1 1 50 1 78 1 0 59 58 54 52 32 30 26 25 21 19 0 61 1 61 7 8 22 
CALL[ ]	/* CallFunction */";
};
width = 509;
}
);
note = s;
unicode = 115;
},
{
glyphname = c_alt;
kernLeft = d;
layers = (
{
layerId = m01;
shapes = (
{
closed = 1;
nodes = (
(395,9,o),
(451,42,o),
(493,91,o),
(504,126,q),
(413,126,l),
(396,94,o),
(328,69,o),
(293,69,qs),
(250,69,o),
(188,101,o),
(147,154,o),
(128,224,o),
(128,263,qs),
(128,302,o),
(147,372,o),
(187,424,o),
(252,457,o),
(292,457,qs),
(326,459,o),
(396,429,o),
(413,394,q),
(501,394,l),
(480,465,o),
(375,533,o),
(297,533,qs),
(232,533,o),
(138,492,o),
(75,420,o),
(43,321,o),
(43,263,qs),
(43,204,o),
(73,106,o),
(136,34,o),
(229,-6,o),
(292,-6,qs),
(328,-6,o)
);
}
);
userData = {
assembly = "NPUSHB[ ]	/* 56 values pushed */
0 2 3 5 3 2 5 128 0 5 4 3 5 4 126 0 3 3 1 97 0 1 1 29 77 0 4 4 0 97 6 1 0 0 30 0 78 1 0 31 30 28 26 18 16 14 13 11 9 0 35 1 35 7 7 22 
CALL[ ]	/* CallFunction */";
};
width = 547;
}
);
note = c_alt;
},
{
glyphname = copyright;
layers = (
{
layerId = m01;
shapes = (
{
closed = 1;
nodes = (
(226,656,o),
(119,547,o),
(59,392,o),
(59,296,qs),
(59,199,o),
(117,44,o),
(224,-64,o),
(373,-122,o),
(463,-122,qs),
(553,-122,o),
(703,-64,o),
(809,44,o),
(868,199,o),
(868,296,qs),
(868,392,o),
(808,547,o),
(701,656,o),
(552,715,o),
(463,715,qs),
(374,715,o)
);
},
{
closed = 1;
nodes = (
(653,593,o),
(739,503,o),
(787,375,o),
(787,296,qs),
(787,216,o),
(740,89,o),
(655,0,o),
(535,-48,o),
(463,-48,qs),
(391,-48,o),
(271,0,o),
(186,89,o),
(139,216,o),
(139,296,qs),
(139,375,o),
(187,503,o),
(273,593,o),
(392,641,o),
(463,641,qs),
(534,641,o)
);
},
{
closed = 1;
nodes = (
(635,149,o),
(649,218,q),
(566,218,l),
(557,183,o),
(506,156,o),
(471,156,qs),
(440,156,o),
(397,179,o),
(369,217,o),
(356,268,o),
(356,297,qs),
(356,325,o),
(369,376,o),
(396,414,o),
(439,437,o),
(470,437,qs),
(505,437,o),
(555,410,o),
(564,375,q),
(645,375,l),
(631,447,o),
(541,510,o),
(469,510,qs),
(421,510,o),
(348,478,o),
(300,421,o),
(275,343,o),
(275,297,qs),
(275,250,o),
(299,172,o),
(348,115,o),
(421,83,o),
(470,83,qs),
(540,83,o)
);
}
);
userData = {
assembly = "PUSHB[ ]	/* 2 values pushed */
6 100 
WCVTP[ ]	/* WriteCVTInPixels */
NPUSHB[ ]	/* 93 values pushed */
0 6 7 9 7 6 9 128 0 9 8 7 9 8 126 10 1 0 11 1 2 5 0 2 105 0 5 0 7 6 5 7 105 0 8 12 1 4 3 8 4 105 0 3 1 1 3 89 0 3 3 1 97 0 1 3 1 81 41 40 21 20 1 0 71 70 68 66 58 56 54 53 51 49 40 73 41 73 31 29 20 39 21 39 11 9 0 19 1 19 13 8 22 
CALL[ ]	/* CallFunction */
PUSHB[ ]	/* 2 values pushed */
6 0 
WCVTP[ ]	/* WriteCVTInPixels */";
};
width = 927;
}
);
note = copyright;
unicode = 169;
},
{
glyphname = ampersand;
layers = (
{
layerId = m01;
shapes = (
{
closed = 1;
nodes = (
(653,0,l),
(541,126,l),
(568,164,o),
(608,255,o),
(613,312,q),
(529,312,l),
(524,276,o),
(502,210,o),
(485,187,q),
(335,365,l),
(366,381,o),
(421,422,o),
(462,471,o),
(486,527,o),
(486,559,qs),
(486,634,o),
(394,713,o),
(322,715,qs),
(279,715,o),
(214,693,o),
(166,649,o),
(136,585,o),
(136,541,qs),
(136,454,o),
(214,381,q),
(145,346,o),
(67,250,o),
(67,183,qs),
(67,135,o),
(102,63,o),
(162,16,o),
(240,-8,o),
(283,-8,qs),
(340,-8,o),
(441,24,o),
(483,62,q),
(539,0,l)
);
},
{
closed = 1;
nodes = (
(253,457,o),
(234,489,o),
(221,525,o),
(221,546,qs),
(222,588,o),
(270,636,o),
(315,636,qs),
(355,636,o),
(406,589,o),
(404,550,qs),
(403,529,o),
(379,489,o),
(345,455,o),
(304,427,o),
(286,417,q),
(276,429,o)
);
},
{
closed = 1;
nodes = (
(402,93,o),
(331,71,o),
(297,71,qs),
(271,71,o),
(221,85,o),
(182,113,o),
(158,156,o),
(158,185,qs),
(158,234,o),
(217,302,o),
(259,324,q),
(433,124,l)
);
}
);
userData = {
assembly = "NPUSHB[ ]	/* 13 values pushed */
26 11 2 2 4 64 34 27 3 5 2 2 76 
MPPEM[ ]	/* MeasurePixelPerEm */
PUSHB[ ]	/* 1 value pushed */
29 
LT[ ]	/* LessThan */
IF[ ]	/* If */
NPUSHB[ ]	/* 33 values pushed */
0 4 4 1 97 0 1 1 46 77 0 2 2 0 97 3 1 0 0 47 77 0 5 5 0 97 3 1 0 0 47 0 78 
ELSE[ ]	/* Else */
NPUSHB[ ]	/* 31 values pushed */
0 4 4 1 97 0 1 1 46 77 0 2 2 3 95 0 3 3 39 77 0 5 5 0 97 0 0 0 47 0 78 
EIF[ ]	/* EndIf */
NPUSHB[ ]	/* 9 values pushed */
46 40 20 27 45 34 6 8 28 
CALL[ ]	/* CallFunction */";
};
width = 677;
}
);
note = ampersand;
unicode = 38;
},
{
glyphname = dollar;
layers = (
{
layerId = m01;
shapes = (
{
closed = 1;
nodes = (
(254,711,o),
(177,685,o),
(119,637,o),
(84,566,o),
(84,517,qs),
(84,457,o),
(136,380,o),
(178,358,qs),
(204,344,o),
(264,326,o),
(325,313,o),
(387,301,o),
(415,292,qs),
(457,280,o),
(507,234,o),
(507,187,qs),
(507,156,o),
(481,112,o),
(437,84,o),
(380,71,o),
(350,71,qs),
(319,71,o),
(256,81,o),
(202,107,o),
(160,151,o),
(150,185,q),
(59,185,l),
(68,139,o),
(111,71,o),
(173,25,o),
(249,-1,o),
(291,-5,q),
(291,-138,l),
(378,-138,l),
(378,-7,l),
(423,-4,o),
(503,23,o),
(562,73,o),
(596,148,o),
(596,199,qs),
(596,267,o),
(524,346,o),
(462,366,qs),
(436,374,o),
(380,387,o),
(324,400,o),
(269,414,o),
(245,424,qs),
(215,437,o),
(174,485,o),
(174,525,qs),
(174,558,o),
(203,601,o),
(249,626,o),
(306,636,o),
(334,636,qs),
(363,636,o),
(416,625,o),
(458,599,o),
(487,557,o),
(491,526,q),
(576,526,l),
(574,569,o),
(543,635,o),
(492,681,o),
(424,708,o),
(384,712,q),
(384,844,l),
(296,844,l),
(296,714,l)
);
}
);
userData = {
assembly = "NPUSHB[ ]	/* 61 values pushed */
69 2 2 2 0 37 1 3 6 2 76 0 1 2 5 2 1 5 128 0 5 6 2 5 6 126 0 0 0 2 1 0 2 105 0 6 0 4 6 4 99 0 3 3 50 3 78 49 47 43 42 36 35 34 33 36 22 16 7 8 25 
CALL[ ]	/* CallFunction */";
};
width = 656;
}
);
note = dollar;
unicode = 36;
},
{
glyphname = parenleft;
layers = (
{
layerId = m01;
shapes = (
{
closed = 1;
nodes = (
(201,765,o),
(133,637,o),
(88,502,o),
(65,365,o),
(65,302,qs),
(65,239,o),
(87,103,o),
(132,-32,o),
(199,-159,o),
(244,-212,q),
(336,-212,l),
(286,-143,o),
(215,-15,o),
(170,111,o),
(150,236,o),
(150,302,qs),
(150,367,o),
(169,493,o),
(213,620,o),
(285,749,o),
(338,818,q),
(246,818,l)
);
}
);
userData = {
assembly = "MPPEM[ ]	/* MeasurePixelPerEm */
PUSHB[ ]	/* 1 value pushed */
16 
LT[ ]	/* LessThan */
IF[ ]	/* If */
NPUSHB[ ]	/* 12 values pushed */
2 1 1 0 1 133 0 0 0 43 0 78 
ELSE[ ]	/* Else */
NPUSHB[ ]	/* 10 values pushed */
2 1 1 0 1 133 0 0 0 118 
EIF[ ]	/* EndIf */
NPUSHB[ ]	/* 10 values pushed */
0 0 0 21 0 21 26 3 8 23 
CALL[ ]	/* CallFunction */";
};
width = 308;
}
);
note = parenleft;
unicode = 40;
},
{
glyphname = parenright;
layers = (
{
layerId = m01;
shapes = (
{
closed = 1;
nodes = (
(107,-159,o),
(175,-31,o),
(220,104,o),
(243,241,o),
(243,304,qs),
(243,367,o),
(221,503,o),
(176,638,o),
(109,765,o),
(64,818,q),
(-28,818,l),
(22,749,o),
(93,621,o),
(138,495,o),
(158,370,o),
(158,304,qs),
(158,239,o),
(138,113,o),
(94,-13,o),
(22,-143,o),
(-30,-212,q),
(62,-212,l)
);
}
);
userData = {
assembly = "MPPEM[ ]	/* MeasurePixelPerEm */
PUSHB[ ]	/* 1 value pushed */
16 
LT[ ]	/* LessThan */
IF[ ]	/* If */
NPUSHB[ ]	/* 12 values pushed */
0 0 1 0 133 2 1 1 1 43 1 78 
ELSE[ ]	/* Else */
NPUSHB[ ]	/* 10 values pushed */
0 0 1 0 133 2 1 1 1 118 
EIF[ ]	/* EndIf */
NPUSHB[ ]	/* 10 values pushed */
0 0 0 21 0 21 26 3 8 23 
CALL[ ]	/* CallFunction */";
};
width = 308;
}
);
note = parenright;
unicode = 41;
},
{
glyphname = cent;
layers = (
{
layerId = m01;
shapes = (
{
closed = 1;
nodes = (
(344,-160,l),
(344,-4,l),
(377,0,o),
(437,22,o),
(485,60,o),
(518,115,o),
(525,151,q),
(437,151,l),
(431,128,o),
(405,96,o),
(371,76,o),
(330,69,o),
(309,69,qs),
(270,69,o),
(204,101,o),
(163,154,o),
(144,224,o),
(144,263,qs),
(144,302,o),
(163,372,o),
(203,426,o),
(266,457,o),
(312,457,qs),
(356,457,o),
(422,420,o),
(434,376,q),
(521,376,l),
(507,450,o),
(413,525,o),
(344,531,q),
(344,671,l),
(257,671,l),
(257,529,l),
(208,521,o),
(134,475,o),
(84,405,o),
(59,315,o),
(59,263,qs),
(59,211,o),
(83,121,o),
(133,52,o),
(207,6,o),
(257,-2,q),
(257,-160,l)
);
}
);
userData = {
assembly = "NPUSHB[ ]	/* 60 values pushed */
13 10 2 2 0 41 0 2 5 3 2 76 0 1 2 4 2 1 4 128 0 4 3 2 4 3 126 0 0 0 2 1 0 2 105 0 3 5 5 3 89 0 3 3 5 95 0 5 3 5 79 22 20 40 34 20 27 6 8 28 
CALL[ ]	/* CallFunction */";
};
width = 584;
}
);
note = cent;
unicode = 162;
},
{
glyphname = section;
layers = (
{
layerId = m01;
shapes = (
{
closed = 1;
nodes = (
(334,631,o),
(366,615,o),
(390,589,o),
(394,571,q),
(473,571,l),
(469,608,o),
(433,662,o),
(380,697,o),
(316,713,o),
(279,713,qs),
(242,713,o),
(176,700,o),
(119,667,o),
(81,608,o),
(80,565,qs),
(80,508,o),
(124,472,q),
(97,453,o),
(72,397,o),
(72,364,qs),
(72,326,o),
(108,266,o),
(135,252,qs),
(153,241,o),
(203,225,o),
(251,214,o),
(302,206,o),
(323,202,qs),
(338,199,o),
(368,193,o),
(391,179,o),
(405,156,o),
(405,137,qs),
(405,112,o),
(379,84,o),
(342,70,o),
(298,67,o),
(280,67,qs),
(266,67,o),
(227,74,o),
(187,89,o),
(153,117,o),
(145,141,q),
(59,141,l),
(65,98,o),
(108,42,o),
(169,8,o),
(242,-7,o),
(288,-8,qs),
(321,-8,o),
(392,6,o),
(450,40,o),
(489,98,o),
(490,143,qs),
(490,181,o),
(466,232,o),
(439,246,q),
(459,262,o),
(487,315,o),
(488,346,qs),
(488,392,o),
(448,452,o),
(397,467,qs),
(385,470,o),
(348,478,o),
(306,487,o),
(264,495,o),
(246,499,qs),
(232,502,o),
(202,511,o),
(177,525,o),
(161,549,o),
(161,567,qs),
(161,591,o),
(185,620,o),
(218,634,o),
(255,639,o),
(277,639,qs),
(299,639,o)
);
},
{
closed = 1;
nodes = (
(297,413,o),
(332,405,qs),
(366,397,o),
(407,369,o),
(407,335,qs),
(406,315,o),
(386,280,o),
(372,274,q),
(359,276,o),
(325,281,o),
(289,287,o),
(254,294,o),
(239,297,qs),
(203,303,o),
(155,336,o),
(155,368,qs),
(155,387,o),
(172,425,o),
(185,436,q),
(220,426,o)
);
}
);
userData = {
assembly = "NPUSHB[ ]	/* 64 values pushed */
90 61 21 3 2 5 1 76 0 5 0 2 0 5 2 128 0 2 3 0 2 3 126 6 1 0 0 4 97 0 4 4 46 77 0 3 3 1 97 0 1 1 47 1 78 1 0 74 73 69 67 42 39 35 34 30 28 0 78 1 78 7 8 22 
CALL[ ]	/* CallFunction */";
};
width = 550;
}
);
note = section;
unicode = 167;
},
{
glyphname = uni04C1;
layers = (
{
layerId = m01;
shapes = (
{
closed = 1;
nodes = (
(339,885,o),
(337,920,q),
(259,920,l),
(261,854,o),
(350,787,o),
(429,787,qs),
(508,787,o),
(599,854,o),
(601,920,q),
(523,920,l),
(521,885,o),
(472,853,o),
(430,853,qs),
(388,853,o)
);
},
{
closed = 1;
nodes = (
(473,307,l),
(581,307,l),
(744,0,l),
(846,0,l),
(653,357,l),
(844,707,l),
(750,707,l),
(581,386,l),
(473,386,l),
(473,707,l),
(386,707,l),
(386,386,l),
(280,386,l),
(111,707,l),
(15,707,l),
(206,357,l),
(14,0,l),
(115,0,l),
(278,307,l),
(386,307,l),
(386,0,l),
(473,0,l)
);
}
);
userData = {
assembly = "NPUSHB[ ]	/* 87 values pushed */
30 19 2 4 7 1 76 3 1 1 0 1 133 14 1 0 0 2 6 0 2 105 9 1 7 12 1 4 5 7 4 104 10 8 2 6 6 20 77 15 13 11 3 5 5 21 5 78 14 14 1 0 14 35 14 35 34 33 32 31 29 28 27 26 25 24 23 22 21 20 18 17 16 15 11 10 8 6 4 3 0 13 1 13 16 7 22 
CALL[ ]	/* CallFunction */";
};
width = 860;
}
);
note = uni04C1;
unicode = 1217;
},
{
glyphname = uni04C2;
layers = (
{
layerId = m01;
shapes = (
{
closed = 1;
nodes = (
(290,704,o),
(288,739,q),
(210,739,l),
(212,673,o),
(301,606,o),
(380,606,qs),
(459,606,o),
(550,673,o),
(552,739,q),
(474,739,l),
(472,704,o),
(423,672,o),
(381,672,qs),
(339,672,o)
);
},
{
closed = 1;
nodes = (
(499,227,l),
(648,0,l),
(747,0,l),
(564,276,l),
(732,527,l),
(639,527,l),
(488,299,l),
(423,299,l),
(423,527,l),
(338,527,l),
(338,299,l),
(273,299,l),
(122,527,l),
(29,527,l),
(197,276,l),
(14,0,l),
(113,0,l),
(262,227,l),
(338,227,l),
(338,0,l),
(423,0,l),
(423,227,l)
);
}
);
userData = {
assembly = "NPUSHB[ ]	/* 82 values pushed */
31 20 2 5 8 1 76 3 1 1 0 1 133 14 1 0 0 2 7 0 2 105 10 1 8 13 1 5 4 8 5 104 11 9 2 7 7 22 77 12 6 2 4 4 21 4 78 1 0 35 34 33 32 30 29 28 27 26 25 24 23 22 21 19 18 17 16 15 14 11 10 8 6 4 3 0 13 1 13 15 7 22 
CALL[ ]	/* CallFunction */";
};
width = 761;
}
);
note = uni04C2;
unicode = 1218;
},
{
glyphname = w_alt;
kernLeft = w;
layers = (
{
layerId = m01;
shapes = (
{
closed = 1;
nodes = (
(346,399,l),
(236,82,l),
(110,527,l),
(14,527,l),
(178,0,l),
(293,0,l),
(387,268,l),
(480,0,l),
(597,0,l),
(760,527,l),
(664,527,l),
(540,82,l),
(429,399,l)
);
}
);
userData = {
assembly = "NPUSHB[ ]	/* 36 values pushed */
10 5 2 1 4 1 76 0 4 0 1 0 4 1 128 3 1 0 0 22 77 2 1 1 1 21 1 78 18 17 18 17 17 5 7 27 
CALL[ ]	/* CallFunction */";
};
width = 774;
}
);
note = w_alt;
},
{
glyphname = W_alt;
kernLeft = W;
kernRight = W;
layers = (
{
layerId = m01;
shapes = (
{
closed = 1;
nodes = (
(594,0,l),
(722,0,l),
(915,707,l),
(821,707,l),
(658,75,l),
(519,538,l),
(415,538,l),
(275,75,l),
(112,707,l),
(14,707,l),
(207,0,l),
(339,0,l),
(466,417,l),
(466,417,l)
);
}
);
userData = {
assembly = "PUSHB[ ]	/* 7 values pushed */
8 5 2 0 2 1 76 
MPPEM[ ]	/* MeasurePixelPerEm */
PUSHB[ ]	/* 1 value pushed */
44 
LT[ ]	/* LessThan */
IF[ ]	/* If */
NPUSHB[ ]	/* 18 values pushed */
3 1 1 1 20 77 0 2 2 22 77 4 1 0 0 21 0 78 
ELSE[ ]	/* Else */
NPUSHB[ ]	/* 21 values pushed */
0 2 1 0 1 2 0 128 3 1 1 1 20 77 4 1 0 0 21 0 78 
EIF[ ]	/* EndIf */
PUSHB[ ]	/* 8 values pushed */
17 18 18 17 17 5 7 27 
CALL[ ]	/* CallFunction */";
};
width = 929;
}
);
note = W_alt;
},
{
glyphname = zero;
layers = (
{
layerId = m01;
shapes = (
{
closed = 1;
nodes = (
(582,551,o),
(518,653,o),
(412,715,o),
(333,715,qs),
(253,715,o),
(147,652,o),
(83,552,o),
(57,425,o),
(57,353,qs),
(57,281,o),
(83,155,o),
(147,54,o),
(253,-8,o),
(333,-8,qs),
(412,-8,o),
(518,54,o),
(582,155,o),
(609,285,o),
(609,353,qs),
(609,421,o)
);
},
{
closed = 1;
nodes = (
(160,500,o),
(200,583,o),
(273,636,o),
(333,636,qs),
(392,636,o),
(465,583,o),
(505,500,o),
(519,400,o),
(519,353,qs),
(519,305,o),
(505,205,o),
(465,123,o),
(392,71,o),
(333,71,qs),
(273,71,o),
(200,123,o),
(160,205,o),
(146,305,o),
(146,353,qs),
(146,400,o)
);
}
);
userData = {
assembly = "NPUSHB[ ]	/* 28 values pushed */
0 3 3 1 97 0 1 1 46 77 0 2 2 0 97 0 0 0 47 0 78 40 40 40 36 4 8 26 
CALL[ ]	/* CallFunction */";
};
width = 665;
}
);
note = zero;
unicode = 48;
},
{
glyphname = one;
layers = (
{
layerId = m01;
shapes = (
{
closed = 1;
nodes = (
(195,707,l),
(181,683,o),
(147,653,o),
(105,635,o),
(55,628,o),
(25,626,q),
(25,567,l),
(169,567,l),
(169,0,l),
(256,0,l),
(256,707,l)
);
}
);
userData = {
assembly = "NPUSHB[ ]	/* 26 values pushed */
0 2 0 1 0 2 1 103 0 3 3 38 77 0 0 0 39 0 78 20 17 17 16 4 8 26 
CALL[ ]	/* CallFunction */";
};
width = 363;
}
);
note = one;
unicode = 49;
},
{
glyphname = two;
layers = (
{
layerId = m01;
shapes = (
{
closed = 1;
nodes = (
(30,0,l),
(516,0,l),
(516,79,l),
(156,79,l),
(335,230,ls),
(368,259,o),
(430,317,o),
(479,383,o),
(508,461,o),
(508,510,qs),
(508,559,o),
(475,636,o),
(415,688,o),
(333,715,o),
(284,715,qs),
(243,715,o),
(165,695,o),
(100,655,o),
(55,594,o),
(48,553,q),
(141,553,l),
(153,593,o),
(229,635,o),
(280,635,qs),
(344,635,o),
(422,566,o),
(420,502,qs),
(419,460,o),
(379,389,o),
(322,325,o),
(257,270,o),
(230,247,qs),
(30,72,l)
);
}
);
userData = {
assembly = "NPUSHB[ ]	/* 43 values pushed */
32 1 4 3 1 76 0 1 0 3 0 1 3 128 0 0 0 2 97 0 2 2 46 77 0 3 3 4 95 0 4 4 39 4 78 17 26 36 18 39 5 8 27 
CALL[ ]	/* CallFunction */";
};
width = 566;
}
);
note = two;
unicode = 50;
},
{
glyphname = three;
layers = (
{
layerId = m01;
shapes = (
{
closed = 1;
nodes = (
(435,16,o),
(503,67,o),
(542,146,o),
(542,201,qs),
(542,205,ls),
(542,269,o),
(472,360,o),
(405,373,q),
(439,387,o),
(481,429,o),
(503,471,o),
(511,514,o),
(511,533,qs),
(511,583,o),
(476,653,o),
(416,696,o),
(337,715,o),
(292,715,qs),
(251,715,o),
(172,697,o),
(107,657,o),
(63,595,o),
(57,551,q),
(144,551,l),
(150,574,o),
(180,607,o),
(219,627,o),
(264,636,o),
(285,636,qs),
(311,636,o),
(361,627,o),
(401,601,o),
(425,555,o),
(425,519,qs),
(424,483,o),
(386,428,o),
(354,413,qs),
(326,401,o),
(280,398,o),
(253,398,qs),
(212,398,l),
(212,320,l),
(280,320,ls),
(311,320,o),
(372,312,o),
(421,286,o),
(452,238,o),
(452,198,qs),
(452,156,o),
(419,105,o),
(370,79,o),
(314,71,o),
(292,71,qs),
(268,71,o),
(216,79,o),
(169,99,o),
(132,132,o),
(123,158,q),
(33,158,l),
(40,111,o),
(91,47,o),
(164,8,o),
(249,-8,o),
(291,-8,qs),
(343,-8,o)
);
}
);
userData = {
assembly = "NPUSHB[ ]	/* 75 values pushed */
56 1 3 4 1 76 0 6 5 4 5 6 4 128 0 1 3 2 3 1 2 128 0 4 0 3 1 4 3 105 0 5 5 7 97 0 7 7 46 77 0 2 2 0 97 8 1 0 0 47 0 78 1 0 47 45 41 40 36 34 26 23 22 20 12 10 6 5 0 64 1 64 9 8 22 
CALL[ ]	/* CallFunction */";
};
width = 599;
}
);
note = three;
unicode = 51;
},
{
glyphname = four;
layers = (
{
layerId = m01;
shapes = (
{
closed = 1;
nodes = (
(42,206,l),
(42,141,l),
(426,141,l),
(426,0,l),
(513,0,l),
(513,141,l),
(596,141,l),
(596,220,l),
(513,220,l),
(513,707,l),
(388,707,l)
);
},
{
closed = 1;
nodes = (
(426,220,l),
(147,220,l),
(426,628,l)
);
}
);
userData = {
assembly = "NPUSHB[ ]	/* 47 values pushed */
13 1 0 4 9 1 1 0 2 76 5 1 0 3 1 1 2 0 1 104 6 1 4 4 38 77 0 2 2 39 2 78 0 0 12 11 0 10 0 10 17 17 17 17 7 8 26 
CALL[ ]	/* CallFunction */";
};
width = 633;
}
);
note = four;
unicode = 52;
},
{
glyphname = seven;
layers = (
{
layerId = m01;
shapes = (
{
closed = 1;
nodes = (
(482,635,l),
(482,707,l),
(12,707,l),
(12,627,l),
(386,627,l),
(100,0,l),
(196,0,l)
);
}
);
userData = {
assembly = "NPUSHB[ ]	/* 34 values pushed */
5 1 0 1 1 76 0 0 0 1 95 0 1 1 38 77 3 1 2 2 39 2 78 0 0 0 6 0 6 17 17 4 8 24 
CALL[ ]	/* CallFunction */";
};
width = 505;
}
);
note = seven;
unicode = 55;
},
{
glyphname = eight;
layers = (
{
layerId = m01;
shapes = (
{
closed = 1;
nodes = (
(504,347,o),
(447,368,q),
(477,382,o),
(515,421,o),
(536,464,o),
(544,509,o),
(544,528,qs),
(544,577,o),
(504,648,o),
(439,694,o),
(355,715,o),
(311,715,qs),
(267,715,o),
(183,694,o),
(118,648,o),
(78,577,o),
(78,528,qs),
(78,509,o),
(85,464,o),
(106,419,o),
(144,379,o),
(174,365,q),
(119,344,o),
(57,257,o),
(57,197,qs),
(57,140,o),
(100,61,o),
(172,13,o),
(263,-8,o),
(311,-8,qs),
(359,-8,o),
(450,13,o),
(521,61,o),
(565,140,o),
(565,197,qs),
(565,257,o)
);
},
{
closed = 1;
nodes = (
(392,623,o),
(431,593,o),
(454,546,o),
(454,512,qs),
(453,483,o),
(429,439,o),
(390,411,o),
(339,397,o),
(311,397,qs),
(283,397,o),
(232,411,o),
(192,439,o),
(168,483,o),
(168,516,qs),
(168,548,o),
(190,593,o),
(229,622,o),
(281,636,o),
(311,636,qs),
(340,636,o)
);
},
{
closed = 1;
nodes = (
(401,307,o),
(447,277,o),
(475,230,o),
(475,196,qs),
(475,157,o),
(441,109,o),
(392,81,o),
(335,71,o),
(311,71,qs),
(287,71,o),
(230,81,o),
(180,109,o),
(146,157,o),
(146,196,qs),
(146,230,o),
(174,277,o),
(221,307,o),
(280,320,o),
(311,320,qs),
(342,320,o)
);
}
);
userData = {
assembly = "NPUSHB[ ]	/* 60 values pushed */
33 13 2 4 3 1 76 0 3 7 1 4 5 3 4 105 6 1 2 2 1 97 0 1 1 46 77 0 5 5 0 97 0 0 0 47 0 78 57 56 37 36 67 65 56 75 57 75 47 45 36 55 37 55 24 22 36 8 8 23 
CALL[ ]	/* CallFunction */";
};
width = 622;
}
);
note = eight;
unicode = 56;
},
{
glyphname = nine;
layers = (
{
layerId = m01;
shapes = (
{
closed = 1;
nodes = (
(481,327,o),
(478,277,o),
(468,222,o),
(450,165,o),
(435,142,qs),
(414,110,o),
(346,72,o),
(297,71,qs),
(256,71,o),
(175,108,o),
(158,146,q),
(62,146,l),
(72,107,o),
(116,50,o),
(176,11,o),
(249,-8,o),
(287,-8,qs),
(359,-8,o),
(462,40,o),
(494,82,qs),
(531,130,o),
(564,267,o),
(564,339,qs),
(564,404,o),
(540,538,o),
(480,646,o),
(378,715,o),
(300,715,qs),
(243,715,o),
(155,681,o),
(90,619,o),
(54,532,o),
(54,479,qs),
(54,425,o),
(90,343,o),
(151,287,o),
(233,258,o),
(280,258,qs),
(310,258,o),
(369,269,o),
(423,295,o),
(467,336,o),
(481,365,q),
(481,343,ls)
);
},
{
closed = 1;
nodes = (
(166,572,o),
(207,612,o),
(264,636,o),
(297,636,qs),
(330,636,o),
(386,613,o),
(427,572,o),
(450,515,o),
(450,481,qs),
(450,449,o),
(425,396,o),
(382,358,o),
(325,338,o),
(293,338,qs),
(224,339,o),
(143,417,o),
(143,487,qs),
(143,518,o)
);
}
);
userData = {
assembly = "NPUSHB[ ]	/* 53 values pushed */
0 1 5 6 1 76 0 3 0 4 0 3 4 128 0 5 0 0 3 5 0 105 0 6 6 1 97 0 1 1 46 77 0 4 4 2 97 0 2 2 47 2 78 40 42 34 20 41 40 36 7 8 29 
CALL[ ]	/* CallFunction */";
};
width = 620;
}
);
note = nine;
unicode = 57;
},
{
glyphname = uni0430;
kernLeft = abreve;
layers = (
{
layerId = m01;
shapes = (
{
closed = 1;
nodes = (
(490,0,l),
(490,285,ls),
(490,341,o),
(470,431,o),
(420,494,o),
(339,533,o),
(280,533,qs),
(246,533,o),
(178,517,o),
(120,484,o),
(78,433,o),
(71,397,q),
(162,397,l),
(174,429,o),
(238,457,o),
(280,457,qs),
(349,455,o),
(407,376,o),
(407,309,q),
(252,309,ls),
(211,309,o),
(138,294,o),
(82,256,o),
(49,195,o),
(49,150,qs),
(49,112,o),
(80,52,o),
(133,12,o),
(199,-6,o),
(236,-6,qs),
(259,-6,o),
(306,0,o),
(353,16,o),
(397,44,o),
(414,67,q),
(419,0,l)
);
},
{
closed = 1;
nodes = (
(407,212,ls),
(406,142,o),
(319,69,o),
(244,69,qs),
(223,69,o),
(183,79,o),
(152,101,o),
(134,133,o),
(134,156,qs),
(134,187,o),
(169,225,o),
(227,238,o),
(290,238,o),
(314,238,qs),
(407,238,l)
);
}
);
userData = {
assembly = "MPPEM[ ]	/* MeasurePixelPerEm */
PUSHB[ ]	/* 1 value pushed */
39 
LT[ ]	/* LessThan */
IF[ ]	/* If */
NPUSHB[ ]	/* 39 values pushed */
0 3 2 1 2 3 1 128 0 1 8 1 6 7 1 6 103 0 2 2 4 97 0 4 4 29 77 0 7 7 0 97 5 1 0 0 30 0 78 
ELSE[ ]	/* Else */
NPUSHB[ ]	/* 43 values pushed */
0 3 2 1 2 3 1 128 0 1 8 1 6 7 1 6 103 0 2 2 4 97 0 4 4 29 77 0 5 5 21 77 0 7 7 0 97 0 0 0 30 0 78 
EIF[ ]	/* EndIf */
NPUSHB[ ]	/* 17 values pushed */
38 36 47 45 36 50 38 50 21 36 18 34 40 36 9 7 28 
CALL[ ]	/* CallFunction */";
};
width = 555;
}
);
note = uni0430;
unicode = 1072;
},
{
glyphname = uni0435;
kernLeft = uni0444;
layers = (
{
layerId = m01;
shapes = (
{
closed = 1;
nodes = (
(525,241,o),
(526,259,o),
(526,268,qs),
(528,308,o),
(505,402,o),
(449,483,o),
(357,533,o),
(294,533,qs),
(232,533,o),
(142,493,o),
(80,421,o),
(47,322,o),
(47,263,qs),
(47,204,o),
(77,105,o),
(139,34,o),
(232,-6,o),
(295,-6,qs),
(332,-6,o),
(404,11,o),
(463,47,o),
(506,103,o),
(515,141,q),
(428,141,l),
(421,121,o),
(393,93,o),
(357,76,o),
(316,69,o),
(297,69,qs),
(258,69,o),
(199,94,o),
(159,138,o),
(136,197,o),
(133,232,q),
(524,232,l)
);
},
{
closed = 1;
nodes = (
(138,336,o),
(160,391,o),
(198,433,o),
(254,457,o),
(291,457,qs),
(358,457,o),
(438,373,o),
(440,306,q),
(135,306,l)
);
}
);
userData = {
assembly = "NPUSHB[ ]	/* 60 values pushed */
0 1 4 0 4 1 0 128 8 1 6 7 1 4 1 6 4 103 0 5 5 3 97 0 3 3 29 77 0 0 0 2 97 0 2 2 30 2 78 35 35 0 0 35 43 35 43 39 37 0 34 0 34 40 36 20 36 9 7 26 
CALL[ ]	/* CallFunction */";
};
width = 573;
}
);
note = uni0435;
unicode = 1077;
},
{
glyphname = uni043E;
kernLeft = uni0444;
layers = (
{
layerId = m01;
shapes = (
{
closed = 1;
nodes = (
(141,493,o),
(78,421,o),
(47,322,o),
(47,263,qs),
(47,204,o),
(78,105,o),
(141,34,o),
(234,-6,o),
(297,-6,qs),
(360,-6,o),
(454,34,o),
(517,105,o),
(548,204,o),
(548,263,qs),
(548,322,o),
(517,421,o),
(454,493,o),
(362,533,o),
(299,533,qs),
(235,533,o)
);
},
{
closed = 1;
nodes = (
(192,99,o),
(151,152,o),
(132,222,o),
(132,263,qs),
(132,303,o),
(151,374,o),
(192,427,o),
(254,457,o),
(297,457,qs),
(340,457,o),
(403,427,o),
(444,374,o),
(463,303,o),
(463,263,qs),
(463,222,o),
(444,152,o),
(403,99,o),
(340,69,o),
(297,69,qs),
(254,69,o)
);
}
);
userData = {
assembly = "NPUSHB[ ]	/* 42 values pushed */
0 3 3 0 97 4 1 0 0 29 77 5 1 2 2 1 97 0 1 1 30 1 78 21 20 1 0 31 29 20 39 21 39 11 9 0 19 1 19 6 7 22 
CALL[ ]	/* CallFunction */";
};
width = 595;
}
);
note = uni043E;
unicode = 1086;
},
{
glyphname = uni0441;
kernLeft = uni0444;
layers = (
{
layerId = m01;
shapes = (
{
closed = 1;
nodes = (
(403,12,o),
(463,51,o),
(504,110,o),
(512,151,q),
(424,151,l),
(418,128,o),
(392,96,o),
(357,77,o),
(316,69,o),
(295,69,qs),
(252,69,o),
(190,100,o),
(151,153,o),
(132,223,o),
(132,262,qs),
(132,299,o),
(150,370,o),
(189,424,o),
(254,457,o),
(297,457,qs),
(341,458,o),
(406,420,o),
(421,376,q),
(508,376,l),
(499,419,o),
(459,479,o),
(404,516,o),
(342,533,o),
(302,533,qs),
(235,533,o),
(141,490,o),
(79,417,o),
(47,318,o),
(47,262,qs),
(47,204,o),
(77,106,o),
(137,34,o),
(229,-6,o),
(292,-6,qs),
(331,-6,o)
);
}
);
userData = {
assembly = "NPUSHB[ ]	/* 56 values pushed */
0 2 3 5 3 2 5 128 0 5 4 3 5 4 126 0 3 3 1 97 0 1 1 29 77 0 4 4 0 97 6 1 0 0 30 0 78 1 0 35 34 30 28 20 18 16 15 11 9 0 39 1 39 7 7 22 
CALL[ ]	/* CallFunction */";
};
width = 553;
}
);
note = uni0441;
unicode = 1089;
},
{
glyphname = uni0218;
layers = (
{
layerId = m01;
shapes = (
{
closed = 1;
nodes = (
(405,625,o),
(447,599,o),
(476,557,o),
(480,526,q),
(565,526,l),
(562,589,o),
(502,669,o),
(457,689,qs),
(428,703,o),
(362,714,o),
(318,715,qs),
(274,715,o),
(187,695,o),
(117,649,o),
(73,573,o),
(73,517,qs),
(73,457,o),
(125,382,o),
(167,359,qs),
(192,344,o),
(252,327,o),
(314,313,o),
(376,301,o),
(404,292,qs),
(446,280,o),
(496,234,o),
(496,187,qs),
(496,156,o),
(470,112,o),
(426,84,o),
(369,71,o),
(339,71,qs),
(308,71,o),
(245,81,o),
(191,107,o),
(149,151,o),
(139,185,q),
(48,185,l),
(59,132,o),
(112,58,o),
(188,12,o),
(281,-8,o),
(332,-8,qs),
(382,-8,o),
(474,15,o),
(544,65,o),
(585,143,o),
(585,203,qs),
(585,267,o),
(512,346,o),
(451,366,qs),
(425,375,o),
(370,387,o),
(313,399,o),
(259,413,o),
(235,423,qs),
(205,436,o),
(163,485,o),
(163,525,qs),
(163,558,o),
(192,601,o),
(238,626,o),
(295,636,o),
(323,636,qs),
(352,636,o)
);
},
{
closed = 1;
nodes = (
(283,-258,o),
(263,-272,q),
(287,-305,l),
(307,-298,o),
(344,-266,o),
(372,-224,o),
(389,-177,o),
(389,-150,qs),
(391,-119,o),
(359,-71,o),
(323,-71,qs),
(300,-71,o),
(266,-101,o),
(266,-129,qs),
(266,-154,o),
(298,-184,o),
(324,-186,q),
(318,-210,o)
);
}
);
userData = {
assembly = "NPUSHB[ ]	/* 68 values pushed */
80 79 2 6 73 0 5 0 2 0 5 2 128 0 2 3 0 2 3 126 0 6 1 6 134 7 1 0 0 4 97 0 4 4 46 77 0 3 3 1 97 0 1 1 47 1 78 1 0 72 70 60 59 54 52 33 31 27 26 22 20 0 64 1 64 8 8 22 
CALL[ ]	/* CallFunction */";
};
width = 634;
}
);
note = uni0218;
unicode = 536;
},
{
glyphname = uni0219;
kernLeft = d;
layers = (
{
layerId = m01;
shapes = (
{
closed = 1;
nodes = (
(369,420,o),
(376,391,q),
(455,391,l),
(451,422,o),
(419,478,o),
(390,498,qs),
(343,533,o),
(261,533,qs),
(229,533,o),
(155,520,o),
(125,501,qs),
(97,483,o),
(61,428,o),
(59,386,qs),
(59,340,o),
(95,282,o),
(121,265,qs),
(142,252,o),
(190,237,o),
(241,226,o),
(292,217,o),
(316,212,qs),
(349,206,o),
(389,177,o),
(389,144,qs),
(389,119,o),
(361,87,o),
(325,73,o),
(282,69,o),
(264,69,qs),
(247,69,o),
(211,75,o),
(171,91,o),
(137,119,o),
(129,143,q),
(43,143,l),
(49,100,o),
(92,43,o),
(153,8,o),
(227,-6,o),
(263,-6,qs),
(300,-7,o),
(375,8,o),
(435,42,o),
(473,101,o),
(474,151,qs),
(474,248,o),
(378,278,qs),
(366,282,o),
(331,290,o),
(292,297,o),
(252,304,o),
(235,308,qs),
(194,316,o),
(143,350,o),
(143,384,qs),
(144,408,o),
(169,437,o),
(204,452,o),
(245,457,o),
(262,457,qs),
(307,456,o)
);
},
{
closed = 1;
nodes = (
(220,-258,o),
(200,-272,q),
(224,-305,l),
(244,-298,o),
(281,-266,o),
(309,-224,o),
(326,-177,o),
(326,-150,qs),
(328,-119,o),
(298,-72,o),
(261,-71,qs),
(239,-71,o),
(203,-101,o),
(203,-129,qs),
(203,-154,o),
(235,-184,o),
(261,-186,q),
(255,-210,o)
);
}
);
userData = {
assembly = "NPUSHB[ ]	/* 68 values pushed */
77 76 2 6 73 0 5 0 2 0 5 2 128 0 2 3 0 2 3 126 0 6 1 6 134 7 1 0 0 4 97 0 4 4 49 77 0 3 3 1 97 0 1 1 47 1 78 1 0 69 67 59 58 54 52 32 30 26 25 21 19 0 61 1 61 8 8 22 
CALL[ ]	/* CallFunction */";
};
width = 518;
}
);
note = uni0219;
unicode = 537;
},
{
glyphname = uni021A;
kernLeft = uni0422;
kernRight = uni0422;
layers = (
{
layerId = m01;
shapes = (
{
closed = 1;
nodes = (
(555,628,l),
(555,707,l),
(14,707,l),
(14,628,l),
(241,628,l),
(241,0,l),
(328,0,l),
(328,628,l)
);
},
{
closed = 1;
nodes = (
(244,-258,o),
(224,-272,q),
(248,-305,l),
(268,-298,o),
(305,-266,o),
(333,-224,o),
(350,-177,o),
(350,-150,qs),
(352,-119,o),
(322,-72,o),
(285,-71,qs),
(263,-71,o),
(227,-101,o),
(227,-129,qs),
(227,-154,o),
(259,-184,o),
(285,-186,q),
(279,-210,o)
);
}
);
userData = {
assembly = "NPUSHB[ ]	/* 35 values pushed */
23 22 2 4 73 0 4 0 4 134 3 1 1 1 2 95 0 2 2 38 77 0 0 0 39 0 78 38 17 17 17 16 5 8 27 
CALL[ ]	/* CallFunction */";
};
width = 569;
}
);
note = uni021A;
unicode = 538;
},
{
glyphname = uni021B;
kernLeft = t;
layers = (
{
layerId = m01;
shapes = (
{
closed = 1;
nodes = (
(115,684,l),
(115,527,l),
(29,527,l),
(29,452,l),
(115,452,l),
(115,170,ls),
(115,82,o),
(191,0,o),
(281,0,qs),
(338,0,l),
(338,74,l),
(299,74,ls),
(242,74,o),
(200,125,o),
(200,179,qs),
(200,452,l),
(341,452,l),
(341,527,l),
(200,527,l),
(200,684,l)
);
},
{
closed = 1;
nodes = (
(171,-258,o),
(151,-272,q),
(175,-305,l),
(195,-298,o),
(232,-266,o),
(260,-224,o),
(277,-177,o),
(277,-150,qs),
(279,-119,o),
(246,-71,o),
(214,-71,qs),
(190,-71,o),
(154,-101,o),
(154,-129,qs),
(154,-154,o),
(186,-184,o),
(212,-186,q),
(206,-210,o)
);
}
);
userData = {
assembly = "PUSHB[ ]	/* 5 values pushed */
35 34 2 7 73 
MPPEM[ ]	/* MeasurePixelPerEm */
PUSHB[ ]	/* 1 value pushed */
22 
LT[ ]	/* LessThan */
IF[ ]	/* If */
NPUSHB[ ]	/* 33 values pushed */
0 7 3 7 134 0 6 6 38 77 4 1 1 1 0 95 5 1 0 0 41 77 0 2 2 3 98 0 3 3 39 3 78 
ELSE[ ]	/* Else */
NPUSHB[ ]	/* 33 values pushed */
0 6 0 6 133 0 7 3 7 134 4 1 1 1 0 95 5 1 0 0 41 77 0 2 2 3 98 0 3 3 39 3 78 
EIF[ ]	/* EndIf */
NPUSHB[ ]	/* 11 values pushed */
38 17 17 19 33 35 17 16 8 8 30 
CALL[ ]	/* CallFunction */";
};
width = 380;
}
);
note = uni021B;
unicode = 539;
},
{
glyphname = icircumflex;
layers = (
{
layerId = m01;
shapes = (
{
closed = 1;
nodes = (
(-34,606,l),
(51,606,l),
(129,702,l),
(207,606,l),
(293,606,l),
(159,769,l),
(99,769,l)
);
},
{
closed = 1;
nodes = (
(88,527,l),
(88,0,l),
(173,0,l),
(173,527,l)
);
}
);
userData = {
assembly = "NPUSHB[ ]	/* 44 values pushed */
3 1 0 2 1 76 5 1 2 0 2 133 1 1 0 4 0 133 0 4 4 41 77 0 3 3 39 3 78 0 0 10 9 8 7 0 6 0 6 18 17 6 8 24 
CALL[ ]	/* CallFunction */";
};
width = 269;
}
);
note = icircumflex;
unicode = 238;
},
{
glyphname = question;
layers = (
{
layerId = m01;
shapes = (
{
closed = 1;
nodes = (
(278,221,ls),
(278,234,o),
(283,266,o),
(291,279,qs),
(298,291,o),
(323,319,o),
(351,347,o),
(379,373,o),
(390,384,qs),
(421,417,o),
(457,491,o),
(458,537,qs),
(458,585,o),
(425,649,o),
(369,693,o),
(295,715,o),
(253,715,qs),
(214,715,o),
(141,695,o),
(82,656,o),
(42,596,o),
(37,556,q),
(125,556,l),
(130,578,o),
(156,609,o),
(192,628,o),
(233,636,o),
(254,636,qs),
(306,634,o),
(371,584,o),
(371,533,qs),
(371,508,o),
(346,456,o),
(327,434,qs),
(316,422,o),
(289,396,o),
(262,370,o),
(236,345,o),
(226,333,qs),
(202,306,o),
(190,258,o),
(190,234,qs),
(190,229,o),
(190,218,o),
(191,213,q),
(278,213,l)
);
},
{
closed = 1;
nodes = (
(174,78,o),
(174,52,qs),
(174,26,o),
(207,-8,o),
(233,-8,qs),
(259,-8,o),
(293,26,o),
(293,52,qs),
(293,78,o),
(259,112,o),
(233,112,qs),
(207,112,o)
);
}
);
userData = {
assembly = "NPUSHB[ ]	/* 54 values pushed */
44 0 2 3 1 1 76 0 1 0 3 0 1 3 128 0 0 0 2 97 0 2 2 46 77 5 1 3 3 4 97 0 4 4 47 4 78 47 46 53 51 46 57 47 57 29 27 23 22 18 16 6 8 22 
CALL[ ]	/* CallFunction */";
};
width = 513;
}
);
note = question;
unicode = 63;
},
{
glyphname = uni2116;
layers = (
{
layerId = m01;
shapes = (
{
closed = 1;
nodes = (
(946,426,o),
(983,469,o),
(1002,526,o),
(1002,559,qs),
(1002,593,o),
(983,650,o),
(946,692,o),
(892,715,o),
(858,715,qs),
(822,715,o),
(768,692,o),
(730,650,o),
(711,593,o),
(711,559,qs),
(711,526,o),
(730,469,o),
(767,426,o),
(822,402,o),
(858,402,qs),
(892,402,o)
);
},
{
closed = 1;
nodes = (
(146,587,l),
(504,0,l),
(613,0,l),
(613,707,l),
(526,707,l),
(526,118,l),
(170,707,l),
(59,707,l),
(59,0,l),
(146,0,l)
);
},
{
closed = 1;
nodes = (
(927,592,o),
(927,559,qs),
(927,525,o),
(896,473,o),
(857,473,qs),
(818,473,o),
(784,524,o),
(784,559,qs),
(784,592,o),
(817,644,o),
(857,644,qs),
(896,644,o)
);
},
{
closed = 1;
nodes = (
(997,273,l),
(997,350,l),
(716,350,l),
(716,273,l)
);
}
);
userData = {
assembly = "NPUSHB[ ]	/* 95 values pushed */
28 1 7 6 23 1 4 9 2 76 3 1 2 1 6 1 2 6 128 11 5 2 4 9 4 134 0 1 12 1 6 7 1 6 105 0 7 10 1 0 8 7 0 105 0 8 9 9 8 87 0 8 8 9 95 0 9 8 9 79 31 30 20 20 1 0 45 44 43 42 37 35 30 41 31 41 20 29 20 29 27 26 25 24 22 21 11 9 0 19 1 19 13 6 22 
CALL[ ]	/* CallFunction */";
};
width = 1061;
}
);
note = uni2116;
unicode = 8470;
},
{
glyphname = uni0401;
layers = (
{
layerId = m01;
shapes = (
{
closed = 1;
nodes = (
(158,872,o),
(158,845,qs),
(158,817,o),
(190,787,o),
(215,787,qs),
(241,787,o),
(272,817,o),
(272,845,qs),
(272,872,o),
(238,900,o),
(215,900,qs),
(192,900,o)
);
},
{
closed = 1;
nodes = (
(390,872,o),
(390,845,qs),
(390,817,o),
(421,787,o),
(447,787,qs),
(472,787,o),
(504,817,o),
(504,845,qs),
(504,872,o),
(470,900,o),
(447,900,qs),
(424,900,o)
);
},
{
closed = 1;
nodes = (
(562,0,l),
(562,79,l),
(174,79,l),
(174,307,l),
(523,307,l),
(523,387,l),
(174,387,l),
(174,628,l),
(562,628,l),
(562,707,l),
(87,707,l),
(87,0,l)
);
}
);
userData = {
assembly = "NPUSHB[ ]	/* 72 values pushed */
11 2 10 3 0 3 1 1 4 0 1 105 0 6 0 7 8 6 7 103 0 5 5 4 95 0 4 4 20 77 0 8 8 9 95 0 9 9 21 9 78 13 12 1 0 35 34 33 32 31 30 29 28 27 26 25 24 19 17 12 23 13 23 7 5 0 11 1 11 12 7 22 
CALL[ ]	/* CallFunction */";
};
width = 610;
}
);
note = uni0401;
unicode = 1025;
},
{
glyphname = asciitilde;
layers = (
{
layerId = m01;
shapes = (
{
closed = 1;
nodes = (
(162,286,o),
(165,322,o),
(177,355,o),
(200,377,o),
(220,377,qs),
(243,377,o),
(283,341,o),
(328,299,o),
(382,263,o),
(418,263,qs),
(458,263,o),
(510,294,o),
(540,343,o),
(553,406,o),
(554,439,q),
(479,439,l),
(479,424,o),
(476,387,o),
(464,354,o),
(440,332,o),
(420,332,qs),
(397,332,o),
(357,368,o),
(312,411,o),
(258,447,o),
(222,447,qs),
(182,447,o),
(130,416,o),
(99,367,o),
(87,304,o),
(87,271,q),
(162,271,l)
);
}
);
userData = {
assembly = "PUSHB[ ]	/* 2 values pushed */
6 100 
WCVTP[ ]	/* WriteCVTInPixels */
MPPEM[ ]	/* MeasurePixelPerEm */
PUSHB[ ]	/* 1 value pushed */
29 
LT[ ]	/* LessThan */
IF[ ]	/* If */
NPUSHB[ ]	/* 27 values pushed */
2 1 0 0 4 1 0 4 105 0 1 3 3 1 89 0 1 1 3 97 6 5 2 3 1 3 81 
ELSE[ ]	/* Else */
NPUSHB[ ]	/* 41 values pushed */
0 2 0 4 0 2 4 128 6 1 5 1 3 1 5 3 128 0 0 0 4 1 0 4 105 0 1 5 3 1 89 0 1 1 3 97 0 3 1 3 81 
EIF[ ]	/* EndIf */
NPUSHB[ ]	/* 14 values pushed */
0 0 0 31 0 31 35 36 20 35 36 7 8 27 
CALL[ ]	/* CallFunction */
PUSHB[ ]	/* 2 values pushed */
6 0 
WCVTP[ ]	/* WriteCVTInPixels */";
};
width = 641;
}
);
note = asciitilde;
unicode = 126;
},
{
glyphname = trademark;
layers = (
{
layerId = m01;
shapes = (
{
closed = 1;
nodes = (
(414,707,l),
(318,707,l),
(318,445,l),
(381,445,l),
(381,643,l),
(447,499,l),
(484,499,l),
(550,643,l),
(550,445,l),
(613,445,l),
(613,707,l),
(518,707,l),
(466,592,l)
);
},
{
closed = 1;
nodes = (
(208,445,l),
(208,648,l),
(294,648,l),
(294,707,l),
(59,707,l),
(59,648,l),
(144,648,l),
(144,445,l)
);
}
);
userData = {
assembly = "NPUSHB[ ]	/* 55 values pushed */
12 7 4 3 2 5 1 76 0 2 5 1 5 2 1 128 8 3 2 1 1 132 6 4 2 0 5 5 0 87 6 4 2 0 0 5 95 7 1 5 0 5 79 17 17 17 18 17 18 18 17 16 9 6 31 
CALL[ ]	/* CallFunction */";
};
width = 672;
}
);
note = trademark;
unicode = 8482;
},
{
glyphname = registered;
layers = (
{
layerId = m01;
shapes = (
{
closed = 1;
nodes = (
(128,717,o),
(78,666,o),
(52,595,o),
(52,552,qs),
(52,464,o),
(154,365,o),
(242,365,qs),
(330,365,o),
(431,464,o),
(431,552,qs),
(431,595,o),
(405,666,o),
(356,717,o),
(286,744,o),
(242,744,qs),
(198,744,o)
);
},
{
closed = 1;
nodes = (
(382,618,o),
(382,552,qs),
(382,486,o),
(308,412,o),
(242,412,qs),
(176,412,o),
(100,486,o),
(100,552,qs),
(100,618,o),
(175,699,o),
(242,699,qs),
(309,699,o)
);
},
{
closed = 1;
nodes = (
(325,547,o),
(325,593,qs),
(325,628,o),
(285,656,o),
(253,656,qs),
(170,656,l),
(170,459,l),
(214,459,l),
(214,528,l),
(238,528,l),
(285,459,l),
(338,459,l),
(288,534,l)
);
},
{
closed = 1;
nodes = (
(214,614,l),
(256,614,ls),
(266,614,o),
(281,603,o),
(281,592,qs),
(281,580,o),
(265,568,o),
(253,568,qs),
(214,568,l)
);
}
);
userData = {
assembly = "PUSHB[ ]	/* 2 values pushed */
6 100 
WCVTP[ ]	/* WriteCVTInPixels */
NPUSHB[ ]	/* 93 values pushed */
40 1 5 8 1 76 6 1 4 5 3 5 4 3 128 10 1 0 11 1 2 7 0 2 105 0 7 0 9 8 7 9 105 12 1 8 0 5 4 8 5 103 0 3 1 1 3 89 0 3 3 1 97 0 1 3 1 81 42 41 17 16 1 0 48 46 41 49 42 49 36 34 33 32 31 30 29 28 23 21 16 27 17 27 9 7 0 15 1 15 13 8 22 
CALL[ ]	/* CallFunction */
PUSHB[ ]	/* 2 values pushed */
6 0 
WCVTP[ ]	/* WriteCVTInPixels */";
};
width = 483;
}
);
note = registered;
unicode = 174;
},
{
glyphname = degree;
layers = (
{
layerId = m01;
shapes = (
{
closed = 1;
nodes = (
(114,800,o),
(79,766,o),
(59,718,o),
(59,688,qs),
(59,628,o),
(129,564,o),
(183,564,qs),
(209,564,o),
(256,581,o),
(291,612,o),
(311,658,o),
(311,688,qs),
(311,718,o),
(291,766,o),
(257,800,o),
(211,818,o),
(186,818,qs),
(160,818,o)
);
},
{
closed = 1;
nodes = (
(117,655,o),
(117,690,qs),
(117,725,o),
(157,762,o),
(185,762,qs),
(213,762,o),
(252,725,o),
(252,690,qs),
(252,655,o),
(214,618,o),
(185,618,qs),
(156,618,o)
);
}
);
userData = {
assembly = "PUSHB[ ]	/* 2 values pushed */
6 100 
WCVTP[ ]	/* WriteCVTInPixels */
NPUSHB[ ]	/* 46 values pushed */
4 1 0 0 3 2 0 3 105 5 1 2 1 1 2 89 5 1 2 2 1 97 0 1 2 1 81 19 18 1 0 25 23 18 29 19 29 11 9 0 17 1 17 6 8 22 
CALL[ ]	/* CallFunction */
PUSHB[ ]	/* 2 values pushed */
6 0 
WCVTP[ ]	/* WriteCVTInPixels */";
};
width = 370;
}
);
note = degree;
unicode = 176;
},
{
glyphname = bullet;
layers = (
{
layerId = m01;
shapes = (
{
closed = 1;
nodes = (
(59,416,o),
(59,364,qs),
(59,337,o),
(79,296,o),
(110,269,o),
(148,256,o),
(171,256,qs),
(216,256,o),
(281,315,o),
(281,364,qs),
(281,416,o),
(217,475,o),
(172,475,qs),
(124,475,o)
);
}
);
userData = {
assembly = "NPUSHB[ ]	/* 29 values pushed */
2 1 0 1 1 0 89 2 1 0 0 1 97 0 1 0 1 81 1 0 7 5 0 13 1 13 3 8 22 
CALL[ ]	/* CallFunction */";
};
width = 340;
}
);
note = bullet;
unicode = 8226;
},
{
glyphname = uni27F5;
layers = (
{
layerId = m01;
shapes = (
{
closed = 1;
nodes = (
(427,524,l),
(376,585,l),
(59,269,l),
(377,-48,l),
(427,13,l),
(197,230,l),
(1297,230,l),
(1297,307,l),
(196,307,l)
);
}
);
userData = {
assembly = "NPUSHB[ ]	/* 44 values pushed */
5 1 0 1 1 76 7 6 2 1 74 4 3 2 0 73 2 1 1 0 0 1 87 2 1 1 1 0 95 0 0 1 0 79 0 0 0 8 0 8 17 3 6 23 
CALL[ ]	/* CallFunction */";
};
width = 1356;
}
);
note = uni27F5;
unicode = 10229;
},
{
glyphname = uni27F6;
layers = (
{
layerId = m01;
shapes = (
{
closed = 1;
nodes = (
(980,-48,l),
(1297,268,l),
(979,585,l),
(929,524,l),
(1159,307,l),
(59,307,l),
(59,230,l),
(1160,230,l),
(929,13,l)
);
}
);
userData = {
assembly = "NPUSHB[ ]	/* 37 values pushed */
6 1 0 1 1 76 5 4 2 1 74 8 7 2 0 73 0 1 0 0 1 87 0 1 1 0 95 0 0 1 0 79 17 16 2 6 24 
CALL[ ]	/* CallFunction */";
};
width = 1356;
}
);
note = uni27F6;
unicode = 10230;
},
{
glyphname = arrowup;
layers = (
{
layerId = m01;
shapes = (
{
closed = 1;
nodes = (
(585,276,l),
(642,324,l),
(350,674,l),
(59,324,l),
(115,276,l),
(313,522,l),
(313,0,l),
(387,0,l),
(387,522,l)
);
}
);
userData = {
assembly = "NPUSHB[ ]	/* 18 values pushed */
8 7 6 5 4 3 2 7 0 74 0 0 0 118 16 1 6 23 
CALL[ ]	/* CallFunction */";
};
width = 701;
}
);
note = arrowup;
unicode = 8593;
},
{
glyphname = arrowdown;
layers = (
{
layerId = m01;
shapes = (
{
closed = 1;
nodes = (
(59,350,l),
(351,0,l),
(642,350,l),
(586,398,l),
(388,152,l),
(388,674,l),
(314,674,l),
(314,152,l),
(116,398,l)
);
}
);
userData = {
assembly = "NPUSHB[ ]	/* 18 values pushed */
8 7 6 5 4 3 0 7 0 73 0 0 0 118 17 1 6 23 
CALL[ ]	/* CallFunction */";
};
width = 701;
}
);
note = arrowdown;
unicode = 8595;
},
{
glyphname = uni21BA;
layers = (
{
layerId = m01;
shapes = (
{
closed = 1;
nodes = (
(878,723,l),
(518,768,l),
(504,402,l),
(574,402,l),
(583,633,l),
(611,612,o),
(661,547,o),
(699,469,o),
(721,382,o),
(721,332,qs),
(719,275,o),
(684,167,o),
(614,84,o),
(507,34,o),
(434,34,qs),
(369,34,o),
(264,81,o),
(189,162,o),
(148,270,o),
(147,336,qs),
(147,408,o),
(202,545,o),
(253,599,q),
(195,662,l),
(129,599,o),
(60,433,o),
(60,336,qs),
(61,251,o),
(114,110,o),
(212,8,o),
(352,-49,o),
(440,-50,qs),
(528,-50,o),
(665,12,o),
(761,117,o),
(812,254,o),
(813,329,qs),
(813,384,o),
(792,480,o),
(747,572,o),
(679,656,o),
(631,689,q),
(868,651,l)
);
}
);
userData = {
assembly = "NPUSHB[ ]	/* 35 values pushed */
42 40 37 19 18 5 2 74 0 2 1 2 133 0 1 0 0 1 89 0 1 1 0 97 0 0 1 0 81 26 47 41 3 6 25 
CALL[ ]	/* CallFunction */";
};
width = 937;
}
);
note = uni21BA;
unicode = 8634;
},
{
glyphname = uni21BB;
layers = (
{
layerId = m01;
shapes = (
{
closed = 1;
nodes = (
(258,656,o),
(190,572,o),
(145,480,o),
(124,384,o),
(124,329,qs),
(125,254,o),
(176,117,o),
(272,12,o),
(409,-50,o),
(497,-50,qs),
(585,-49,o),
(725,8,o),
(822,110,o),
(875,251,o),
(877,346,qs),
(877,433,o),
(808,599,o),
(742,662,q),
(684,599,l),
(735,545,o),
(790,408,o),
(790,336,qs),
(789,270,o),
(748,162,o),
(673,81,o),
(568,34,o),
(503,34,qs),
(430,34,o),
(323,84,o),
(253,167,o),
(218,275,o),
(216,332,qs),
(216,382,o),
(238,469,o),
(276,547,o),
(326,612,o),
(354,633,q),
(363,402,l),
(433,402,l),
(419,768,l),
(59,723,l),
(69,651,l),
(306,689,l)
);
}
);
userData = {
assembly = "NPUSHB[ ]	/* 35 values pushed */
42 24 23 5 2 5 0 74 0 0 1 0 133 0 1 2 2 1 89 0 1 1 2 97 0 2 1 2 81 47 42 19 3 6 25 
CALL[ ]	/* CallFunction */";
};
width = 937;
}
);
note = uni21BB;
unicode = 8635;
},
{
glyphname = uni21B7;
layers = (
{
layerId = m01;
shapes = (
{
closed = 1;
nodes = (
(762,137,o),
(806,278,o),
(806,347,qs),
(806,431,o),
(754,574,o),
(658,679,o),
(520,738,o),
(434,738,qs),
(353,738,o),
(221,683,o),
(125,586,o),
(66,453,o),
(59,376,q),
(148,376,l),
(154,434,o),
(199,535,o),
(273,609,o),
(373,652,o),
(434,652,qs),
(501,652,o),
(607,604,o),
(681,522,o),
(720,410,o),
(720,347,qs),
(720,318,o),
(710,256,o),
(691,195,o),
(664,139,o),
(646,117,q),
(582,345,l),
(512,329,l),
(614,-27,l),
(953,99,l),
(926,166,l),
(717,82,l)
);
}
);
userData = {
assembly = "NPUSHB[ ]	/* 36 values pushed */
34 5 4 3 2 1 6 1 73 0 1 0 1 134 0 2 0 0 2 89 0 2 2 0 97 0 0 2 0 81 36 20 46 3 6 25 
CALL[ ]	/* CallFunction */";
};
width = 1012;
}
);
note = uni21B7;
unicode = 8631;
},
{
glyphname = uni21B6;
layers = (
{
layerId = m01;
shapes = (
{
closed = 1;
nodes = (
(59,99,l),
(398,-27,l),
(500,329,l),
(430,345,l),
(366,117,l),
(348,139,o),
(321,195,o),
(302,256,o),
(292,318,o),
(292,347,qs),
(292,410,o),
(331,522,o),
(405,604,o),
(511,652,o),
(578,652,qs),
(639,652,o),
(739,609,o),
(813,535,o),
(858,434,o),
(864,376,q),
(953,376,l),
(946,453,o),
(887,586,o),
(791,683,o),
(659,738,o),
(578,738,qs),
(492,738,o),
(354,679,o),
(258,574,o),
(206,431,o),
(206,347,qs),
(206,278,o),
(250,137,o),
(295,82,q),
(86,166,l)
);
}
);
userData = {
assembly = "NPUSHB[ ]	/* 36 values pushed */
34 33 32 31 30 29 6 1 73 0 1 2 1 134 0 0 2 2 0 89 0 0 0 2 97 0 2 0 2 81 36 20 39 3 6 25 
CALL[ ]	/* CallFunction */";
};
width = 1012;
}
);
note = uni21B6;
unicode = 8630;
},
{
glyphname = five;
layers = (
{
layerId = m01;
shapes = (
{
closed = 1;
nodes = (
(201,344,o),
(272,374,o),
(314,374,qs),
(384,374,o),
(472,296,o),
(472,223,qs),
(472,183,o),
(446,126,o),
(399,89,o),
(336,71,o),
(300,71,qs),
(277,71,o),
(231,83,o),
(190,106,o),
(158,139,o),
(150,160,q),
(62,160,l),
(71,116,o),
(117,52,o),
(183,11,o),
(264,-9,o),
(308,-9,qs),
(362,-9,o),
(455,23,o),
(523,85,o),
(562,172,o),
(562,228,qs),
(562,279,o),
(529,363,o),
(469,422,o),
(385,454,o),
(334,454,qs),
(277,454,o),
(199,427,o),
(172,405,q),
(192,627,l),
(537,627,l),
(537,707,l),
(114,707,l),
(82,318,l),
(172,318,l)
);
}
);
userData = {
assembly = "NPUSHB[ ]	/* 67 values pushed */
5 1 6 2 1 76 8 1 7 6 4 6 7 4 128 0 4 5 6 4 5 126 0 2 0 6 7 2 6 105 0 1 1 0 95 0 0 0 38 77 0 5 5 3 97 0 3 3 47 3 78 0 0 0 40 0 40 38 36 20 40 35 17 17 9 8 29 
CALL[ ]	/* CallFunction */";
};
width = 616;
}
);
note = five;
unicode = 53;
},
{
glyphname = six;
layers = (
{
layerId = m01;
shapes = (
{
closed = 1;
nodes = (
(161,498,o),
(206,582,o),
(282,636,o),
(339,636,qs),
(379,636,o),
(453,598,o),
(471,561,q),
(562,561,l),
(550,598,o),
(506,656,o),
(448,695,o),
(378,715,o),
(340,715,qs),
(255,715,o),
(145,642,o),
(82,531,o),
(58,398,o),
(58,317,qs),
(59,252,o),
(88,134,o),
(152,45,o),
(254,-8,o),
(328,-8,qs),
(380,-8,o),
(469,26,o),
(533,88,o),
(569,174,o),
(569,227,qs),
(569,277,o),
(535,359,o),
(475,417,o),
(392,451,o),
(338,451,qs),
(280,451,o),
(176,403,o),
(142,351,q),
(142,397,o)
);
},
{
closed = 1;
nodes = (
(457,133,o),
(416,94,o),
(359,71,o),
(326,71,qs),
(293,71,o),
(236,94,o),
(194,134,o),
(170,188,o),
(170,220,qs),
(170,254,o),
(197,310,o),
(241,349,o),
(298,370,o),
(330,370,qs),
(363,370,o),
(419,347,o),
(458,306,o),
(480,251,o),
(480,218,qs),
(480,187,o)
);
}
);
userData = {
assembly = "NPUSHB[ ]	/* 53 values pushed */
0 1 6 5 1 76 0 3 4 0 4 3 0 128 0 0 0 5 6 0 5 105 0 4 4 2 97 0 2 2 46 77 0 6 6 1 97 0 1 1 47 1 78 40 40 34 20 40 40 34 7 8 29 
CALL[ ]	/* CallFunction */";
};
width = 623;
}
);
note = six;
unicode = 54;
},
{
glyphname = dieresis;
layers = (
{
layerId = m01;
shapes = (
{
closed = 1;
nodes = (
(117,687,o),
(117,662,qs),
(117,637,o),
(150,606,o),
(174,606,qs),
(199,606,o),
(232,637,o),
(232,662,qs),
(232,687,o),
(199,718,o),
(174,718,qs),
(150,718,o)
);
},
{
closed = 1;
nodes = (
(343,687,o),
(343,662,qs),
(343,637,o),
(375,606,o),
(399,606,qs),
(424,606,o),
(457,637,o),
(457,662,qs),
(457,687,o),
(424,718,o),
(399,718,qs),
(375,718,o)
);
}
);
userData = {
assembly = "PUSHB[ ]	/* 2 values pushed */
6 100 
WCVTP[ ]	/* WriteCVTInPixels */
NPUSHB[ ]	/* 42 values pushed */
5 2 4 3 0 1 1 0 89 5 2 4 3 0 0 1 97 3 1 1 0 1 81 13 12 1 0 19 17 12 23 13 23 7 5 0 11 1 11 6 8 22 
CALL[ ]	/* CallFunction */
PUSHB[ ]	/* 2 values pushed */
6 0 
WCVTP[ ]	/* WriteCVTInPixels */";
};
width = 574;
}
);
note = dieresis;
unicode = 168;
},
{
glyphname = adieresis;
kernLeft = abreve;
layers = (
{
layerId = m01;
shapes = (
{
closed = 1;
nodes = (
(110,676,o),
(110,651,qs),
(110,626,o),
(143,595,o),
(167,595,qs),
(192,595,o),
(225,626,o),
(225,651,qs),
(225,676,o),
(192,707,o),
(167,707,qs),
(143,707,o)
);
},
{
closed = 1;
nodes = (
(336,676,o),
(336,651,qs),
(336,626,o),
(368,595,o),
(392,595,qs),
(417,595,o),
(450,626,o),
(450,651,qs),
(450,676,o),
(417,707,o),
(392,707,qs),
(368,707,o)
);
},
{
closed = 1;
nodes = (
(490,0,l),
(490,285,ls),
(490,341,o),
(470,431,o),
(420,494,o),
(339,533,o),
(280,533,qs),
(246,533,o),
(178,517,o),
(120,484,o),
(78,433,o),
(71,397,q),
(162,397,l),
(174,429,o),
(238,457,o),
(280,457,qs),
(349,455,o),
(407,376,o),
(407,309,q),
(252,309,ls),
(211,309,o),
(138,294,o),
(82,256,o),
(49,195,o),
(49,150,qs),
(49,112,o),
(80,52,o),
(132,13,o),
(199,-6,o),
(236,-6,qs),
(259,-6,o),
(308,0,o),
(355,16,o),
(397,44,o),
(414,67,q),
(419,0,l)
);
},
{
closed = 1;
nodes = (
(407,212,ls),
(406,142,o),
(319,69,o),
(244,69,qs),
(223,69,o),
(183,79,o),
(152,101,o),
(134,133,o),
(134,156,qs),
(134,187,o),
(169,225,o),
(227,237,o),
(290,238,o),
(314,238,qs),
(407,238,l)
);
}
);
userData = {
assembly = "MPPEM[ ]	/* MeasurePixelPerEm */
PUSHB[ ]	/* 1 value pushed */
39 
LT[ ]	/* LessThan */
IF[ ]	/* If */
NPUSHB[ ]	/* 53 values pushed */
0 7 6 5 6 7 5 128 0 5 14 1 10 11 5 10 103 3 1 1 1 0 97 13 2 12 3 0 0 38 77 0 6 6 8 97 0 8 8 49 77 0 11 11 4 97 9 1 4 4 50 4 78 
ELSE[ ]	/* Else */
NPUSHB[ ]	/* 57 values pushed */
0 7 6 5 6 7 5 128 0 5 14 1 10 11 5 10 103 3 1 1 1 0 97 13 2 12 3 0 0 38 77 0 6 6 8 97 0 8 8 49 77 0 9 9 39 77 0 11 11 4 97 0 4 4 50 4 78 
EIF[ ]	/* EndIf */
NPUSHB[ ]	/* 39 values pushed */
62 60 13 12 1 0 71 69 60 74 62 74 59 58 53 51 47 46 44 42 40 38 30 28 19 17 12 23 13 23 7 5 0 11 1 11 15 8 22 
CALL[ ]	/* CallFunction */";
};
width = 555;
}
);
note = adieresis;
unicode = 228;
},
{
glyphname = Adieresis;
kernLeft = A;
kernRight = A;
layers = (
{
layerId = m01;
shapes = (
{
closed = 1;
nodes = (
(169,869,o),
(169,844,qs),
(169,819,o),
(202,788,o),
(226,788,qs),
(251,788,o),
(284,819,o),
(284,844,qs),
(284,869,o),
(251,900,o),
(226,900,qs),
(202,900,o)
);
},
{
closed = 1;
nodes = (
(395,869,o),
(395,844,qs),
(395,819,o),
(427,788,o),
(451,788,qs),
(476,788,o),
(509,819,o),
(509,844,qs),
(509,869,o),
(476,900,o),
(451,900,qs),
(427,900,o)
);
},
{
closed = 1;
nodes = (
(273,707,l),
(10,0,l),
(104,0,l),
(160,152,l),
(510,152,l),
(566,0,l),
(660,0,l),
(398,707,l)
);
},
{
closed = 1;
nodes = (
(335,631,l),
(481,231,l),
(189,231,l)
);
}
);
userData = {
assembly = "NPUSHB[ ]	/* 72 values pushed */
33 1 8 7 1 76 10 2 9 3 0 3 1 1 7 0 1 105 11 1 8 0 5 4 8 5 104 0 7 7 38 77 6 1 4 4 39 4 78 32 32 13 12 1 0 32 34 32 34 31 30 29 28 27 26 25 24 19 17 12 23 13 23 7 5 0 11 1 11 12 8 22 
CALL[ ]	/* CallFunction */";
};
width = 670;
}
);
note = Adieresis;
unicode = 196;
},
{
glyphname = cedilla;
layers = (
{
layerId = m01;
shapes = (
{
closed = 1;
nodes = (
(248,8,l),
(219,-119,l),
(232,-114,o),
(261,-110,o),
(271,-110,qs),
(276,-110,o),
(295,-111,o),
(314,-117,o),
(328,-133,o),
(328,-145,qs),
(328,-165,o),
(306,-186,o),
(273,-196,o),
(234,-198,o),
(217,-198,q),
(217,-253,l),
(246,-253,o),
(313,-247,o),
(344,-231,qs),
(367,-218,o),
(397,-171,o),
(397,-138,qs),
(397,-100,o),
(357,-57,o),
(318,-57,qs),
(313,-57,o),
(301,-58,o),
(295,-59,q),
(310,8,l)
);
}
);
userData = {
assembly = "PUSHB[ ]	/* 2 values pushed */
6 100 
WCVTP[ ]	/* WriteCVTInPixels */
NPUSHB[ ]	/* 46 values pushed */
26 1 2 3 1 76 0 0 4 3 4 0 3 128 0 4 0 3 2 4 3 105 0 2 1 1 2 89 0 2 2 1 97 0 1 2 1 81 19 54 33 23 34 5 8 27 
CALL[ ]	/* CallFunction */
PUSHB[ ]	/* 2 values pushed */
6 0 
WCVTP[ ]	/* WriteCVTInPixels */";
};
width = 598;
}
);
note = cedilla;
unicode = 184;
},
{
glyphname = Ecircumflex;
layers = (
{
layerId = m01;
shapes = (
{
closed = 1;
nodes = (
(562,79,l),
(174,79,l),
(174,310,l),
(523,310,l),
(523,390,l),
(174,390,l),
(174,628,l),
(562,628,l),
(562,707,l),
(87,707,l),
(87,0,l),
(562,0,l)
);
},
{
closed = 1;
nodes = (
(167,786,l),
(252,786,l),
(330,883,l),
(408,786,l),
(494,786,l),
(360,949,l),
(300,949,l)
);
}
);
userData = {
assembly = "PUSHB[ ]	/* 6 values pushed */
15 1 6 8 1 76 
MPPEM[ ]	/* MeasurePixelPerEm */
PUSHB[ ]	/* 1 value pushed */
24 
LT[ ]	/* LessThan */
IF[ ]	/* If */
NPUSHB[ ]	/* 45 values pushed */
7 1 6 8 0 8 6 0 128 0 2 0 3 4 2 3 103 10 1 8 8 44 77 0 1 1 0 95 0 0 0 38 77 0 4 4 5 95 9 1 5 5 39 5 78 
ELSE[ ]	/* Else */
NPUSHB[ ]	/* 42 values pushed */
10 1 8 6 8 133 7 1 6 0 6 133 0 2 0 3 4 2 3 103 0 1 1 0 95 0 0 0 38 77 0 4 4 5 95 9 1 5 5 39 5 78 
EIF[ ]	/* EndIf */
NPUSHB[ ]	/* 24 values pushed */
12 12 0 0 12 18 12 18 17 16 14 13 0 11 0 11 17 17 17 17 17 11 8 27 
CALL[ ]	/* CallFunction */";
};
width = 610;
}
);
note = Ecircumflex;
unicode = 202;
},
{
glyphname = ecircumflex;
kernLeft = d;
layers = (
{
layerId = m01;
shapes = (
{
closed = 1;
nodes = (
(521,241,o),
(522,259,o),
(522,268,qs),
(524,308,o),
(501,402,o),
(445,483,o),
(353,533,o),
(290,533,qs),
(228,533,o),
(138,493,o),
(76,421,o),
(43,322,o),
(43,263,qs),
(43,204,o),
(73,105,o),
(135,34,o),
(228,-6,o),
(291,-6,qs),
(328,-6,o),
(400,11,o),
(459,47,o),
(502,103,o),
(511,141,q),
(424,141,l),
(417,121,o),
(389,93,o),
(353,76,o),
(312,69,o),
(293,69,qs),
(254,69,o),
(195,94,o),
(155,138,o),
(132,197,o),
(129,232,q),
(520,232,l)
);
},
{
closed = 1;
nodes = (
(134,336,o),
(156,391,o),
(194,433,o),
(250,457,o),
(287,457,qs),
(354,457,o),
(434,373,o),
(436,306,q),
(131,306,l)
);
},
{
closed = 1;
nodes = (
(128,606,l),
(213,606,l),
(291,702,l),
(369,606,l),
(455,606,l),
(321,769,l),
(261,769,l)
);
}
);
userData = {
assembly = "NPUSHB[ ]	/* 88 values pushed */
47 1 7 9 1 76 12 1 9 7 9 133 8 1 7 3 7 133 0 1 4 0 4 1 0 128 11 1 6 10 1 4 1 6 4 103 0 5 5 3 97 0 3 3 49 77 0 0 0 2 97 0 2 2 50 2 78 44 44 35 35 0 0 44 50 44 50 49 48 46 45 35 43 35 43 39 37 0 34 0 34 40 36 20 36 13 8 26 
CALL[ ]	/* CallFunction */";
};
width = 567;
}
);
note = ecircumflex;
unicode = 234;
},
{
glyphname = Odieresis;
kernLeft = O;
kernRight = D;
layers = (
{
layerId = m01;
shapes = (
{
closed = 1;
nodes = (
(214,869,o),
(214,844,qs),
(214,819,o),
(247,788,o),
(271,788,qs),
(296,788,o),
(329,819,o),
(329,844,qs),
(329,869,o),
(296,900,o),
(271,900,qs),
(247,900,o)
);
},
{
closed = 1;
nodes = (
(440,869,o),
(440,844,qs),
(440,819,o),
(472,788,o),
(496,788,qs),
(521,788,o),
(554,819,o),
(554,844,qs),
(554,869,o),
(521,900,o),
(496,900,qs),
(472,900,o)
);
},
{
closed = 1;
nodes = (
(587,47,o),
(671,143,o),
(713,275,o),
(713,353,qs),
(713,431,o),
(671,564,o),
(587,660,o),
(463,715,o),
(381,715,qs),
(298,715,o),
(174,660,o),
(90,564,o),
(48,431,o),
(48,353,qs),
(48,275,o),
(90,143,o),
(174,47,o),
(298,-8,o),
(381,-8,qs),
(463,-8,o)
);
},
{
closed = 1;
nodes = (
(535,591,o),
(595,514,o),
(624,411,o),
(624,353,qs),
(624,295,o),
(595,193,o),
(536,116,o),
(444,71,o),
(381,71,qs),
(318,71,o),
(225,116,o),
(165,194,o),
(136,296,o),
(136,353,qs),
(136,410,o),
(166,513,o),
(226,591,o),
(318,636,o),
(381,636,qs),
(443,636,o)
);
}
);
userData = {
assembly = "NPUSHB[ ]	/* 70 values pushed */
9 2 8 3 0 3 1 1 5 0 1 105 11 1 6 6 5 97 0 5 5 46 77 0 7 7 4 97 10 1 4 4 47 4 78 45 44 25 24 13 12 1 0 55 53 44 63 45 63 35 33 24 43 25 43 19 17 12 23 13 23 7 5 0 11 1 11 12 8 22 
CALL[ ]	/* CallFunction */";
};
width = 761;
}
);
note = Odieresis;
unicode = 214;
},
{
glyphname = odieresis;
kernLeft = d;
layers = (
{
layerId = m01;
shapes = (
{
closed = 1;
nodes = (
(127,676,o),
(127,651,qs),
(127,626,o),
(160,595,o),
(184,595,qs),
(209,595,o),
(242,626,o),
(242,651,qs),
(242,676,o),
(209,707,o),
(184,707,qs),
(160,707,o)
);
},
{
closed = 1;
nodes = (
(353,676,o),
(353,651,qs),
(353,626,o),
(385,595,o),
(409,595,qs),
(434,595,o),
(467,626,o),
(467,651,qs),
(467,676,o),
(434,707,o),
(409,707,qs),
(385,707,o)
);
},
{
closed = 1;
nodes = (
(137,493,o),
(74,421,o),
(43,322,o),
(43,263,qs),
(43,204,o),
(74,105,o),
(137,34,o),
(230,-6,o),
(293,-6,qs),
(356,-6,o),
(450,34,o),
(513,105,o),
(544,204,o),
(544,263,qs),
(544,322,o),
(513,421,o),
(450,493,o),
(356,533,o),
(293,533,qs),
(230,533,o)
);
},
{
closed = 1;
nodes = (
(188,99,o),
(147,152,o),
(128,222,o),
(128,263,qs),
(128,303,o),
(147,374,o),
(188,427,o),
(250,457,o),
(293,457,qs),
(336,457,o),
(399,427,o),
(440,374,o),
(459,303,o),
(459,263,qs),
(459,222,o),
(440,152,o),
(399,99,o),
(336,69,o),
(293,69,qs),
(250,69,o)
);
}
);
userData = {
assembly = "NPUSHB[ ]	/* 72 values pushed */
3 1 1 1 0 97 9 2 8 3 0 0 38 77 0 7 7 4 97 10 1 4 4 49 77 11 1 6 6 5 97 0 5 5 50 5 78 45 44 25 24 13 12 1 0 55 53 44 63 45 63 35 33 24 43 25 43 19 17 12 23 13 23 7 5 0 11 1 11 12 8 22 
CALL[ ]	/* CallFunction */";
};
width = 587;
}
);
note = odieresis;
unicode = 246;
},
{
glyphname = dotlessi;
layers = (
{
layerId = m01;
shapes = (
{
closed = 1;
nodes = (
(67,527,l),
(67,0,l),
(152,0,l),
(152,527,l)
);
}
);
userData = {
assembly = "NPUSHB[ ]	/* 16 values pushed */
0 1 1 41 77 0 0 0 39 0 78 17 16 2 8 24 
CALL[ ]	/* CallFunction */";
};
width = 219;
}
);
note = dotlessi;
unicode = 305;
},
{
glyphname = Idotaccent;
layers = (
{
layerId = m01;
shapes = (
{
closed = 1;
nodes = (
(73,866,o),
(73,841,qs),
(73,816,o),
(105,784,o),
(130,784,qs),
(154,784,o),
(188,816,o),
(188,841,qs),
(188,866,o),
(154,897,o),
(130,897,qs),
(105,897,o)
);
},
{
closed = 1;
nodes = (
(87,707,l),
(87,0,l),
(174,0,l),
(174,707,l)
);
}
);
userData = {
assembly = "NPUSHB[ ]	/* 35 values pushed */
4 1 0 0 1 3 0 1 105 0 3 3 38 77 0 2 2 39 2 78 1 0 15 14 13 12 7 5 0 11 1 11 5 8 22 
CALL[ ]	/* CallFunction */";
};
width = 261;
}
);
note = Idotaccent;
unicode = 304;
},
{
glyphname = udieresis;
layers = (
{
layerId = m01;
shapes = (
{
closed = 1;
nodes = (
(117,676,o),
(117,651,qs),
(117,626,o),
(150,595,o),
(174,595,qs),
(199,595,o),
(232,626,o),
(232,651,qs),
(232,676,o),
(199,707,o),
(174,707,qs),
(150,707,o)
);
},
{
closed = 1;
nodes = (
(343,676,o),
(343,651,qs),
(343,626,o),
(375,595,o),
(399,595,qs),
(424,595,o),
(457,626,o),
(457,651,qs),
(457,676,o),
(424,707,o),
(399,707,qs),
(375,707,o)
);
},
{
closed = 1;
nodes = (
(150,156,o),
(150,234,qs),
(150,527,l),
(65,527,l),
(65,230,ls),
(65,110,o),
(178,-6,o),
(287,-6,qs),
(396,-6,o),
(511,110,o),
(511,230,qs),
(511,527,l),
(426,527,l),
(426,234,ls),
(426,156,o),
(359,69,o),
(287,69,qs),
(218,69,o)
);
}
);
userData = {
assembly = "NPUSHB[ ]	/* 63 values pushed */
3 1 1 1 0 97 9 2 8 3 0 0 38 77 7 1 5 5 41 77 10 1 4 4 6 97 0 6 6 50 6 78 25 24 13 12 1 0 38 37 34 32 29 28 24 41 25 41 19 17 12 23 13 23 7 5 0 11 1 11 11 8 22 
CALL[ ]	/* CallFunction */";
};
width = 576;
}
);
note = udieresis;
unicode = 252;
},
{
glyphname = Udieresis;
layers = (
{
layerId = m01;
shapes = (
{
closed = 1;
nodes = (
(193,868,o),
(193,843,qs),
(193,818,o),
(226,787,o),
(250,787,qs),
(275,787,o),
(308,818,o),
(308,843,qs),
(308,868,o),
(275,899,o),
(250,899,qs),
(226,899,o)
);
},
{
closed = 1;
nodes = (
(419,868,o),
(419,843,qs),
(419,818,o),
(451,787,o),
(475,787,qs),
(500,787,o),
(533,818,o),
(533,843,qs),
(533,868,o),
(500,899,o),
(475,899,qs),
(451,899,o)
);
},
{
closed = 1;
nodes = (
(556,306,ls),
(556,258,o),
(537,173,o),
(492,108,o),
(418,71,o),
(364,71,qs),
(310,71,o),
(235,108,o),
(189,172,o),
(169,258,o),
(169,306,qs),
(169,707,l),
(82,707,l),
(82,305,ls),
(82,237,o),
(114,123,o),
(182,39,o),
(289,-8,o),
(363,-8,qs),
(437,-8,o),
(543,40,o),
(612,124,o),
(644,238,o),
(644,305,qs),
(644,707,l),
(556,707,l)
);
}
);
userData = {
assembly = "NPUSHB[ ]	/* 61 values pushed */
9 2 8 3 0 3 1 1 5 0 1 105 10 7 2 5 5 38 77 0 6 6 4 97 0 4 4 47 4 78 24 24 13 12 1 0 24 49 24 49 44 42 37 36 31 29 19 17 12 23 13 23 7 5 0 11 1 11 11 8 22 
CALL[ ]	/* CallFunction */";
};
width = 726;
}
);
note = Udieresis;
unicode = 220;
},
{
glyphname = ccedilla;
kernLeft = d;
layers = (
{
layerId = m01;
shapes = (
{
closed = 1;
nodes = (
(316,-187,o),
(283,-197,o),
(244,-199,o),
(227,-198,q),
(227,-250,l),
(235,-252,o),
(252,-253,o),
(260,-253,qs),
(274,-253,o),
(324,-246,o),
(373,-221,o),
(407,-174,o),
(407,-138,qs),
(406,-89,o),
(377,-71,qs),
(358,-58,o),
(328,-57,qs),
(323,-57,o),
(311,-58,o),
(305,-59,q),
(317,-4,l),
(351,-1,o),
(415,20,o),
(466,58,o),
(502,113,o),
(509,151,q),
(421,151,l),
(415,128,o),
(389,96,o),
(354,77,o),
(313,69,o),
(292,69,qs),
(249,69,o),
(187,100,o),
(148,153,o),
(129,223,o),
(129,262,qs),
(129,299,o),
(147,370,o),
(186,424,o),
(247,457,o),
(291,457,qs),
(336,458,o),
(405,422,o),
(418,376,q),
(505,376,l),
(488,458,o),
(379,533,o),
(291,533,qs),
(230,533,o),
(138,491,o),
(76,418,o),
(44,319,o),
(44,262,qs),
(44,208,o),
(69,115,o),
(122,45,o),
(201,1,o),
(255,-4,q),
(229,-119,l),
(242,-114,o),
(271,-110,o),
(281,-110,qs),
(286,-110,o),
(305,-111,o),
(324,-117,o),
(337,-132,o),
(338,-145,qs),
(338,-165,o)
);
}
);
userData = {
assembly = "NPUSHB[ ]	/* 19 values pushed */
9 1 6 4 48 1 0 6 8 0 2 8 0 63 1 7 8 4 76 
MPPEM[ ]	/* MeasurePixelPerEm */
PUSHB[ ]	/* 1 value pushed */
16 
LT[ ]	/* LessThan */
IF[ ]	/* If */
NPUSHB[ ]	/* 52 values pushed */
0 2 3 5 3 2 5 128 0 5 4 3 5 4 126 0 6 4 0 4 6 0 128 0 4 0 0 8 4 0 105 0 3 3 1 97 0 1 1 49 77 0 8 8 7 97 0 7 7 51 7 78 
ELSE[ ]	/* Else */
NPUSHB[ ]	/* 49 values pushed */
0 2 3 5 3 2 5 128 0 5 4 3 5 4 126 0 6 4 0 4 6 0 128 0 4 0 0 8 4 0 105 0 8 0 7 8 7 101 0 3 3 1 97 0 1 1 49 3 78 
EIF[ ]	/* EndIf */
NPUSHB[ ]	/* 12 values pushed */
34 55 40 20 40 34 18 44 51 9 8 31 
CALL[ ]	/* CallFunction */";
};
width = 550;
}
);
note = ccedilla;
unicode = 231;
},
{
glyphname = uni0162;
kernLeft = uni0422;
kernRight = uni0422;
layers = (
{
layerId = m01;
shapes = (
{
closed = 1;
nodes = (
(328,628,l),
(555,628,l),
(555,707,l),
(14,707,l),
(14,628,l),
(241,628,l),
(241,0,l),
(252,0,l),
(224,-119,l),
(237,-114,o),
(266,-110,o),
(276,-110,qs),
(281,-110,o),
(300,-111,o),
(320,-117,o),
(333,-132,o),
(333,-145,qs),
(333,-165,o),
(311,-187,o),
(278,-197,o),
(239,-199,o),
(222,-198,q),
(222,-250,l),
(230,-252,o),
(247,-253,o),
(255,-253,qs),
(269,-254,o),
(319,-246,o),
(368,-221,o),
(403,-175,o),
(402,-138,qs),
(402,-91,o),
(369,-70,qs),
(349,-57,o),
(321,-57,qs),
(316,-57,o),
(305,-58,o),
(300,-59,q),
(313,0,l),
(328,0,l)
);
}
);
userData = {
assembly = "NPUSHB[ ]	/* 14 values pushed */
1 1 3 0 30 1 2 3 16 1 1 2 3 76 
MPPEM[ ]	/* MeasurePixelPerEm */
PUSHB[ ]	/* 1 value pushed */
16 
LT[ ]	/* LessThan */
IF[ ]	/* If */
NPUSHB[ ]	/* 44 values pushed */
0 0 4 3 4 0 3 128 0 3 2 4 3 2 126 7 1 5 5 6 95 0 6 6 38 77 9 8 2 4 4 39 77 0 2 2 1 97 0 1 1 51 1 78 
ELSE[ ]	/* Else */
NPUSHB[ ]	/* 41 values pushed */
0 0 4 3 4 0 3 128 0 3 2 4 3 2 126 0 2 0 1 2 1 101 7 1 5 5 6 95 0 6 6 38 77 9 8 2 4 4 39 4 78 
EIF[ ]	/* EndIf */
NPUSHB[ ]	/* 17 values pushed */
0 0 0 39 0 39 17 17 17 19 54 34 40 35 10 8 30 
CALL[ ]	/* CallFunction */";
};
width = 569;
}
);
note = uni0162;
unicode = 354;
},
{
glyphname = uni0163;
kernLeft = t;
layers = (
{
layerId = m01;
shapes = (
{
closed = 1;
nodes = (
(115,684,l),
(115,527,l),
(29,527,l),
(29,452,l),
(115,452,l),
(115,170,ls),
(115,107,o),
(150,31,o),
(192,14,q),
(155,-119,l),
(168,-114,o),
(197,-110,o),
(207,-110,qs),
(212,-110,o),
(231,-111,o),
(252,-117,o),
(264,-132,o),
(264,-145,qs),
(264,-165,o),
(242,-187,o),
(209,-197,o),
(170,-199,o),
(153,-198,q),
(153,-251,l),
(161,-252,o),
(178,-253,o),
(186,-253,qs),
(200,-254,o),
(250,-246,o),
(299,-221,o),
(334,-175,o),
(333,-138,qs),
(333,-135,ls),
(333,-89,o),
(302,-70,qs),
(281,-57,o),
(254,-57,qs),
(249,-57,o),
(237,-58,o),
(231,-59,q),
(250,1,l),
(258,0,o),
(264,0,o),
(267,0,qs),
(338,0,l),
(338,74,l),
(299,74,ls),
(242,74,o),
(200,125,o),
(200,179,qs),
(200,452,l),
(341,452,l),
(341,527,l),
(200,527,l),
(200,684,l)
);
}
);
userData = {
assembly = "NPUSHB[ ]	/* 18 values pushed */
45 1 3 2 14 1 7 4 44 1 6 7 30 1 5 6 4 76 
MPPEM[ ]	/* MeasurePixelPerEm */
PUSHB[ ]	/* 1 value pushed */
16 
LT[ ]	/* LessThan */
IF[ ]	/* If */
NPUSHB[ ]	/* 53 values pushed */
0 4 3 7 3 4 7 128 0 7 6 3 7 6 126 0 10 10 38 77 8 1 1 1 0 95 9 1 0 0 41 77 0 2 2 3 95 0 3 3 39 77 0 6 6 5 97 0 5 5 51 5 78 
ELSE[ ]	/* Else */
MPPEM[ ]	/* MeasurePixelPerEm */
PUSHB[ ]	/* 1 value pushed */
22 
LT[ ]	/* LessThan */
IF[ ]	/* If */
NPUSHB[ ]	/* 50 values pushed */
0 4 3 7 3 4 7 128 0 7 6 3 7 6 126 0 6 0 5 6 5 101 0 10 10 38 77 8 1 1 1 0 95 9 1 0 0 41 77 0 2 2 3 95 0 3 3 39 3 78 
ELSE[ ]	/* Else */
NPUSHB[ ]	/* 50 values pushed */
0 10 0 10 133 0 4 3 7 3 4 7 128 0 7 6 3 7 6 126 0 6 0 5 6 5 101 8 1 1 1 0 95 9 1 0 0 41 77 0 2 2 3 95 0 3 3 39 3 78 
EIF[ ]	/* EndIf */
EIF[ ]	/* EndIf */
NPUSHB[ ]	/* 16 values pushed */
54 53 52 51 23 54 34 41 36 49 35 17 16 11 8 31 
CALL[ ]	/* CallFunction */";
};
width = 380;
}
);
note = uni0163;
unicode = 355;
},
{
glyphname = Ccedilla;
kernLeft = O;
kernRight = D;
layers = (
{
layerId = m01;
shapes = (
{
closed = 1;
nodes = (
(546,574,o),
(561,522,q),
(649,522,l),
(639,565,o),
(595,636,o),
(526,687,o),
(433,715,o),
(375,715,qs),
(292,715,o),
(170,660,o),
(88,563,o),
(48,431,o),
(48,353,qs),
(48,279,o),
(83,152,o),
(155,58,o),
(263,0,o),
(336,-6,q),
(310,-121,l),
(323,-116,o),
(352,-112,o),
(362,-112,qs),
(367,-112,o),
(386,-113,o),
(405,-119,o),
(419,-134,o),
(419,-147,qs),
(419,-167,o),
(397,-189,o),
(364,-199,o),
(325,-201,o),
(308,-200,q),
(308,-253,l),
(317,-254,o),
(333,-255,o),
(341,-255,qs),
(363,-255,o),
(405,-248,o),
(454,-223,o),
(489,-171,o),
(488,-140,qs),
(488,-91,o),
(456,-72,qs),
(436,-59,o),
(409,-59,qs),
(404,-59,o),
(392,-60,o),
(386,-61,q),
(398,-7,l),
(504,-2,o),
(640,100,o),
(662,185,q),
(567,185,l),
(552,131,o),
(450,71,o),
(375,71,qs),
(313,71,o),
(223,116,o),
(165,193,o),
(137,297,o),
(137,356,qs),
(137,411,o),
(163,512,o),
(220,590,o),
(309,636,o),
(372,636,qs),
(447,636,o)
);
}
);
userData = {
assembly = "NPUSHB[ ]	/* 18 values pushed */
48 1 4 3 18 1 7 4 47 1 6 7 33 1 5 6 4 76 
MPPEM[ ]	/* MeasurePixelPerEm */
PUSHB[ ]	/* 1 value pushed */
12 
LT[ ]	/* LessThan */
IF[ ]	/* If */
NPUSHB[ ]	/* 61 values pushed */
0 9 0 2 0 9 2 128 0 2 1 0 2 1 126 0 4 3 7 3 4 7 128 0 7 6 3 7 112 10 1 0 0 8 97 0 8 8 46 77 0 1 1 3 97 0 3 3 50 77 0 6 6 5 97 0 5 5 51 5 78 
ELSE[ ]	/* Else */
MPPEM[ ]	/* MeasurePixelPerEm */
PUSHB[ ]	/* 1 value pushed */
16 
LT[ ]	/* LessThan */
IF[ ]	/* If */
NPUSHB[ ]	/* 62 values pushed */
0 9 0 2 0 9 2 128 0 2 1 0 2 1 126 0 4 3 7 3 4 7 128 0 7 6 3 7 6 126 10 1 0 0 8 97 0 8 8 46 77 0 1 1 3 97 0 3 3 50 77 0 6 6 5 97 0 5 5 51 5 78 
ELSE[ ]	/* Else */
NPUSHB[ ]	/* 59 values pushed */
0 9 0 2 0 9 2 128 0 2 1 0 2 1 126 0 4 3 7 3 4 7 128 0 7 6 3 7 6 126 0 6 0 5 6 5 101 10 1 0 0 8 97 0 8 8 46 77 0 1 1 3 97 0 3 3 50 3 78 
EIF[ ]	/* EndIf */
EIF[ ]	/* EndIf */
NPUSHB[ ]	/* 27 values pushed */
1 0 64 63 59 57 45 42 36 34 32 29 22 20 17 16 14 13 11 9 0 66 1 66 11 8 22 
CALL[ ]	/* CallFunction */";
};
width = 710;
}
);
note = Ccedilla;
unicode = 199;
},
{
glyphname = scedilla;
kernLeft = d;
layers = (
{
layerId = m01;
shapes = (
{
closed = 1;
nodes = (
(369,420,o),
(376,391,q),
(455,391,l),
(451,422,o),
(419,478,o),
(390,498,qs),
(343,533,o),
(261,533,qs),
(226,533,o),
(156,519,o),
(125,501,qs),
(97,483,o),
(61,428,o),
(59,386,qs),
(59,340,o),
(95,282,o),
(121,265,qs),
(142,252,o),
(190,237,o),
(241,226,o),
(292,217,o),
(316,212,qs),
(352,206,o),
(389,177,o),
(389,144,qs),
(389,117,o),
(363,88,o),
(325,73,o),
(281,68,o),
(264,69,qs),
(242,70,o),
(211,76,o),
(171,91,o),
(137,119,o),
(129,143,q),
(43,143,l),
(48,105,o),
(82,52,o),
(132,17,o),
(194,-1,o),
(226,-4,q),
(200,-119,l),
(213,-114,o),
(242,-110,o),
(252,-110,qs),
(257,-110,o),
(276,-111,o),
(295,-117,o),
(309,-132,o),
(309,-145,qs),
(309,-165,o),
(287,-187,o),
(254,-197,o),
(215,-199,o),
(198,-198,q),
(198,-250,l),
(206,-251,o),
(223,-253,o),
(231,-253,qs),
(245,-254,o),
(295,-246,o),
(344,-221,o),
(379,-171,o),
(378,-135,qs),
(378,-89,o),
(348,-70,qs),
(326,-57,o),
(299,-57,qs),
(294,-57,o),
(282,-58,o),
(276,-59,q),
(288,-5,l),
(323,-3,o),
(389,14,o),
(441,49,o),
(473,104,o),
(474,151,qs),
(474,248,o),
(378,278,qs),
(366,282,o),
(331,290,o),
(292,297,o),
(252,304,o),
(235,308,qs),
(194,316,o),
(143,350,o),
(143,384,qs),
(144,408,o),
(169,437,o),
(204,452,o),
(245,457,o),
(262,457,qs),
(307,455,o)
);
}
);
userData = {
assembly = "NPUSHB[ ]	/* 97 values pushed */
21 1 4 2 50 1 3 4 2 76 51 1 1 1 75 36 1 3 73 0 8 0 5 0 8 5 128 0 5 6 0 5 6 126 0 2 1 4 1 2 4 128 0 3 4 3 134 0 6 0 4 3 6 4 105 9 1 0 0 7 97 0 7 7 49 77 0 1 1 50 1 78 1 0 90 89 85 83 63 61 57 56 48 45 39 37 25 23 20 19 0 92 1 92 10 8 22 
CALL[ ]	/* CallFunction */";
};
width = 518;
}
);
note = scedilla;
unicode = 351;
},
{
glyphname = uni21A9;
layers = (
{
layerId = m01;
shapes = (
{
closed = 1;
nodes = (
(758,0,ls),
(834,0,o),
(953,50,o),
(1035,140,o),
(1079,265,o),
(1079,340,qs),
(1079,414,o),
(1035,539,o),
(953,629,o),
(834,679,o),
(758,679,qs),
(195,679,l),
(195,603,l),
(757,603,ls),
(815,603,o),
(905,562,o),
(967,491,o),
(999,395,o),
(999,340,qs),
(999,284,o),
(967,188,o),
(905,117,o),
(815,76,o),
(757,76,qs),
(194,76,l),
(422,296,l),
(377,354,l),
(59,39,l),
(377,-275,l),
(424,-221,l),
(194,0,l)
);
}
);
userData = {
assembly = "NPUSHB[ ]	/* 46 values pushed */
4 3 2 0 1 2 1 3 0 2 76 1 1 3 73 0 2 0 1 0 2 1 103 0 0 3 3 0 87 0 0 0 3 95 0 3 0 3 79 40 33 40 37 4 6 26 
CALL[ ]	/* CallFunction */";
};
width = 1138;
}
);
note = uni21A9;
unicode = 8617;
},
{
glyphname = uni2713;
layers = (
{
layerId = m01;
shapes = (
{
closed = 1;
nodes = (
(124,433,l),
(59,372,l),
(373,-1,l),
(980,766,l),
(913,827,l),
(374,141,l)
);
}
);
userData = {
assembly = "PUSHB[ ]	/* 4 values pushed */
2 0 1 50 
CALL[ ]	/* CallFunction */";
};
width = 1039;
}
);
note = uni2713;
unicode = 10003;
},
{
glyphname = divide;
layers = (
{
layerId = m01;
shapes = (
{
closed = 1;
nodes = (
(177,560,o),
(177,534,qs),
(177,508,o),
(210,474,o),
(236,474,qs),
(262,474,o),
(296,508,o),
(296,534,qs),
(296,560,o),
(262,594,o),
(236,594,qs),
(210,594,o)
);
},
{
closed = 1;
nodes = (
(415,322,l),
(415,399,l),
(59,399,l),
(59,322,l)
);
},
{
closed = 1;
nodes = (
(177,205,o),
(177,179,qs),
(177,152,o),
(210,118,o),
(236,118,qs),
(262,118,o),
(296,152,o),
(296,179,qs),
(296,205,o),
(262,239,o),
(236,239,qs),
(210,239,o)
);
}
);
userData = {
assembly = "NPUSHB[ ]	/* 58 values pushed */
6 1 0 0 1 2 0 1 105 0 2 0 3 4 2 3 103 7 1 4 5 5 4 89 7 1 4 4 5 97 0 5 4 5 81 17 16 1 0 23 21 16 27 17 27 15 14 13 12 7 5 0 11 1 11 8 8 22 
CALL[ ]	/* CallFunction */";
};
width = 474;
}
);
note = divide;
unicode = 247;
},
{
glyphname = multiply;
layers = (
{
layerId = m01;
shapes = (
{
closed = 1;
nodes = (
(427,215,l),
(289,353,l),
(427,492,l),
(377,542,l),
(239,403,l),
(100,542,l),
(50,492,l),
(189,353,l),
(50,215,l),
(100,165,l),
(239,303,l),
(377,165,l)
);
}
);
userData = {
assembly = "PUSHB[ ]	/* 4 values pushed */
5 1 1 50 
CALL[ ]	/* CallFunction */";
};
width = 477;
}
);
note = multiply;
unicode = 215;
},
{
glyphname = yen;
layers = (
{
layerId = m01;
shapes = (
{
closed = 1;
nodes = (
(139,707,l),
(39,707,l),
(256,324,l),
(144,324,l),
(144,247,l),
(289,247,l),
(289,166,l),
(144,166,l),
(144,89,l),
(289,89,l),
(289,0,l),
(376,0,l),
(376,89,l),
(519,89,l),
(519,166,l),
(376,166,l),
(376,247,l),
(519,247,l),
(519,324,l),
(409,324,l),
(625,707,l),
(526,707,l),
(334,353,l)
);
}
);
userData = {
assembly = "NPUSHB[ ]	/* 54 values pushed */
22 1 1 0 1 76 9 1 1 8 1 2 3 1 2 103 7 1 3 6 1 4 5 3 4 103 10 1 0 0 38 77 0 5 5 39 5 78 21 20 19 18 17 17 17 17 17 17 17 17 16 11 8 31 
CALL[ ]	/* CallFunction */";
};
width = 664;
}
);
note = yen;
unicode = 165;
},
{
glyphname = uni20BD;
layers = (
{
layerId = m01;
shapes = (
{
closed = 1;
nodes = (
(156,92,l),
(156,0,l),
(243,0,l),
(243,92,l),
(484,92,l),
(484,171,l),
(243,171,l),
(243,252,l),
(391,252,ls),
(447,252,o),
(542,279,o),
(611,336,o),
(650,423,o),
(650,482,qs),
(650,602,o),
(519,707,o),
(401,707,qs),
(156,707,l),
(156,332,l),
(59,332,l),
(59,252,l),
(156,252,l),
(156,171,l),
(59,171,l),
(59,92,l)
);
},
{
closed = 1;
nodes = (
(243,628,l),
(399,628,ls),
(481,628,o),
(562,562,o),
(562,483,qs),
(561,440,o),
(534,384,o),
(488,349,o),
(427,332,o),
(392,332,qs),
(243,332,l)
);
}
);
userData = {
assembly = "NPUSHB[ ]	/* 57 values pushed */
11 9 2 2 4 1 1 0 2 1 103 5 1 0 8 1 6 7 0 6 103 0 10 10 3 95 0 3 3 38 77 0 7 7 39 7 78 26 25 34 32 25 35 26 35 17 17 17 17 38 33 17 17 16 12 8 31 
CALL[ ]	/* CallFunction */";
};
width = 699;
}
);
note = uni20BD;
unicode = 8381;
},
